G04*
G04 #@! TF.GenerationSoftware,Altium Limited,Altium Designer,19.0.10 (269)*
G04*
G04 Layer_Color=16711935*
%FSLAX25Y25*%
%MOIN*%
G70*
G01*
G75*
%ADD10C,0.01000*%
%ADD16C,0.00500*%
%ADD89C,0.00100*%
%ADD90C,0.00051*%
%ADD91C,0.00393*%
%ADD92C,0.00050*%
G36*
X116898Y614986D02*
X116911Y614973D01*
X116938Y614945D01*
Y614938D01*
X116952Y614925D01*
X116959Y614897D01*
X116973Y614863D01*
Y614857D01*
Y614829D01*
X116980Y614788D01*
Y614734D01*
Y614720D01*
Y614693D01*
Y614658D01*
X116973Y614617D01*
Y614611D01*
X116966Y614583D01*
X116952Y614556D01*
X116945Y614529D01*
X116938Y614522D01*
X116932Y614508D01*
X116898Y614474D01*
X116891Y614467D01*
X116877Y614460D01*
X116863Y614454D01*
X115777D01*
Y610581D01*
X116761Y611168D01*
X116775Y611175D01*
X116802Y611189D01*
X116843Y611209D01*
X116884Y611223D01*
X116911D01*
X116938Y611216D01*
X116959Y611202D01*
X116966Y611196D01*
X116973Y611182D01*
X116986Y611155D01*
X116993Y611121D01*
Y611107D01*
Y611080D01*
X117000Y611032D01*
Y610970D01*
Y610957D01*
Y610929D01*
Y610895D01*
Y610854D01*
Y610847D01*
X116993Y610827D01*
X116986Y610800D01*
X116980Y610779D01*
Y610772D01*
X116973Y610759D01*
X116945Y610724D01*
X116938Y610718D01*
X116932Y610704D01*
X116891Y610670D01*
X115716Y609918D01*
X115709Y609912D01*
X115682Y609905D01*
X115675D01*
X115661Y609898D01*
X115620Y609884D01*
X115613D01*
X115600Y609877D01*
X115532D01*
X115504Y609871D01*
X115368D01*
X115313Y609877D01*
X115265Y609884D01*
X115252D01*
X115224Y609891D01*
X115190Y609898D01*
X115163Y609905D01*
X115156D01*
X115142Y609912D01*
X115129Y609925D01*
X115115Y609939D01*
X115108Y609953D01*
X115101Y609987D01*
Y614454D01*
X114159D01*
X114145Y614460D01*
X114125Y614474D01*
X114118Y614481D01*
X114111Y614488D01*
X114077Y614529D01*
X114070Y614536D01*
X114063Y614549D01*
X114056Y614583D01*
X114049Y614617D01*
Y614624D01*
X114043Y614652D01*
X114036Y614686D01*
Y614734D01*
Y614747D01*
Y614775D01*
X114043Y614822D01*
X114049Y614863D01*
Y614870D01*
X114056Y614891D01*
X114084Y614945D01*
Y614952D01*
X114097Y614959D01*
X114131Y614986D01*
X114145Y614993D01*
X114179Y615000D01*
X116857D01*
X116898Y614986D01*
D02*
G37*
G36*
X61843Y614993D02*
X61877Y614986D01*
X61884D01*
X61898Y614973D01*
X61945Y614945D01*
X61952Y614938D01*
X61959Y614918D01*
X61973Y614891D01*
X61986Y614857D01*
Y614843D01*
X61993Y614816D01*
X62000Y614768D01*
Y614706D01*
Y614700D01*
Y614693D01*
Y614658D01*
Y614617D01*
Y614576D01*
Y614563D01*
X61993Y614542D01*
X61986Y614501D01*
X61973Y614467D01*
X61966Y614460D01*
X61959Y614440D01*
X61945Y614413D01*
X61925Y614378D01*
X61918Y614372D01*
X61904Y614351D01*
X61877Y614317D01*
X61843Y614283D01*
X60818Y613231D01*
X60812Y613224D01*
X60805Y613217D01*
X60784Y613197D01*
X60764Y613170D01*
X60695Y613101D01*
X60620Y613013D01*
X60532Y612910D01*
X60436Y612808D01*
X60340Y612691D01*
X60258Y612582D01*
X60251Y612569D01*
X60224Y612534D01*
X60183Y612480D01*
X60135Y612411D01*
X60081Y612329D01*
X60026Y612241D01*
X59971Y612152D01*
X59924Y612063D01*
X59917Y612049D01*
X59903Y612022D01*
X59883Y611974D01*
X59862Y611920D01*
X59835Y611851D01*
X59814Y611783D01*
X59787Y611708D01*
X59773Y611633D01*
Y611626D01*
X59767Y611599D01*
X59760Y611558D01*
X59753Y611510D01*
X59746Y611455D01*
X59739Y611394D01*
X59732Y611264D01*
Y611257D01*
Y611237D01*
Y611202D01*
X59739Y611162D01*
X59746Y611114D01*
X59760Y611059D01*
X59794Y610950D01*
Y610943D01*
X59801Y610922D01*
X59814Y610895D01*
X59835Y610854D01*
X59883Y610772D01*
X59958Y610683D01*
X59965Y610677D01*
X59978Y610663D01*
X59999Y610642D01*
X60033Y610615D01*
X60074Y610588D01*
X60122Y610554D01*
X60231Y610499D01*
X60238D01*
X60258Y610485D01*
X60293Y610478D01*
X60334Y610465D01*
X60388Y610451D01*
X60450Y610444D01*
X60525Y610431D01*
X60689D01*
X60750Y610438D01*
X60818Y610444D01*
X60893Y610458D01*
X61051Y610499D01*
X61058D01*
X61085Y610513D01*
X61119Y610526D01*
X61167Y610540D01*
X61215Y610567D01*
X61276Y610588D01*
X61392Y610649D01*
X61399D01*
X61419Y610663D01*
X61447Y610677D01*
X61481Y610697D01*
X61563Y610738D01*
X61645Y610793D01*
X61652D01*
X61659Y610800D01*
X61699Y610820D01*
X61747Y610847D01*
X61788Y610854D01*
X61802D01*
X61843Y610841D01*
X61857Y610827D01*
X61863Y610813D01*
X61877Y610793D01*
Y610786D01*
X61884Y610765D01*
X61891Y610738D01*
X61898Y610697D01*
Y610683D01*
Y610656D01*
X61904Y610608D01*
Y610554D01*
Y610540D01*
Y610520D01*
Y610485D01*
Y610451D01*
Y610444D01*
X61898Y610424D01*
X61891Y610376D01*
Y610369D01*
X61884Y610356D01*
X61863Y610315D01*
Y610308D01*
X61850Y610294D01*
X61829Y610274D01*
X61802Y610246D01*
X61795Y610240D01*
X61761Y610219D01*
X61713Y610185D01*
X61638Y610137D01*
X61631D01*
X61617Y610123D01*
X61590Y610110D01*
X61556Y610096D01*
X61515Y610076D01*
X61467Y610048D01*
X61351Y610000D01*
X61344Y609994D01*
X61317Y609987D01*
X61283Y609973D01*
X61235Y609960D01*
X61180Y609939D01*
X61112Y609918D01*
X60962Y609877D01*
X60955D01*
X60928Y609871D01*
X60880Y609864D01*
X60825Y609850D01*
X60757Y609843D01*
X60682Y609836D01*
X60518Y609830D01*
X60456D01*
X60388Y609836D01*
X60299Y609843D01*
X60197Y609857D01*
X60094Y609877D01*
X59978Y609905D01*
X59876Y609939D01*
X59862Y609946D01*
X59828Y609960D01*
X59780Y609980D01*
X59712Y610014D01*
X59637Y610055D01*
X59562Y610103D01*
X59487Y610157D01*
X59411Y610226D01*
X59405Y610233D01*
X59384Y610260D01*
X59350Y610294D01*
X59309Y610342D01*
X59261Y610403D01*
X59220Y610478D01*
X59172Y610554D01*
X59138Y610642D01*
X59131Y610656D01*
X59125Y610683D01*
X59111Y610731D01*
X59090Y610793D01*
X59070Y610875D01*
X59056Y610957D01*
X59049Y611052D01*
X59043Y611155D01*
Y611168D01*
Y611196D01*
Y611243D01*
X59049Y611305D01*
X59056Y611380D01*
X59063Y611469D01*
X59090Y611647D01*
Y611660D01*
X59097Y611687D01*
X59111Y611735D01*
X59131Y611804D01*
X59152Y611879D01*
X59186Y611968D01*
X59227Y612063D01*
X59275Y612165D01*
X59282Y612179D01*
X59302Y612213D01*
X59329Y612275D01*
X59377Y612350D01*
X59432Y612439D01*
X59500Y612548D01*
X59582Y612664D01*
X59678Y612794D01*
Y612801D01*
X59692Y612808D01*
X59705Y612828D01*
X59726Y612855D01*
X59780Y612924D01*
X59862Y613019D01*
X59965Y613135D01*
X60081Y613272D01*
X60217Y613422D01*
X60374Y613586D01*
X61180Y614426D01*
X58947D01*
X58926Y614433D01*
X58906Y614447D01*
X58899Y614454D01*
X58892Y614460D01*
X58858Y614501D01*
X58851Y614508D01*
X58845Y614522D01*
X58831Y614556D01*
X58824Y614590D01*
Y614597D01*
X58817Y614624D01*
X58810Y614665D01*
Y614713D01*
Y614727D01*
Y614754D01*
X58817Y614795D01*
X58824Y614836D01*
Y614843D01*
X58831Y614870D01*
X58838Y614897D01*
X58851Y614932D01*
Y614938D01*
X58865Y614952D01*
X58899Y614986D01*
X58906D01*
X58920Y614993D01*
X58961Y615000D01*
X61816D01*
X61843Y614993D01*
D02*
G37*
G36*
X704798Y602386D02*
X704811Y602373D01*
X704839Y602345D01*
Y602339D01*
X704852Y602325D01*
X704859Y602297D01*
X704873Y602263D01*
Y602257D01*
Y602229D01*
X704880Y602188D01*
Y602134D01*
Y602120D01*
Y602093D01*
Y602059D01*
X704873Y602017D01*
Y602011D01*
X704866Y601983D01*
X704852Y601956D01*
X704845Y601929D01*
X704839Y601922D01*
X704832Y601908D01*
X704798Y601874D01*
X704791Y601867D01*
X704777Y601860D01*
X704763Y601854D01*
X703677D01*
Y597981D01*
X704661Y598568D01*
X704675Y598575D01*
X704702Y598589D01*
X704743Y598609D01*
X704784Y598623D01*
X704811D01*
X704839Y598616D01*
X704859Y598602D01*
X704866Y598596D01*
X704873Y598582D01*
X704886Y598555D01*
X704893Y598521D01*
Y598507D01*
Y598480D01*
X704900Y598432D01*
Y598370D01*
Y598357D01*
Y598329D01*
Y598295D01*
Y598254D01*
Y598247D01*
X704893Y598227D01*
X704886Y598200D01*
X704880Y598179D01*
Y598172D01*
X704873Y598159D01*
X704845Y598124D01*
X704839Y598118D01*
X704832Y598104D01*
X704791Y598070D01*
X703616Y597319D01*
X703609Y597312D01*
X703582Y597305D01*
X703575D01*
X703561Y597298D01*
X703520Y597284D01*
X703513D01*
X703500Y597277D01*
X703432D01*
X703404Y597271D01*
X703268D01*
X703213Y597277D01*
X703165Y597284D01*
X703152D01*
X703124Y597291D01*
X703090Y597298D01*
X703063Y597305D01*
X703056D01*
X703042Y597312D01*
X703029Y597325D01*
X703015Y597339D01*
X703008Y597353D01*
X703001Y597387D01*
Y601854D01*
X702059D01*
X702045Y601860D01*
X702025Y601874D01*
X702018Y601881D01*
X702011Y601888D01*
X701977Y601929D01*
X701970Y601935D01*
X701963Y601949D01*
X701956Y601983D01*
X701949Y602017D01*
Y602024D01*
X701943Y602052D01*
X701936Y602086D01*
Y602134D01*
Y602147D01*
Y602175D01*
X701943Y602222D01*
X701949Y602263D01*
Y602270D01*
X701956Y602291D01*
X701984Y602345D01*
Y602352D01*
X701997Y602359D01*
X702031Y602386D01*
X702045Y602393D01*
X702079Y602400D01*
X704757D01*
X704798Y602386D01*
D02*
G37*
G36*
X635497Y629068D02*
X635572D01*
X635661Y629055D01*
X635757Y629041D01*
X635853Y629027D01*
X635948Y629000D01*
X635962Y628993D01*
X635989Y628986D01*
X636037Y628966D01*
X636092Y628938D01*
X636160Y628911D01*
X636235Y628870D01*
X636378Y628775D01*
X636385Y628768D01*
X636406Y628747D01*
X636440Y628720D01*
X636481Y628679D01*
X636529Y628624D01*
X636577Y628563D01*
X636631Y628495D01*
X636679Y628419D01*
X636686Y628413D01*
X636699Y628378D01*
X636720Y628337D01*
X636747Y628276D01*
X636775Y628208D01*
X636809Y628126D01*
X636843Y628037D01*
X636870Y627935D01*
Y627921D01*
X636884Y627887D01*
X636891Y627832D01*
X636911Y627757D01*
X636925Y627668D01*
X636945Y627566D01*
X636959Y627456D01*
X636973Y627340D01*
Y627333D01*
Y627327D01*
X636979Y627286D01*
Y627217D01*
X636986Y627135D01*
X636993Y627026D01*
Y626910D01*
X637000Y626780D01*
Y626644D01*
Y626637D01*
Y626630D01*
Y626589D01*
Y626528D01*
X636993Y626439D01*
Y626343D01*
X636986Y626234D01*
X636979Y626111D01*
X636966Y625988D01*
Y625981D01*
Y625974D01*
X636959Y625933D01*
X636952Y625865D01*
X636938Y625783D01*
X636918Y625681D01*
X636898Y625578D01*
X636843Y625346D01*
Y625339D01*
X636836Y625332D01*
X636829Y625291D01*
X636809Y625230D01*
X636781Y625155D01*
X636740Y625066D01*
X636699Y624964D01*
X636652Y624861D01*
X636597Y624759D01*
X636590Y624745D01*
X636570Y624711D01*
X636536Y624656D01*
X636488Y624595D01*
X636433Y624519D01*
X636365Y624438D01*
X636290Y624356D01*
X636208Y624281D01*
X636194Y624274D01*
X636167Y624246D01*
X636112Y624212D01*
X636051Y624164D01*
X635969Y624110D01*
X635873Y624055D01*
X635764Y624007D01*
X635648Y623959D01*
X635641D01*
X635634Y623953D01*
X635613Y623946D01*
X635586Y623939D01*
X635518Y623918D01*
X635429Y623898D01*
X635320Y623877D01*
X635183Y623857D01*
X635040Y623843D01*
X634883Y623837D01*
X634794D01*
X634746Y623843D01*
X634698D01*
X634589Y623857D01*
X634562D01*
X634534Y623864D01*
X634500Y623871D01*
X634411Y623884D01*
X634316Y623905D01*
X634309D01*
X634295Y623912D01*
X634268Y623918D01*
X634241Y623925D01*
X634172Y623946D01*
X634104Y623973D01*
X634097D01*
X634090Y623980D01*
X634056Y623994D01*
X634015Y624007D01*
X633988Y624028D01*
X633981D01*
X633974Y624041D01*
X633947Y624076D01*
Y624082D01*
X633940Y624089D01*
X633926Y624130D01*
Y624137D01*
X633920Y624151D01*
Y624171D01*
X633913Y624198D01*
Y624205D01*
X633906Y624219D01*
Y624253D01*
Y624287D01*
Y624301D01*
Y624328D01*
Y624376D01*
X633913Y624417D01*
Y624424D01*
Y624444D01*
X633926Y624499D01*
Y624506D01*
X633933Y624513D01*
X633961Y624540D01*
X633967D01*
X633974Y624547D01*
X633995Y624554D01*
X634029D01*
X634049Y624547D01*
X634090Y624540D01*
X634138Y624526D01*
X634152Y624519D01*
X634186Y624506D01*
X634247Y624492D01*
X634323Y624472D01*
X634330D01*
X634343Y624465D01*
X634364Y624458D01*
X634391Y624451D01*
X634432Y624444D01*
X634473Y624431D01*
X634575Y624410D01*
X634582D01*
X634603Y624403D01*
X634637Y624397D01*
X634678Y624390D01*
X634726D01*
X634787Y624383D01*
X634855Y624376D01*
X634992D01*
X635060Y624383D01*
X635149Y624397D01*
X635245Y624410D01*
X635354Y624438D01*
X635463Y624478D01*
X635566Y624526D01*
X635579Y624533D01*
X635607Y624554D01*
X635654Y624588D01*
X635716Y624636D01*
X635784Y624690D01*
X635859Y624759D01*
X635928Y624840D01*
X635996Y624929D01*
X636003Y624943D01*
X636023Y624977D01*
X636051Y625025D01*
X636085Y625100D01*
X636126Y625182D01*
X636167Y625284D01*
X636208Y625394D01*
X636242Y625517D01*
Y625524D01*
Y625530D01*
X636256Y625571D01*
X636269Y625640D01*
X636283Y625728D01*
X636297Y625831D01*
X636310Y625947D01*
X636324Y626070D01*
X636331Y626206D01*
X636324D01*
X636310Y626193D01*
X636290Y626186D01*
X636262Y626165D01*
X636194Y626131D01*
X636105Y626090D01*
X636098D01*
X636085Y626077D01*
X636058Y626070D01*
X636023Y626056D01*
X635982Y626036D01*
X635934Y626015D01*
X635825Y625981D01*
X635818D01*
X635798Y625974D01*
X635764Y625968D01*
X635723Y625954D01*
X635675Y625940D01*
X635620Y625926D01*
X635504Y625906D01*
X635497D01*
X635477Y625899D01*
X635443Y625892D01*
X635395Y625885D01*
X635340D01*
X635279Y625879D01*
X635135Y625872D01*
X635067D01*
X634992Y625879D01*
X634896Y625885D01*
X634787Y625899D01*
X634671Y625920D01*
X634555Y625947D01*
X634446Y625988D01*
X634432Y625995D01*
X634398Y626009D01*
X634343Y626036D01*
X634282Y626070D01*
X634206Y626111D01*
X634131Y626165D01*
X634049Y626227D01*
X633981Y626302D01*
X633974Y626309D01*
X633954Y626336D01*
X633920Y626377D01*
X633885Y626432D01*
X633845Y626507D01*
X633797Y626582D01*
X633763Y626678D01*
X633728Y626773D01*
X633722Y626787D01*
X633715Y626821D01*
X633701Y626876D01*
X633687Y626944D01*
X633674Y627033D01*
X633667Y627129D01*
X633653Y627238D01*
Y627354D01*
Y627361D01*
Y627368D01*
Y627409D01*
X633660Y627477D01*
X633667Y627559D01*
X633681Y627661D01*
X633694Y627771D01*
X633722Y627887D01*
X633756Y628003D01*
X633763Y628017D01*
X633776Y628057D01*
X633797Y628112D01*
X633831Y628187D01*
X633879Y628276D01*
X633933Y628372D01*
X634002Y628460D01*
X634077Y628556D01*
X634084Y628563D01*
X634118Y628597D01*
X634159Y628638D01*
X634220Y628693D01*
X634302Y628747D01*
X634391Y628816D01*
X634500Y628877D01*
X634616Y628932D01*
X634623D01*
X634630Y628938D01*
X634651Y628945D01*
X634671Y628952D01*
X634739Y628979D01*
X634835Y629000D01*
X634944Y629027D01*
X635074Y629055D01*
X635224Y629068D01*
X635388Y629075D01*
X635443D01*
X635497Y629068D01*
D02*
G37*
G36*
X686722Y103788D02*
X686790Y103781D01*
X686858Y103754D01*
X686872Y103747D01*
X686892Y103726D01*
X686913Y103692D01*
X686927Y103645D01*
Y103071D01*
X687999D01*
X688006D01*
X688013D01*
X688033Y103064D01*
X688054Y103050D01*
X688067Y103037D01*
X688074Y103023D01*
X688088Y102996D01*
Y102989D01*
X688095Y102968D01*
Y102934D01*
X688101Y102886D01*
Y102873D01*
X688108Y102845D01*
X688115Y102791D01*
Y102668D01*
X688108Y102613D01*
X688101Y102559D01*
Y102552D01*
X688095Y102524D01*
Y102490D01*
X688088Y102456D01*
Y102449D01*
X688081Y102436D01*
X688067Y102422D01*
X688054Y102408D01*
X688047D01*
X688033Y102401D01*
X687999Y102395D01*
X686927D01*
Y100284D01*
X686920Y100230D01*
Y100223D01*
X686906Y100216D01*
X686879Y100175D01*
X686872Y100168D01*
X686851Y100161D01*
X686824Y100147D01*
X686783Y100141D01*
X686769D01*
X686742D01*
X686694Y100134D01*
X686633D01*
X686626D01*
X686619D01*
X686585D01*
X686544D01*
X686496D01*
X686483D01*
X686462Y100141D01*
X686421D01*
X686387Y100147D01*
X686380D01*
X686360Y100154D01*
X686332Y100168D01*
X686298Y100182D01*
X686291Y100189D01*
X686264Y100195D01*
X686237Y100209D01*
X686196Y100230D01*
X683102Y102039D01*
X683095Y102046D01*
X683088Y102053D01*
X683054Y102094D01*
X683047Y102101D01*
X683040Y102121D01*
X683027Y102155D01*
X683013Y102197D01*
X683006Y102210D01*
X682999Y102237D01*
X682993Y102285D01*
X682986Y102347D01*
Y102381D01*
X682979Y102408D01*
Y102634D01*
X682986Y102709D01*
X682993Y102784D01*
Y102804D01*
X682999Y102845D01*
X683006Y102893D01*
X683020Y102941D01*
Y102955D01*
X683027Y102975D01*
X683040Y103009D01*
X683061Y103037D01*
X683068Y103043D01*
X683074Y103057D01*
X683095Y103064D01*
X683122Y103071D01*
X686367D01*
Y103658D01*
X686373Y103679D01*
X686401Y103713D01*
X686414Y103733D01*
X686442Y103747D01*
X686455Y103754D01*
X686489Y103774D01*
X686558Y103788D01*
X686647Y103795D01*
X686653D01*
X686667D01*
X686694D01*
X686722Y103788D01*
D02*
G37*
G36*
X687917Y60591D02*
X687958Y60584D01*
X687965D01*
X687985Y60578D01*
X688040Y60550D01*
X688047D01*
X688054Y60537D01*
X688081Y60502D01*
X688088Y60489D01*
X688095Y60455D01*
Y57777D01*
X688081Y57736D01*
X688067Y57723D01*
X688040Y57695D01*
X688033D01*
X688019Y57682D01*
X687992Y57675D01*
X687958Y57661D01*
X687951D01*
X687924D01*
X687883Y57654D01*
X687828D01*
X687815D01*
X687787D01*
X687753D01*
X687712Y57661D01*
X687705D01*
X687678Y57668D01*
X687650Y57682D01*
X687623Y57688D01*
X687616Y57695D01*
X687603Y57702D01*
X687569Y57736D01*
X687562Y57743D01*
X687555Y57757D01*
X687548Y57771D01*
Y58856D01*
X683675D01*
X684263Y57873D01*
X684270Y57859D01*
X684283Y57832D01*
X684304Y57791D01*
X684317Y57750D01*
Y57723D01*
X684311Y57695D01*
X684297Y57675D01*
X684290Y57668D01*
X684276Y57661D01*
X684249Y57648D01*
X684215Y57641D01*
X684201D01*
X684174D01*
X684126Y57634D01*
X684065D01*
X684051D01*
X684024D01*
X683990D01*
X683949D01*
X683942D01*
X683921Y57641D01*
X683894Y57648D01*
X683874Y57654D01*
X683867D01*
X683853Y57661D01*
X683819Y57688D01*
X683812Y57695D01*
X683798Y57702D01*
X683764Y57743D01*
X683013Y58918D01*
X683006Y58925D01*
X682999Y58952D01*
Y58959D01*
X682993Y58973D01*
X682979Y59013D01*
Y59020D01*
X682972Y59034D01*
Y59102D01*
X682965Y59130D01*
Y59266D01*
X682972Y59321D01*
X682979Y59369D01*
Y59382D01*
X682986Y59410D01*
X682993Y59444D01*
X682999Y59471D01*
Y59478D01*
X683006Y59492D01*
X683020Y59505D01*
X683034Y59519D01*
X683047Y59526D01*
X683081Y59533D01*
X687548D01*
Y60475D01*
X687555Y60489D01*
X687569Y60509D01*
X687575Y60516D01*
X687582Y60523D01*
X687623Y60557D01*
X687630Y60564D01*
X687644Y60571D01*
X687678Y60578D01*
X687712Y60584D01*
X687719D01*
X687746Y60591D01*
X687780Y60598D01*
X687828D01*
X687842D01*
X687869D01*
X687917Y60591D01*
D02*
G37*
G36*
X50010Y124992D02*
X50043Y124984D01*
X50068Y124975D01*
X50076D01*
X50092Y124967D01*
X50133Y124934D01*
X50141Y124926D01*
X50158Y124918D01*
X50199Y124869D01*
X51101Y123458D01*
X51109Y123450D01*
X51117Y123417D01*
Y123409D01*
X51125Y123393D01*
X51142Y123344D01*
Y123335D01*
X51150Y123319D01*
Y123237D01*
X51158Y123204D01*
Y123040D01*
X51150Y122975D01*
X51142Y122917D01*
Y122901D01*
X51134Y122868D01*
X51125Y122827D01*
X51117Y122794D01*
Y122786D01*
X51109Y122770D01*
X51093Y122753D01*
X51076Y122737D01*
X51060Y122729D01*
X51019Y122720D01*
X45656D01*
Y121589D01*
X45648Y121572D01*
X45631Y121548D01*
X45623Y121540D01*
X45615Y121531D01*
X45566Y121490D01*
X45558Y121482D01*
X45541Y121474D01*
X45500Y121466D01*
X45459Y121458D01*
X45451D01*
X45418Y121449D01*
X45377Y121441D01*
X45320D01*
X45303D01*
X45271D01*
X45213Y121449D01*
X45164Y121458D01*
X45156D01*
X45131Y121466D01*
X45066Y121499D01*
X45057D01*
X45049Y121515D01*
X45016Y121556D01*
X45008Y121572D01*
X45000Y121613D01*
Y124828D01*
X45016Y124877D01*
X45033Y124893D01*
X45066Y124926D01*
X45074D01*
X45090Y124943D01*
X45123Y124951D01*
X45164Y124967D01*
X45172D01*
X45205D01*
X45254Y124975D01*
X45320D01*
X45336D01*
X45369D01*
X45410D01*
X45459Y124967D01*
X45467D01*
X45500Y124959D01*
X45533Y124943D01*
X45566Y124934D01*
X45574Y124926D01*
X45590Y124918D01*
X45631Y124877D01*
X45640Y124869D01*
X45648Y124852D01*
X45656Y124836D01*
Y123532D01*
X50305D01*
X49600Y124713D01*
X49592Y124729D01*
X49576Y124762D01*
X49551Y124811D01*
X49535Y124861D01*
Y124893D01*
X49543Y124926D01*
X49559Y124951D01*
X49567Y124959D01*
X49584Y124967D01*
X49617Y124984D01*
X49658Y124992D01*
X49674D01*
X49707D01*
X49764Y125000D01*
X49838D01*
X49854D01*
X49887D01*
X49928D01*
X49977D01*
X49986D01*
X50010Y124992D01*
D02*
G37*
G36*
X44960Y50992D02*
X45009D01*
X45050Y50984D01*
X45058D01*
X45083Y50975D01*
X45116Y50959D01*
X45157Y50943D01*
X45165Y50934D01*
X45198Y50926D01*
X45230Y50910D01*
X45280Y50885D01*
X48994Y48712D01*
X49002Y48704D01*
X49011Y48696D01*
X49052Y48647D01*
X49060Y48638D01*
X49068Y48614D01*
X49084Y48573D01*
X49101Y48524D01*
X49109Y48507D01*
X49117Y48474D01*
X49125Y48417D01*
X49134Y48343D01*
Y48302D01*
X49142Y48269D01*
Y47999D01*
X49134Y47909D01*
X49125Y47818D01*
Y47794D01*
X49117Y47745D01*
X49109Y47687D01*
X49093Y47630D01*
Y47613D01*
X49084Y47589D01*
X49068Y47548D01*
X49043Y47515D01*
X49035Y47507D01*
X49027Y47490D01*
X49002Y47482D01*
X48970Y47474D01*
X45075D01*
Y46769D01*
X45066Y46744D01*
X45034Y46703D01*
X45017Y46679D01*
X44984Y46662D01*
X44968Y46654D01*
X44927Y46629D01*
X44845Y46613D01*
X44738Y46605D01*
X44730D01*
X44714D01*
X44681D01*
X44648Y46613D01*
X44566Y46621D01*
X44484Y46654D01*
X44468Y46662D01*
X44443Y46687D01*
X44419Y46728D01*
X44402Y46785D01*
Y47474D01*
X43115D01*
X43107D01*
X43098D01*
X43074Y47482D01*
X43049Y47499D01*
X43033Y47515D01*
X43025Y47531D01*
X43008Y47564D01*
Y47572D01*
X43000Y47597D01*
Y47638D01*
X42992Y47695D01*
Y47712D01*
X42984Y47745D01*
X42975Y47810D01*
Y47958D01*
X42984Y48023D01*
X42992Y48089D01*
Y48097D01*
X43000Y48130D01*
Y48171D01*
X43008Y48212D01*
Y48220D01*
X43016Y48237D01*
X43033Y48253D01*
X43049Y48269D01*
X43057D01*
X43074Y48278D01*
X43115Y48286D01*
X44402D01*
Y50820D01*
X44410Y50885D01*
Y50893D01*
X44427Y50902D01*
X44460Y50951D01*
X44468Y50959D01*
X44492Y50967D01*
X44525Y50984D01*
X44574Y50992D01*
X44591D01*
X44624D01*
X44681Y51000D01*
X44755D01*
X44763D01*
X44771D01*
X44812D01*
X44861D01*
X44919D01*
X44935D01*
X44960Y50992D01*
D02*
G37*
G36*
X43812Y161992D02*
X43845Y161984D01*
X43877Y161975D01*
X43886Y161967D01*
X43902Y161959D01*
X43918Y161943D01*
X43935Y161926D01*
X43943Y161918D01*
X43951Y161910D01*
X43959Y161893D01*
Y161861D01*
X43951Y161828D01*
X43935Y161787D01*
X43894Y161721D01*
Y161713D01*
X43886Y161705D01*
X43869Y161680D01*
X43853Y161647D01*
X43812Y161565D01*
X43763Y161459D01*
Y161451D01*
X43754Y161426D01*
X43738Y161393D01*
X43722Y161344D01*
X43705Y161278D01*
X43681Y161213D01*
X43664Y161131D01*
X43640Y161041D01*
Y161032D01*
X43631Y160991D01*
X43623Y160942D01*
X43615Y160868D01*
X43599Y160786D01*
X43590Y160688D01*
X43582Y160573D01*
Y160393D01*
X43590Y160335D01*
Y160253D01*
X43599Y160163D01*
X43615Y160073D01*
X43656Y159868D01*
Y159860D01*
X43672Y159827D01*
X43689Y159778D01*
X43713Y159712D01*
X43746Y159638D01*
X43787Y159565D01*
X43886Y159417D01*
X43894Y159409D01*
X43918Y159384D01*
X43951Y159351D01*
X44000Y159302D01*
X44058Y159253D01*
X44123Y159204D01*
X44205Y159155D01*
X44287Y159114D01*
X44296Y159105D01*
X44328Y159097D01*
X44386Y159081D01*
X44451Y159056D01*
X44542Y159032D01*
X44640Y159015D01*
X44763Y159007D01*
X44886Y158999D01*
X44902D01*
X44935D01*
X44993Y159007D01*
X45058D01*
X45140Y159023D01*
X45230Y159040D01*
X45321Y159064D01*
X45403Y159097D01*
X45411D01*
X45444Y159114D01*
X45485Y159138D01*
X45534Y159163D01*
X45591Y159204D01*
X45649Y159253D01*
X45714Y159319D01*
X45772Y159384D01*
X45780Y159392D01*
X45796Y159417D01*
X45829Y159458D01*
X45862Y159515D01*
X45895Y159581D01*
X45936Y159671D01*
X45968Y159761D01*
X46001Y159868D01*
Y159884D01*
X46009Y159917D01*
X46026Y159983D01*
X46042Y160065D01*
X46050Y160163D01*
X46067Y160286D01*
X46075Y160417D01*
Y160737D01*
X46067Y160811D01*
X46059Y160893D01*
X46042Y161065D01*
Y161098D01*
X46034Y161139D01*
Y161188D01*
X46026Y161246D01*
Y161311D01*
X46018Y161451D01*
Y161475D01*
X46026Y161524D01*
X46042Y161582D01*
X46075Y161639D01*
X46091Y161647D01*
X46132Y161664D01*
X46165Y161672D01*
X46206Y161680D01*
X46255Y161688D01*
X46313D01*
X48806D01*
X48814D01*
X48830D01*
X48863D01*
X48896Y161680D01*
X48970Y161664D01*
X49035Y161623D01*
X49052Y161606D01*
X49076Y161565D01*
X49101Y161500D01*
X49117Y161410D01*
Y158671D01*
X49109Y158654D01*
X49093Y158630D01*
X49084Y158622D01*
X49076Y158605D01*
X49027Y158564D01*
X49019Y158556D01*
X49002Y158548D01*
X48961Y158540D01*
X48920Y158531D01*
X48912D01*
X48879Y158523D01*
X48830Y158515D01*
X48765D01*
X48756D01*
X48740D01*
X48707D01*
X48666Y158523D01*
X48584Y158531D01*
X48502Y158564D01*
X48486Y158572D01*
X48461Y158597D01*
X48428Y158638D01*
X48420Y158663D01*
X48412Y158687D01*
Y160877D01*
X46682D01*
Y160868D01*
X46690Y160852D01*
Y160819D01*
X46698Y160778D01*
X46706Y160672D01*
X46715Y160557D01*
Y160491D01*
X46723Y160442D01*
Y160089D01*
X46715Y159991D01*
X46706Y159868D01*
X46690Y159729D01*
X46665Y159581D01*
X46633Y159433D01*
X46592Y159286D01*
Y159278D01*
X46583Y159269D01*
X46567Y159220D01*
X46542Y159155D01*
X46501Y159064D01*
X46452Y158966D01*
X46395Y158859D01*
X46321Y158753D01*
X46239Y158654D01*
X46231Y158646D01*
X46198Y158613D01*
X46149Y158564D01*
X46083Y158507D01*
X46001Y158449D01*
X45911Y158384D01*
X45796Y158326D01*
X45681Y158269D01*
X45665Y158261D01*
X45624Y158244D01*
X45558Y158228D01*
X45468Y158203D01*
X45362Y158179D01*
X45239Y158154D01*
X45107Y158146D01*
X44960Y158138D01*
X44952D01*
X44935D01*
X44911D01*
X44878D01*
X44788Y158146D01*
X44665Y158162D01*
X44533Y158179D01*
X44386Y158212D01*
X44230Y158253D01*
X44082Y158310D01*
X44066Y158318D01*
X44017Y158343D01*
X43951Y158376D01*
X43861Y158433D01*
X43763Y158499D01*
X43656Y158572D01*
X43549Y158671D01*
X43443Y158777D01*
X43435Y158794D01*
X43402Y158835D01*
X43353Y158892D01*
X43295Y158982D01*
X43230Y159089D01*
X43164Y159212D01*
X43098Y159351D01*
X43041Y159499D01*
Y159507D01*
X43033Y159515D01*
Y159540D01*
X43025Y159573D01*
X43000Y159655D01*
X42975Y159770D01*
X42951Y159909D01*
X42934Y160065D01*
X42918Y160237D01*
X42910Y160426D01*
Y160532D01*
X42918Y160598D01*
Y160680D01*
X42926Y160778D01*
X42951Y160967D01*
Y160975D01*
X42959Y161008D01*
X42967Y161057D01*
X42975Y161114D01*
X42992Y161188D01*
X43008Y161262D01*
X43049Y161418D01*
Y161426D01*
X43057Y161451D01*
X43074Y161483D01*
X43082Y161533D01*
X43123Y161639D01*
X43164Y161746D01*
Y161754D01*
X43172Y161762D01*
X43197Y161811D01*
X43230Y161869D01*
X43254Y161910D01*
X43262Y161918D01*
X43271Y161926D01*
X43312Y161959D01*
X43320D01*
X43336Y161967D01*
X43377Y161984D01*
X43385D01*
X43402Y161992D01*
X43435D01*
X43476Y162000D01*
X43484D01*
X43517D01*
X43566D01*
X43631D01*
X43648D01*
X43681D01*
X43722D01*
X43771D01*
X43779D01*
X43812Y161992D01*
D02*
G37*
G36*
X50010Y252992D02*
X50043Y252984D01*
X50068Y252975D01*
X50076D01*
X50092Y252967D01*
X50133Y252934D01*
X50141Y252926D01*
X50158Y252918D01*
X50199Y252869D01*
X51101Y251458D01*
X51109Y251450D01*
X51117Y251417D01*
Y251409D01*
X51125Y251393D01*
X51142Y251344D01*
Y251335D01*
X51150Y251319D01*
Y251237D01*
X51158Y251204D01*
Y251040D01*
X51150Y250975D01*
X51142Y250917D01*
Y250901D01*
X51134Y250868D01*
X51125Y250827D01*
X51117Y250794D01*
Y250786D01*
X51109Y250770D01*
X51093Y250753D01*
X51076Y250737D01*
X51060Y250729D01*
X51019Y250720D01*
X45656D01*
Y249589D01*
X45648Y249572D01*
X45631Y249548D01*
X45623Y249540D01*
X45615Y249531D01*
X45566Y249490D01*
X45558Y249482D01*
X45541Y249474D01*
X45500Y249466D01*
X45459Y249458D01*
X45451D01*
X45418Y249449D01*
X45377Y249441D01*
X45320D01*
X45303D01*
X45271D01*
X45213Y249449D01*
X45164Y249458D01*
X45156D01*
X45131Y249466D01*
X45066Y249499D01*
X45057D01*
X45049Y249515D01*
X45016Y249556D01*
X45008Y249572D01*
X45000Y249613D01*
Y252828D01*
X45016Y252877D01*
X45033Y252893D01*
X45066Y252926D01*
X45074D01*
X45090Y252943D01*
X45123Y252951D01*
X45164Y252967D01*
X45172D01*
X45205D01*
X45254Y252975D01*
X45320D01*
X45336D01*
X45369D01*
X45410D01*
X45459Y252967D01*
X45467D01*
X45500Y252959D01*
X45533Y252943D01*
X45566Y252934D01*
X45574Y252926D01*
X45590Y252918D01*
X45631Y252877D01*
X45640Y252869D01*
X45648Y252852D01*
X45656Y252836D01*
Y251532D01*
X50305D01*
X49600Y252713D01*
X49592Y252729D01*
X49576Y252762D01*
X49551Y252811D01*
X49535Y252861D01*
Y252893D01*
X49543Y252926D01*
X49559Y252951D01*
X49567Y252959D01*
X49584Y252967D01*
X49617Y252984D01*
X49658Y252992D01*
X49674D01*
X49707D01*
X49764Y253000D01*
X49838D01*
X49854D01*
X49887D01*
X49928D01*
X49977D01*
X49986D01*
X50010Y252992D01*
D02*
G37*
G36*
X46352Y394992D02*
X46385Y394984D01*
X46410Y394975D01*
X46418D01*
X46434Y394967D01*
X46475Y394934D01*
X46483Y394926D01*
X46500Y394918D01*
X46541Y394869D01*
X47443Y393458D01*
X47451Y393450D01*
X47459Y393417D01*
Y393409D01*
X47467Y393393D01*
X47484Y393344D01*
Y393335D01*
X47492Y393319D01*
Y393237D01*
X47500Y393204D01*
Y393040D01*
X47492Y392975D01*
X47484Y392917D01*
Y392901D01*
X47476Y392868D01*
X47467Y392827D01*
X47459Y392794D01*
Y392786D01*
X47451Y392770D01*
X47435Y392753D01*
X47418Y392737D01*
X47402Y392729D01*
X47361Y392720D01*
X41998D01*
Y391589D01*
X41990Y391572D01*
X41973Y391548D01*
X41965Y391540D01*
X41957Y391531D01*
X41908Y391490D01*
X41900Y391482D01*
X41883Y391474D01*
X41842Y391466D01*
X41801Y391458D01*
X41793D01*
X41760Y391449D01*
X41719Y391441D01*
X41662D01*
X41645D01*
X41613D01*
X41555Y391449D01*
X41506Y391458D01*
X41498D01*
X41473Y391466D01*
X41408Y391499D01*
X41399D01*
X41391Y391515D01*
X41358Y391556D01*
X41350Y391572D01*
X41342Y391613D01*
Y394828D01*
X41358Y394877D01*
X41375Y394893D01*
X41408Y394926D01*
X41416D01*
X41432Y394943D01*
X41465Y394951D01*
X41506Y394967D01*
X41514D01*
X41547D01*
X41596Y394975D01*
X41662D01*
X41678D01*
X41711D01*
X41752D01*
X41801Y394967D01*
X41809D01*
X41842Y394959D01*
X41875Y394943D01*
X41908Y394934D01*
X41916Y394926D01*
X41932Y394918D01*
X41973Y394877D01*
X41982Y394869D01*
X41990Y394852D01*
X41998Y394836D01*
Y393532D01*
X46647D01*
X45942Y394713D01*
X45934Y394729D01*
X45918Y394762D01*
X45893Y394811D01*
X45877Y394861D01*
Y394893D01*
X45885Y394926D01*
X45901Y394951D01*
X45909Y394959D01*
X45926Y394967D01*
X45959Y394984D01*
X46000Y394992D01*
X46016D01*
X46049D01*
X46106Y395000D01*
X46180D01*
X46196D01*
X46229D01*
X46270D01*
X46319D01*
X46328D01*
X46352Y394992D01*
D02*
G37*
G36*
X46075Y289992D02*
X46190D01*
X46321Y289984D01*
X46469Y289975D01*
X46616Y289959D01*
X46624D01*
X46633D01*
X46682Y289951D01*
X46764Y289943D01*
X46862Y289926D01*
X46985Y289902D01*
X47108Y289877D01*
X47387Y289811D01*
X47395D01*
X47403Y289803D01*
X47453Y289795D01*
X47526Y289770D01*
X47617Y289738D01*
X47723Y289688D01*
X47846Y289639D01*
X47969Y289582D01*
X48092Y289516D01*
X48109Y289508D01*
X48150Y289483D01*
X48215Y289442D01*
X48289Y289385D01*
X48379Y289319D01*
X48478Y289237D01*
X48576Y289147D01*
X48666Y289049D01*
X48674Y289032D01*
X48707Y289000D01*
X48748Y288934D01*
X48806Y288860D01*
X48871Y288762D01*
X48937Y288647D01*
X48994Y288516D01*
X49052Y288376D01*
Y288368D01*
X49060Y288360D01*
X49068Y288335D01*
X49076Y288303D01*
X49101Y288221D01*
X49125Y288114D01*
X49150Y287983D01*
X49175Y287819D01*
X49191Y287647D01*
X49199Y287458D01*
Y287351D01*
X49191Y287294D01*
Y287237D01*
X49175Y287105D01*
Y287073D01*
X49166Y287040D01*
X49158Y286999D01*
X49142Y286892D01*
X49117Y286777D01*
Y286769D01*
X49109Y286753D01*
X49101Y286720D01*
X49093Y286687D01*
X49068Y286605D01*
X49035Y286523D01*
Y286515D01*
X49027Y286507D01*
X49011Y286466D01*
X48994Y286417D01*
X48970Y286384D01*
Y286376D01*
X48953Y286367D01*
X48912Y286335D01*
X48904D01*
X48896Y286326D01*
X48847Y286310D01*
X48838D01*
X48822Y286302D01*
X48797D01*
X48765Y286294D01*
X48756D01*
X48740Y286285D01*
X48699D01*
X48658D01*
X48642D01*
X48609D01*
X48551D01*
X48502Y286294D01*
X48494D01*
X48469D01*
X48404Y286310D01*
X48396D01*
X48387Y286318D01*
X48355Y286351D01*
Y286359D01*
X48346Y286367D01*
X48338Y286392D01*
Y286433D01*
X48346Y286458D01*
X48355Y286507D01*
X48371Y286564D01*
X48379Y286581D01*
X48396Y286622D01*
X48412Y286695D01*
X48437Y286786D01*
Y286794D01*
X48445Y286810D01*
X48453Y286835D01*
X48461Y286868D01*
X48469Y286917D01*
X48486Y286966D01*
X48510Y287089D01*
Y287097D01*
X48519Y287122D01*
X48527Y287163D01*
X48535Y287212D01*
Y287269D01*
X48543Y287343D01*
X48551Y287425D01*
Y287589D01*
X48543Y287671D01*
X48527Y287778D01*
X48510Y287893D01*
X48478Y288024D01*
X48428Y288155D01*
X48371Y288278D01*
X48363Y288294D01*
X48338Y288327D01*
X48297Y288385D01*
X48240Y288458D01*
X48174Y288540D01*
X48092Y288631D01*
X47994Y288713D01*
X47887Y288795D01*
X47871Y288803D01*
X47830Y288827D01*
X47772Y288860D01*
X47682Y288901D01*
X47584Y288950D01*
X47461Y289000D01*
X47330Y289049D01*
X47182Y289090D01*
X47174D01*
X47166D01*
X47116Y289106D01*
X47034Y289123D01*
X46928Y289139D01*
X46805Y289155D01*
X46665Y289172D01*
X46518Y289188D01*
X46354Y289196D01*
Y289188D01*
X46370Y289172D01*
X46378Y289147D01*
X46403Y289114D01*
X46444Y289032D01*
X46493Y288926D01*
Y288918D01*
X46510Y288901D01*
X46518Y288868D01*
X46534Y288827D01*
X46559Y288778D01*
X46583Y288721D01*
X46624Y288590D01*
Y288581D01*
X46633Y288557D01*
X46641Y288516D01*
X46657Y288467D01*
X46674Y288409D01*
X46690Y288344D01*
X46715Y288204D01*
Y288196D01*
X46723Y288171D01*
X46731Y288130D01*
X46739Y288073D01*
Y288007D01*
X46747Y287934D01*
X46756Y287761D01*
Y287679D01*
X46747Y287589D01*
X46739Y287474D01*
X46723Y287343D01*
X46698Y287204D01*
X46665Y287064D01*
X46616Y286933D01*
X46608Y286917D01*
X46592Y286876D01*
X46559Y286810D01*
X46518Y286736D01*
X46469Y286646D01*
X46403Y286556D01*
X46329Y286458D01*
X46239Y286376D01*
X46231Y286367D01*
X46198Y286343D01*
X46149Y286302D01*
X46083Y286261D01*
X45993Y286212D01*
X45903Y286154D01*
X45788Y286113D01*
X45673Y286072D01*
X45657Y286064D01*
X45616Y286056D01*
X45550Y286039D01*
X45468Y286023D01*
X45362Y286007D01*
X45247Y285998D01*
X45116Y285982D01*
X44976D01*
X44968D01*
X44960D01*
X44911D01*
X44829Y285990D01*
X44730Y285998D01*
X44607Y286015D01*
X44476Y286031D01*
X44337Y286064D01*
X44197Y286105D01*
X44181Y286113D01*
X44132Y286130D01*
X44066Y286154D01*
X43976Y286195D01*
X43869Y286253D01*
X43754Y286318D01*
X43648Y286400D01*
X43533Y286490D01*
X43525Y286499D01*
X43484Y286540D01*
X43435Y286589D01*
X43369Y286663D01*
X43303Y286761D01*
X43221Y286868D01*
X43148Y286999D01*
X43082Y287138D01*
Y287146D01*
X43074Y287155D01*
X43066Y287179D01*
X43057Y287204D01*
X43025Y287286D01*
X43000Y287401D01*
X42967Y287532D01*
X42934Y287688D01*
X42918Y287868D01*
X42910Y288065D01*
Y288130D01*
X42918Y288196D01*
Y288286D01*
X42934Y288393D01*
X42951Y288508D01*
X42967Y288622D01*
X43000Y288737D01*
X43008Y288754D01*
X43016Y288786D01*
X43041Y288844D01*
X43074Y288909D01*
X43107Y288991D01*
X43156Y289082D01*
X43271Y289254D01*
X43279Y289262D01*
X43303Y289287D01*
X43336Y289328D01*
X43385Y289377D01*
X43451Y289434D01*
X43525Y289492D01*
X43607Y289557D01*
X43697Y289615D01*
X43705Y289623D01*
X43746Y289639D01*
X43795Y289664D01*
X43869Y289697D01*
X43951Y289729D01*
X44050Y289770D01*
X44156Y289811D01*
X44279Y289844D01*
X44296D01*
X44337Y289861D01*
X44402Y289869D01*
X44492Y289893D01*
X44599Y289910D01*
X44722Y289934D01*
X44853Y289951D01*
X44993Y289967D01*
X45001D01*
X45009D01*
X45058Y289975D01*
X45140D01*
X45239Y289984D01*
X45370Y289992D01*
X45509D01*
X45665Y290000D01*
X45829D01*
X45837D01*
X45845D01*
X45895D01*
X45968D01*
X46075Y289992D01*
D02*
G37*
G36*
X206898Y614986D02*
X206911Y614973D01*
X206939Y614945D01*
Y614938D01*
X206952Y614925D01*
X206959Y614897D01*
X206973Y614863D01*
Y614857D01*
Y614829D01*
X206979Y614788D01*
Y614734D01*
Y614720D01*
Y614693D01*
Y614658D01*
X206973Y614617D01*
Y614611D01*
X206966Y614583D01*
X206952Y614556D01*
X206945Y614529D01*
X206939Y614522D01*
X206932Y614508D01*
X206898Y614474D01*
X206891Y614467D01*
X206877Y614460D01*
X206863Y614454D01*
X205777D01*
Y610581D01*
X206761Y611168D01*
X206775Y611175D01*
X206802Y611189D01*
X206843Y611209D01*
X206884Y611223D01*
X206911D01*
X206939Y611216D01*
X206959Y611202D01*
X206966Y611196D01*
X206973Y611182D01*
X206986Y611155D01*
X206993Y611121D01*
Y611107D01*
Y611080D01*
X207000Y611032D01*
Y610970D01*
Y610957D01*
Y610929D01*
Y610895D01*
Y610854D01*
Y610847D01*
X206993Y610827D01*
X206986Y610800D01*
X206979Y610779D01*
Y610772D01*
X206973Y610759D01*
X206945Y610724D01*
X206939Y610718D01*
X206932Y610704D01*
X206891Y610670D01*
X205716Y609918D01*
X205709Y609912D01*
X205682Y609905D01*
X205675D01*
X205661Y609898D01*
X205620Y609884D01*
X205613D01*
X205600Y609877D01*
X205532D01*
X205504Y609871D01*
X205368D01*
X205313Y609877D01*
X205265Y609884D01*
X205252D01*
X205224Y609891D01*
X205190Y609898D01*
X205163Y609905D01*
X205156D01*
X205142Y609912D01*
X205129Y609925D01*
X205115Y609939D01*
X205108Y609953D01*
X205101Y609987D01*
Y614454D01*
X204159D01*
X204145Y614460D01*
X204125Y614474D01*
X204118Y614481D01*
X204111Y614488D01*
X204077Y614529D01*
X204070Y614536D01*
X204063Y614549D01*
X204056Y614583D01*
X204049Y614617D01*
Y614624D01*
X204043Y614652D01*
X204036Y614686D01*
Y614734D01*
Y614747D01*
Y614775D01*
X204043Y614822D01*
X204049Y614863D01*
Y614870D01*
X204056Y614891D01*
X204084Y614945D01*
Y614952D01*
X204097Y614959D01*
X204131Y614986D01*
X204145Y614993D01*
X204179Y615000D01*
X206857D01*
X206898Y614986D01*
D02*
G37*
G36*
X130757Y615068D02*
X130832D01*
X130914Y615055D01*
X131085Y615034D01*
X131092D01*
X131119Y615027D01*
X131160Y615021D01*
X131215Y615007D01*
X131276Y614993D01*
X131344Y614980D01*
X131481Y614938D01*
X131488D01*
X131508Y614932D01*
X131542Y614918D01*
X131583Y614904D01*
X131672Y614863D01*
X131768Y614822D01*
X131775D01*
X131788Y614809D01*
X131829Y614788D01*
X131877Y614761D01*
X131898Y614747D01*
X131911Y614734D01*
X131918Y614727D01*
X131925Y614713D01*
X131952Y614679D01*
Y614672D01*
X131959Y614658D01*
X131966Y614638D01*
X131980Y614611D01*
Y614604D01*
X131986Y614583D01*
X131993Y614556D01*
X132000Y614515D01*
Y614501D01*
Y614474D01*
Y614426D01*
Y614372D01*
Y614365D01*
Y614351D01*
Y614324D01*
X131993Y614296D01*
X131986Y614235D01*
X131980Y614201D01*
X131973Y614180D01*
X131966Y614174D01*
X131952Y614146D01*
X131932Y614126D01*
X131898Y614119D01*
X131891D01*
X131863Y614126D01*
X131822Y614146D01*
X131754Y614187D01*
X131747D01*
X131734Y614201D01*
X131713Y614208D01*
X131679Y614228D01*
X131638Y614249D01*
X131590Y614269D01*
X131481Y614324D01*
X131474D01*
X131454Y614337D01*
X131413Y614351D01*
X131365Y614365D01*
X131310Y614385D01*
X131242Y614406D01*
X131167Y614433D01*
X131085Y614454D01*
X131071D01*
X131044Y614460D01*
X130996Y614474D01*
X130935Y614481D01*
X130866Y614495D01*
X130777Y614508D01*
X130689Y614515D01*
X130538D01*
X130491Y614508D01*
X130429D01*
X130354Y614501D01*
X130279Y614488D01*
X130122Y614454D01*
X130115D01*
X130088Y614440D01*
X130047Y614426D01*
X129999Y614406D01*
X129890Y614344D01*
X129780Y614262D01*
X129773Y614256D01*
X129760Y614242D01*
X129732Y614215D01*
X129705Y614180D01*
X129671Y614139D01*
X129637Y614092D01*
X129575Y613975D01*
X129569Y613969D01*
X129562Y613948D01*
X129548Y613914D01*
X129534Y613866D01*
X129521Y613812D01*
X129514Y613750D01*
X129500Y613682D01*
Y613607D01*
Y613600D01*
Y613573D01*
X129507Y613531D01*
X129514Y613477D01*
X129521Y613422D01*
X129534Y613354D01*
X129562Y613293D01*
X129589Y613224D01*
X129596Y613217D01*
X129603Y613197D01*
X129623Y613163D01*
X129657Y613122D01*
X129692Y613074D01*
X129732Y613019D01*
X129787Y612971D01*
X129849Y612924D01*
X129855Y612917D01*
X129876Y612903D01*
X129917Y612876D01*
X129965Y612849D01*
X130026Y612821D01*
X130094Y612787D01*
X130176Y612753D01*
X130265Y612726D01*
X130279D01*
X130306Y612712D01*
X130361Y612705D01*
X130429Y612691D01*
X130511Y612678D01*
X130607Y612671D01*
X130709Y612657D01*
X131344D01*
X131392Y612644D01*
X131399D01*
X131406Y612630D01*
X131440Y612603D01*
Y612596D01*
X131454Y612582D01*
X131460Y612555D01*
X131474Y612521D01*
Y612514D01*
X131481Y612480D01*
X131488Y612439D01*
Y612384D01*
Y612377D01*
Y612370D01*
Y612343D01*
Y612302D01*
X131481Y612261D01*
Y612254D01*
X131474Y612234D01*
X131460Y612207D01*
X131447Y612186D01*
X131440Y612179D01*
X131433Y612172D01*
X131399Y612145D01*
X131392Y612138D01*
X131378Y612131D01*
X131358Y612125D01*
X130846D01*
X130791Y612118D01*
X130730D01*
X130661Y612111D01*
X130579Y612097D01*
X130422Y612063D01*
X130415D01*
X130388Y612049D01*
X130347Y612036D01*
X130299Y612015D01*
X130190Y611954D01*
X130074Y611872D01*
X130067Y611865D01*
X130053Y611851D01*
X130026Y611824D01*
X129992Y611783D01*
X129958Y611742D01*
X129924Y611687D01*
X129855Y611571D01*
X129849Y611564D01*
X129842Y611537D01*
X129828Y611503D01*
X129814Y611455D01*
X129801Y611394D01*
X129787Y611332D01*
X129773Y611257D01*
Y611175D01*
Y611168D01*
Y611148D01*
Y611121D01*
X129780Y611080D01*
X129794Y610984D01*
X129828Y610875D01*
Y610868D01*
X129835Y610847D01*
X129849Y610820D01*
X129862Y610786D01*
X129910Y610704D01*
X129978Y610622D01*
X129985Y610615D01*
X129999Y610602D01*
X130019Y610581D01*
X130047Y610561D01*
X130088Y610533D01*
X130135Y610506D01*
X130245Y610451D01*
X130252D01*
X130272Y610444D01*
X130306Y610431D01*
X130347Y610417D01*
X130402Y610410D01*
X130463Y610397D01*
X130532Y610390D01*
X130648D01*
X130689Y610397D01*
X130743D01*
X130812Y610410D01*
X130880Y610424D01*
X130955Y610438D01*
X131030Y610465D01*
X131037D01*
X131064Y610478D01*
X131098Y610492D01*
X131139Y610506D01*
X131194Y610526D01*
X131249Y610554D01*
X131365Y610608D01*
X131372D01*
X131392Y610622D01*
X131420Y610636D01*
X131454Y610656D01*
X131536Y610697D01*
X131617Y610752D01*
X131624D01*
X131631Y610765D01*
X131672Y610786D01*
X131713Y610806D01*
X131747Y610820D01*
X131761D01*
X131802Y610813D01*
X131816Y610806D01*
X131822Y610793D01*
X131836Y610779D01*
Y610772D01*
X131843Y610752D01*
X131850Y610724D01*
X131857Y610690D01*
Y610683D01*
Y610649D01*
Y610608D01*
Y610554D01*
Y610540D01*
Y610520D01*
Y610485D01*
Y610451D01*
Y610444D01*
X131850Y610424D01*
X131843Y610369D01*
Y610362D01*
X131836Y610349D01*
X131816Y610308D01*
X131809Y610301D01*
X131802Y610287D01*
X131761Y610246D01*
X131754Y610240D01*
X131727Y610219D01*
X131679Y610185D01*
X131611Y610137D01*
X131604Y610130D01*
X131590Y610123D01*
X131563Y610110D01*
X131529Y610089D01*
X131488Y610069D01*
X131440Y610041D01*
X131331Y609994D01*
X131324D01*
X131303Y609980D01*
X131262Y609966D01*
X131215Y609953D01*
X131160Y609932D01*
X131092Y609918D01*
X131023Y609898D01*
X130941Y609877D01*
X130935D01*
X130900Y609871D01*
X130859Y609864D01*
X130798Y609850D01*
X130730Y609843D01*
X130655Y609836D01*
X130566Y609830D01*
X130415D01*
X130347Y609836D01*
X130265Y609843D01*
X130170Y609850D01*
X130067Y609871D01*
X129958Y609891D01*
X129855Y609925D01*
X129842Y609932D01*
X129808Y609939D01*
X129760Y609960D01*
X129698Y609994D01*
X129630Y610028D01*
X129555Y610069D01*
X129480Y610123D01*
X129411Y610185D01*
X129405Y610192D01*
X129384Y610212D01*
X129350Y610246D01*
X129309Y610294D01*
X129261Y610356D01*
X129220Y610424D01*
X129172Y610499D01*
X129138Y610581D01*
X129131Y610588D01*
X129125Y610622D01*
X129111Y610670D01*
X129090Y610731D01*
X129077Y610806D01*
X129063Y610888D01*
X129056Y610984D01*
X129049Y611086D01*
Y611100D01*
Y611127D01*
Y611175D01*
X129056Y611230D01*
X129063Y611298D01*
X129077Y611380D01*
X129118Y611537D01*
Y611544D01*
X129131Y611571D01*
X129145Y611612D01*
X129166Y611660D01*
X129193Y611715D01*
X129220Y611776D01*
X129302Y611906D01*
X129309Y611913D01*
X129323Y611933D01*
X129350Y611961D01*
X129384Y611995D01*
X129432Y612043D01*
X129480Y612084D01*
X129603Y612172D01*
X129610Y612179D01*
X129630Y612193D01*
X129671Y612207D01*
X129719Y612234D01*
X129773Y612261D01*
X129842Y612282D01*
X129924Y612309D01*
X130006Y612329D01*
Y612336D01*
X129992D01*
X129965Y612343D01*
X129910Y612350D01*
X129849Y612364D01*
X129773Y612377D01*
X129692Y612405D01*
X129610Y612432D01*
X129527Y612466D01*
X129521Y612473D01*
X129493Y612487D01*
X129452Y612507D01*
X129398Y612534D01*
X129336Y612575D01*
X129275Y612623D01*
X129152Y612732D01*
X129145Y612739D01*
X129125Y612760D01*
X129097Y612794D01*
X129056Y612835D01*
X129015Y612889D01*
X128974Y612951D01*
X128933Y613026D01*
X128899Y613101D01*
X128892Y613108D01*
X128885Y613135D01*
X128872Y613176D01*
X128851Y613231D01*
X128838Y613299D01*
X128824Y613375D01*
X128817Y613456D01*
X128810Y613545D01*
Y613552D01*
Y613559D01*
Y613579D01*
Y613607D01*
X128817Y613675D01*
X128824Y613757D01*
X128838Y613859D01*
X128865Y613962D01*
X128892Y614071D01*
X128933Y614180D01*
X128940Y614194D01*
X128954Y614228D01*
X128981Y614283D01*
X129022Y614344D01*
X129077Y614419D01*
X129131Y614501D01*
X129207Y614583D01*
X129288Y614665D01*
X129295Y614672D01*
X129330Y614700D01*
X129377Y614734D01*
X129446Y614775D01*
X129521Y614829D01*
X129616Y614877D01*
X129726Y614925D01*
X129849Y614973D01*
X129855D01*
X129862Y614980D01*
X129883D01*
X129910Y614986D01*
X129978Y615007D01*
X130067Y615021D01*
X130176Y615041D01*
X130306Y615062D01*
X130450Y615068D01*
X130600Y615075D01*
X130695D01*
X130757Y615068D01*
D02*
G37*
G36*
X401687Y54123D02*
X401735Y54116D01*
X401749D01*
X401776Y54109D01*
X401810Y54102D01*
X401837Y54095D01*
X401844D01*
X401858Y54088D01*
X401871Y54075D01*
X401885Y54061D01*
X401892Y54047D01*
X401899Y54013D01*
Y49546D01*
X402841D01*
X402855Y49540D01*
X402875Y49526D01*
X402882Y49519D01*
X402889Y49512D01*
X402923Y49471D01*
X402930Y49464D01*
X402937Y49451D01*
X402944Y49417D01*
X402951Y49382D01*
Y49376D01*
X402957Y49348D01*
X402964Y49314D01*
Y49266D01*
Y49253D01*
Y49225D01*
X402957Y49178D01*
X402951Y49137D01*
Y49130D01*
X402944Y49109D01*
X402916Y49055D01*
Y49048D01*
X402903Y49041D01*
X402869Y49014D01*
X402855Y49007D01*
X402821Y49000D01*
X400143D01*
X400102Y49014D01*
X400089Y49027D01*
X400062Y49055D01*
Y49062D01*
X400048Y49075D01*
X400041Y49102D01*
X400027Y49137D01*
Y49143D01*
Y49171D01*
X400021Y49212D01*
Y49266D01*
Y49280D01*
Y49307D01*
Y49341D01*
X400027Y49382D01*
Y49389D01*
X400034Y49417D01*
X400048Y49444D01*
X400055Y49471D01*
X400062Y49478D01*
X400068Y49492D01*
X400102Y49526D01*
X400109Y49533D01*
X400123Y49540D01*
X400137Y49546D01*
X401223D01*
Y53419D01*
X400239Y52832D01*
X400225Y52825D01*
X400198Y52811D01*
X400157Y52791D01*
X400116Y52777D01*
X400089D01*
X400062Y52784D01*
X400041Y52798D01*
X400034Y52804D01*
X400027Y52818D01*
X400014Y52845D01*
X400007Y52879D01*
Y52893D01*
Y52920D01*
X400000Y52968D01*
Y53030D01*
Y53043D01*
Y53071D01*
Y53105D01*
Y53146D01*
Y53153D01*
X400007Y53173D01*
X400014Y53201D01*
X400021Y53221D01*
Y53228D01*
X400027Y53241D01*
X400055Y53276D01*
X400062Y53282D01*
X400068Y53296D01*
X400109Y53330D01*
X401284Y54081D01*
X401291Y54088D01*
X401318Y54095D01*
X401325D01*
X401339Y54102D01*
X401380Y54116D01*
X401386D01*
X401400Y54123D01*
X401468D01*
X401496Y54129D01*
X401632D01*
X401687Y54123D01*
D02*
G37*
G36*
X481153Y54128D02*
X481235Y54121D01*
X481330Y54114D01*
X481433Y54094D01*
X481542Y54073D01*
X481645Y54039D01*
X481658Y54032D01*
X481692Y54025D01*
X481740Y54005D01*
X481802Y53971D01*
X481870Y53937D01*
X481945Y53896D01*
X482020Y53841D01*
X482089Y53780D01*
X482095Y53773D01*
X482116Y53752D01*
X482150Y53718D01*
X482191Y53670D01*
X482239Y53609D01*
X482280Y53540D01*
X482328Y53465D01*
X482362Y53383D01*
X482369Y53377D01*
X482375Y53342D01*
X482389Y53295D01*
X482410Y53233D01*
X482423Y53158D01*
X482437Y53076D01*
X482444Y52980D01*
X482451Y52878D01*
Y52864D01*
Y52837D01*
Y52789D01*
X482444Y52735D01*
X482437Y52666D01*
X482423Y52584D01*
X482382Y52427D01*
Y52420D01*
X482369Y52393D01*
X482355Y52352D01*
X482335Y52304D01*
X482307Y52250D01*
X482280Y52188D01*
X482198Y52058D01*
X482191Y52052D01*
X482177Y52031D01*
X482150Y52004D01*
X482116Y51970D01*
X482068Y51922D01*
X482020Y51881D01*
X481897Y51792D01*
X481890Y51785D01*
X481870Y51771D01*
X481829Y51758D01*
X481781Y51731D01*
X481727Y51703D01*
X481658Y51683D01*
X481576Y51655D01*
X481494Y51635D01*
Y51628D01*
X481508D01*
X481535Y51621D01*
X481590Y51614D01*
X481651Y51601D01*
X481727Y51587D01*
X481809Y51560D01*
X481890Y51533D01*
X481973Y51498D01*
X481979Y51491D01*
X482007Y51478D01*
X482048Y51457D01*
X482102Y51430D01*
X482164Y51389D01*
X482225Y51341D01*
X482348Y51232D01*
X482355Y51225D01*
X482375Y51205D01*
X482403Y51170D01*
X482444Y51130D01*
X482485Y51075D01*
X482526Y51013D01*
X482567Y50938D01*
X482601Y50863D01*
X482608Y50856D01*
X482615Y50829D01*
X482628Y50788D01*
X482649Y50733D01*
X482662Y50665D01*
X482676Y50590D01*
X482683Y50508D01*
X482690Y50419D01*
Y50412D01*
Y50406D01*
Y50385D01*
Y50358D01*
X482683Y50289D01*
X482676Y50207D01*
X482662Y50105D01*
X482635Y50002D01*
X482608Y49893D01*
X482567Y49784D01*
X482560Y49770D01*
X482546Y49736D01*
X482519Y49681D01*
X482478Y49620D01*
X482423Y49545D01*
X482369Y49463D01*
X482294Y49381D01*
X482211Y49299D01*
X482205Y49292D01*
X482170Y49265D01*
X482123Y49231D01*
X482054Y49190D01*
X481979Y49135D01*
X481884Y49087D01*
X481774Y49040D01*
X481651Y48992D01*
X481645D01*
X481638Y48985D01*
X481617D01*
X481590Y48978D01*
X481522Y48957D01*
X481433Y48944D01*
X481324Y48923D01*
X481194Y48903D01*
X481050Y48896D01*
X480900Y48889D01*
X480804D01*
X480743Y48896D01*
X480668D01*
X480586Y48910D01*
X480415Y48930D01*
X480408D01*
X480381Y48937D01*
X480340Y48944D01*
X480286Y48957D01*
X480224Y48971D01*
X480156Y48985D01*
X480019Y49026D01*
X480012D01*
X479992Y49033D01*
X479958Y49046D01*
X479917Y49060D01*
X479828Y49101D01*
X479732Y49142D01*
X479725D01*
X479712Y49156D01*
X479671Y49176D01*
X479623Y49203D01*
X479602Y49217D01*
X479589Y49231D01*
X479582Y49238D01*
X479575Y49251D01*
X479548Y49285D01*
Y49292D01*
X479541Y49306D01*
X479534Y49326D01*
X479521Y49354D01*
Y49360D01*
X479514Y49381D01*
X479507Y49408D01*
X479500Y49449D01*
Y49463D01*
Y49490D01*
Y49538D01*
Y49593D01*
Y49600D01*
Y49613D01*
Y49641D01*
X479507Y49668D01*
X479514Y49729D01*
X479521Y49764D01*
X479527Y49784D01*
X479534Y49791D01*
X479548Y49818D01*
X479568Y49839D01*
X479602Y49845D01*
X479609D01*
X479637Y49839D01*
X479678Y49818D01*
X479746Y49777D01*
X479753D01*
X479766Y49764D01*
X479787Y49757D01*
X479821Y49736D01*
X479862Y49716D01*
X479910Y49695D01*
X480019Y49641D01*
X480026D01*
X480046Y49627D01*
X480087Y49613D01*
X480135Y49600D01*
X480190Y49579D01*
X480258Y49559D01*
X480333Y49531D01*
X480415Y49511D01*
X480429D01*
X480456Y49504D01*
X480504Y49490D01*
X480566Y49483D01*
X480634Y49470D01*
X480723Y49456D01*
X480811Y49449D01*
X480962D01*
X481009Y49456D01*
X481071D01*
X481146Y49463D01*
X481221Y49477D01*
X481378Y49511D01*
X481385D01*
X481412Y49524D01*
X481453Y49538D01*
X481501Y49559D01*
X481610Y49620D01*
X481720Y49702D01*
X481727Y49709D01*
X481740Y49722D01*
X481768Y49750D01*
X481795Y49784D01*
X481829Y49825D01*
X481863Y49873D01*
X481925Y49989D01*
X481931Y49996D01*
X481938Y50016D01*
X481952Y50050D01*
X481966Y50098D01*
X481979Y50153D01*
X481986Y50214D01*
X482000Y50283D01*
Y50358D01*
Y50365D01*
Y50392D01*
X481993Y50433D01*
X481986Y50488D01*
X481979Y50542D01*
X481966Y50610D01*
X481938Y50672D01*
X481911Y50740D01*
X481904Y50747D01*
X481897Y50767D01*
X481877Y50802D01*
X481843Y50843D01*
X481809Y50890D01*
X481768Y50945D01*
X481713Y50993D01*
X481651Y51041D01*
X481645Y51047D01*
X481624Y51061D01*
X481583Y51089D01*
X481535Y51116D01*
X481474Y51143D01*
X481406Y51177D01*
X481324Y51212D01*
X481235Y51239D01*
X481221D01*
X481194Y51252D01*
X481139Y51259D01*
X481071Y51273D01*
X480989Y51287D01*
X480893Y51293D01*
X480791Y51307D01*
X480156D01*
X480108Y51321D01*
X480101D01*
X480094Y51334D01*
X480060Y51362D01*
Y51368D01*
X480046Y51382D01*
X480040Y51410D01*
X480026Y51444D01*
Y51451D01*
X480019Y51485D01*
X480012Y51526D01*
Y51580D01*
Y51587D01*
Y51594D01*
Y51621D01*
Y51662D01*
X480019Y51703D01*
Y51710D01*
X480026Y51731D01*
X480040Y51758D01*
X480053Y51778D01*
X480060Y51785D01*
X480067Y51792D01*
X480101Y51819D01*
X480108Y51826D01*
X480122Y51833D01*
X480142Y51840D01*
X480654D01*
X480709Y51847D01*
X480770D01*
X480839Y51854D01*
X480921Y51867D01*
X481078Y51901D01*
X481085D01*
X481112Y51915D01*
X481153Y51929D01*
X481201Y51949D01*
X481310Y52011D01*
X481426Y52092D01*
X481433Y52099D01*
X481447Y52113D01*
X481474Y52140D01*
X481508Y52181D01*
X481542Y52222D01*
X481576Y52277D01*
X481645Y52393D01*
X481651Y52400D01*
X481658Y52427D01*
X481672Y52461D01*
X481686Y52509D01*
X481699Y52571D01*
X481713Y52632D01*
X481727Y52707D01*
Y52789D01*
Y52796D01*
Y52816D01*
Y52844D01*
X481720Y52885D01*
X481706Y52980D01*
X481672Y53090D01*
Y53096D01*
X481665Y53117D01*
X481651Y53144D01*
X481638Y53179D01*
X481590Y53260D01*
X481522Y53342D01*
X481515Y53349D01*
X481501Y53363D01*
X481481Y53383D01*
X481453Y53404D01*
X481412Y53431D01*
X481365Y53458D01*
X481255Y53513D01*
X481249D01*
X481228Y53520D01*
X481194Y53534D01*
X481153Y53547D01*
X481098Y53554D01*
X481037Y53568D01*
X480969Y53575D01*
X480852D01*
X480811Y53568D01*
X480757D01*
X480688Y53554D01*
X480620Y53540D01*
X480545Y53527D01*
X480470Y53500D01*
X480463D01*
X480436Y53486D01*
X480402Y53472D01*
X480361Y53458D01*
X480306Y53438D01*
X480251Y53411D01*
X480135Y53356D01*
X480128D01*
X480108Y53342D01*
X480081Y53329D01*
X480046Y53308D01*
X479964Y53267D01*
X479882Y53213D01*
X479876D01*
X479869Y53199D01*
X479828Y53179D01*
X479787Y53158D01*
X479753Y53144D01*
X479739D01*
X479698Y53151D01*
X479684Y53158D01*
X479678Y53172D01*
X479664Y53185D01*
Y53192D01*
X479657Y53213D01*
X479650Y53240D01*
X479643Y53274D01*
Y53281D01*
Y53315D01*
Y53356D01*
Y53411D01*
Y53424D01*
Y53445D01*
Y53479D01*
Y53513D01*
Y53520D01*
X479650Y53540D01*
X479657Y53595D01*
Y53602D01*
X479664Y53616D01*
X479684Y53657D01*
X479691Y53663D01*
X479698Y53677D01*
X479739Y53718D01*
X479746Y53725D01*
X479773Y53745D01*
X479821Y53780D01*
X479889Y53827D01*
X479896Y53834D01*
X479910Y53841D01*
X479937Y53855D01*
X479971Y53875D01*
X480012Y53896D01*
X480060Y53923D01*
X480169Y53971D01*
X480176D01*
X480197Y53984D01*
X480238Y53998D01*
X480286Y54012D01*
X480340Y54032D01*
X480408Y54046D01*
X480477Y54066D01*
X480559Y54087D01*
X480566D01*
X480600Y54094D01*
X480641Y54101D01*
X480702Y54114D01*
X480770Y54121D01*
X480845Y54128D01*
X480934Y54135D01*
X481085D01*
X481153Y54128D01*
D02*
G37*
G36*
X388602Y686072D02*
X387373D01*
Y687210D01*
X388602D01*
Y686072D01*
D02*
G37*
G36*
X384757Y685545D02*
X384806Y685538D01*
X384924Y685524D01*
X385055Y685503D01*
X385201Y685462D01*
X385347Y685413D01*
X385486Y685344D01*
X385493D01*
X385500Y685337D01*
X385541Y685302D01*
X385604Y685253D01*
X385687Y685191D01*
X385770Y685101D01*
X385860Y684997D01*
X385944Y684872D01*
X386013Y684733D01*
X386020Y684719D01*
X386027Y684698D01*
X386034Y684677D01*
X386041Y684643D01*
X386055Y684601D01*
X386069Y684559D01*
X386083Y684504D01*
X386089Y684434D01*
X386103Y684365D01*
X386117Y684289D01*
X386124Y684198D01*
X386131Y684108D01*
X386138Y684004D01*
X386145Y683886D01*
Y683768D01*
Y680805D01*
X384917D01*
Y683456D01*
Y683463D01*
Y683484D01*
Y683518D01*
Y683567D01*
X384910Y683622D01*
Y683685D01*
X384903Y683831D01*
X384882Y683976D01*
X384861Y684129D01*
X384847Y684192D01*
X384826Y684254D01*
X384806Y684309D01*
X384785Y684351D01*
X384778Y684365D01*
X384750Y684393D01*
X384715Y684434D01*
X384660Y684483D01*
X384583Y684531D01*
X384493Y684573D01*
X384389Y684601D01*
X384264Y684615D01*
X384223D01*
X384174Y684608D01*
X384105Y684594D01*
X384035Y684573D01*
X383952Y684545D01*
X383869Y684511D01*
X383779Y684455D01*
X383771Y684448D01*
X383744Y684427D01*
X383702Y684386D01*
X383653Y684337D01*
X383598Y684275D01*
X383542Y684192D01*
X383494Y684101D01*
X383452Y683990D01*
X383445Y683976D01*
Y683955D01*
X383438Y683935D01*
X383432Y683900D01*
X383424Y683858D01*
X383411Y683817D01*
X383404Y683761D01*
X383397Y683699D01*
X383383Y683622D01*
X383376Y683546D01*
X383369Y683463D01*
X383362Y683366D01*
Y683261D01*
X383355Y683150D01*
Y683033D01*
Y680805D01*
X382127D01*
Y683345D01*
Y683352D01*
Y683373D01*
Y683407D01*
Y683456D01*
Y683511D01*
Y683574D01*
X382120Y683713D01*
X382113Y683858D01*
X382099Y684004D01*
X382092Y684067D01*
X382078Y684129D01*
X382071Y684178D01*
X382057Y684219D01*
Y684226D01*
X382044Y684254D01*
X382030Y684289D01*
X382009Y684330D01*
X381946Y684427D01*
X381905Y684476D01*
X381856Y684518D01*
X381849Y684525D01*
X381828Y684531D01*
X381801Y684545D01*
X381759Y684566D01*
X381703Y684587D01*
X381641Y684601D01*
X381565Y684608D01*
X381481Y684615D01*
X381433D01*
X381377Y684608D01*
X381308Y684594D01*
X381231Y684573D01*
X381148Y684545D01*
X381058Y684511D01*
X380968Y684455D01*
X380961Y684448D01*
X380933Y684427D01*
X380891Y684393D01*
X380843Y684344D01*
X380794Y684282D01*
X380739Y684205D01*
X380690Y684115D01*
X380648Y684011D01*
X380642Y683997D01*
Y683983D01*
X380635Y683955D01*
X380628Y683928D01*
X380621Y683886D01*
X380607Y683838D01*
X380600Y683789D01*
X380593Y683727D01*
X380579Y683657D01*
X380572Y683574D01*
X380565Y683491D01*
X380558Y683393D01*
Y683289D01*
X380551Y683178D01*
Y683060D01*
Y680805D01*
X379323D01*
Y685448D01*
X380454D01*
Y684809D01*
X380461Y684816D01*
X380482Y684844D01*
X380517Y684878D01*
X380565Y684927D01*
X380621Y684983D01*
X380690Y685045D01*
X380773Y685114D01*
X380864Y685184D01*
X380961Y685253D01*
X381072Y685316D01*
X381190Y685378D01*
X381315Y685434D01*
X381454Y685482D01*
X381592Y685517D01*
X381745Y685545D01*
X381898Y685552D01*
X381974D01*
X382009Y685545D01*
X382057D01*
X382161Y685531D01*
X382279Y685503D01*
X382411Y685475D01*
X382543Y685427D01*
X382668Y685364D01*
X382675D01*
X382682Y685357D01*
X382724Y685330D01*
X382786Y685288D01*
X382862Y685226D01*
X382946Y685149D01*
X383036Y685052D01*
X383126Y684941D01*
X383209Y684809D01*
X383216Y684816D01*
X383223Y684823D01*
X383237Y684844D01*
X383265Y684872D01*
X383327Y684934D01*
X383404Y685017D01*
X383508Y685108D01*
X383619Y685205D01*
X383737Y685288D01*
X383869Y685364D01*
X383876D01*
X383883Y685371D01*
X383903Y685385D01*
X383931Y685392D01*
X384000Y685427D01*
X384098Y685462D01*
X384209Y685489D01*
X384341Y685524D01*
X384479Y685545D01*
X384625Y685552D01*
X384708D01*
X384757Y685545D01*
D02*
G37*
G36*
X362806Y685975D02*
X360481D01*
X360287Y684886D01*
X360294D01*
X360307Y684892D01*
X360328Y684906D01*
X360356Y684920D01*
X360398Y684934D01*
X360439Y684955D01*
X360543Y684990D01*
X360675Y685031D01*
X360814Y685059D01*
X360967Y685087D01*
X361126Y685094D01*
X361161D01*
X361203Y685087D01*
X361265D01*
X361334Y685073D01*
X361418Y685059D01*
X361508Y685045D01*
X361605Y685017D01*
X361716Y684990D01*
X361827Y684948D01*
X361938Y684899D01*
X362056Y684844D01*
X362174Y684774D01*
X362292Y684691D01*
X362403Y684601D01*
X362514Y684497D01*
X362521Y684490D01*
X362542Y684469D01*
X362570Y684434D01*
X362604Y684386D01*
X362646Y684330D01*
X362695Y684261D01*
X362750Y684178D01*
X362806Y684081D01*
X362854Y683976D01*
X362910Y683858D01*
X362959Y683727D01*
X363000Y683595D01*
X363035Y683442D01*
X363063Y683289D01*
X363083Y683123D01*
X363090Y682949D01*
Y682942D01*
Y682914D01*
Y682873D01*
X363083Y682817D01*
X363076Y682748D01*
X363063Y682665D01*
X363049Y682575D01*
X363035Y682477D01*
X363007Y682366D01*
X362979Y682255D01*
X362938Y682137D01*
X362896Y682019D01*
X362841Y681894D01*
X362778Y681776D01*
X362709Y681651D01*
X362625Y681533D01*
X362618Y681527D01*
X362598Y681499D01*
X362563Y681457D01*
X362507Y681402D01*
X362445Y681339D01*
X362369Y681263D01*
X362278Y681186D01*
X362174Y681110D01*
X362056Y681034D01*
X361924Y680957D01*
X361786Y680881D01*
X361633Y680819D01*
X361466Y680763D01*
X361286Y680722D01*
X361092Y680694D01*
X360890Y680687D01*
X360807D01*
X360745Y680694D01*
X360668Y680701D01*
X360578Y680715D01*
X360481Y680728D01*
X360377Y680749D01*
X360148Y680805D01*
X360023Y680839D01*
X359905Y680888D01*
X359780Y680944D01*
X359662Y681006D01*
X359551Y681075D01*
X359440Y681159D01*
X359433Y681166D01*
X359419Y681180D01*
X359391Y681207D01*
X359350Y681249D01*
X359308Y681297D01*
X359259Y681353D01*
X359204Y681422D01*
X359148Y681499D01*
X359093Y681589D01*
X359037Y681686D01*
X358982Y681790D01*
X358926Y681901D01*
X358878Y682026D01*
X358836Y682158D01*
X358808Y682297D01*
X358781Y682443D01*
X360002Y682575D01*
Y682568D01*
Y682554D01*
X360009Y682533D01*
X360016Y682505D01*
X360030Y682429D01*
X360057Y682338D01*
X360099Y682228D01*
X360155Y682123D01*
X360224Y682012D01*
X360307Y681915D01*
X360321Y681908D01*
X360356Y681881D01*
X360404Y681839D01*
X360481Y681797D01*
X360564Y681749D01*
X360668Y681714D01*
X360779Y681686D01*
X360904Y681672D01*
X360939D01*
X360967Y681679D01*
X361043Y681686D01*
X361133Y681714D01*
X361237Y681749D01*
X361341Y681804D01*
X361453Y681881D01*
X361508Y681929D01*
X361557Y681985D01*
Y681991D01*
X361571Y681998D01*
X361584Y682019D01*
X361598Y682040D01*
X361619Y682075D01*
X361640Y682116D01*
X361668Y682165D01*
X361695Y682221D01*
X361716Y682283D01*
X361744Y682352D01*
X361765Y682429D01*
X361786Y682512D01*
X361800Y682609D01*
X361813Y682706D01*
X361827Y682817D01*
Y682928D01*
Y682935D01*
Y682956D01*
Y682984D01*
X361820Y683026D01*
Y683074D01*
X361813Y683130D01*
X361792Y683261D01*
X361765Y683407D01*
X361716Y683553D01*
X361647Y683692D01*
X361557Y683817D01*
Y683824D01*
X361543Y683831D01*
X361508Y683865D01*
X361453Y683914D01*
X361369Y683969D01*
X361272Y684018D01*
X361154Y684067D01*
X361022Y684101D01*
X360946Y684115D01*
X360821D01*
X360779Y684108D01*
X360731Y684101D01*
X360682Y684087D01*
X360550Y684060D01*
X360404Y684004D01*
X360321Y683962D01*
X360245Y683921D01*
X360162Y683865D01*
X360078Y683803D01*
X359995Y683733D01*
X359919Y683650D01*
X358926Y683789D01*
X359558Y687127D01*
X362806D01*
Y685975D01*
D02*
G37*
G36*
X391086Y680805D02*
X389858D01*
Y687210D01*
X391086D01*
Y680805D01*
D02*
G37*
G36*
X388602D02*
X387373D01*
Y685448D01*
X388602D01*
Y680805D01*
D02*
G37*
G36*
X357989Y686239D02*
X357982Y686232D01*
X357969Y686218D01*
X357941Y686183D01*
X357899Y686142D01*
X357851Y686093D01*
X357795Y686024D01*
X357733Y685947D01*
X357663Y685864D01*
X357587Y685767D01*
X357504Y685656D01*
X357413Y685531D01*
X357323Y685399D01*
X357226Y685260D01*
X357129Y685108D01*
X357032Y684941D01*
X356928Y684767D01*
X356921Y684754D01*
X356907Y684726D01*
X356879Y684670D01*
X356837Y684601D01*
X356796Y684511D01*
X356747Y684407D01*
X356685Y684289D01*
X356622Y684157D01*
X356560Y684004D01*
X356490Y683851D01*
X356428Y683678D01*
X356359Y683504D01*
X356289Y683317D01*
X356227Y683123D01*
X356109Y682727D01*
Y682713D01*
X356095Y682679D01*
X356081Y682623D01*
X356067Y682547D01*
X356046Y682449D01*
X356018Y682345D01*
X355998Y682221D01*
X355970Y682082D01*
X355942Y681936D01*
X355921Y681783D01*
X355880Y681464D01*
X355845Y681131D01*
X355838Y680805D01*
X354651D01*
Y680812D01*
Y680819D01*
Y680839D01*
Y680867D01*
X354658Y680937D01*
X354665Y681034D01*
X354672Y681152D01*
X354686Y681297D01*
X354707Y681457D01*
X354728Y681638D01*
X354762Y681839D01*
X354797Y682047D01*
X354839Y682269D01*
X354894Y682505D01*
X354950Y682748D01*
X355019Y682998D01*
X355102Y683255D01*
X355193Y683511D01*
Y683518D01*
X355200Y683525D01*
X355206Y683546D01*
X355213Y683574D01*
X355248Y683650D01*
X355290Y683747D01*
X355338Y683865D01*
X355401Y684011D01*
X355477Y684171D01*
X355560Y684344D01*
X355658Y684531D01*
X355762Y684726D01*
X355873Y684934D01*
X355998Y685142D01*
X356130Y685357D01*
X356275Y685572D01*
X356421Y685781D01*
X356581Y685989D01*
X353791D01*
Y687127D01*
X357989D01*
Y686239D01*
D02*
G37*
G36*
X370877Y687224D02*
X370939D01*
X371016Y687210D01*
X371106Y687196D01*
X371210Y687176D01*
X371321Y687148D01*
X371432Y687113D01*
X371550Y687072D01*
X371675Y687016D01*
X371793Y686954D01*
X371911Y686877D01*
X372029Y686787D01*
X372140Y686683D01*
X372244Y686565D01*
X372251Y686558D01*
X372272Y686530D01*
X372300Y686482D01*
X372341Y686412D01*
X372390Y686329D01*
X372445Y686218D01*
X372501Y686093D01*
X372556Y685940D01*
X372612Y685774D01*
X372674Y685579D01*
X372723Y685364D01*
X372772Y685128D01*
X372813Y684872D01*
X372841Y684587D01*
X372862Y684282D01*
X372869Y683955D01*
Y683949D01*
Y683935D01*
Y683907D01*
Y683879D01*
Y683831D01*
X372862Y683782D01*
Y683727D01*
Y683657D01*
X372848Y683511D01*
X372834Y683338D01*
X372813Y683150D01*
X372792Y682949D01*
X372758Y682734D01*
X372716Y682519D01*
X372661Y682297D01*
X372605Y682082D01*
X372529Y681881D01*
X372445Y681679D01*
X372348Y681499D01*
X372237Y681339D01*
X372230Y681332D01*
X372216Y681311D01*
X372182Y681277D01*
X372140Y681235D01*
X372092Y681186D01*
X372022Y681131D01*
X371946Y681075D01*
X371863Y681013D01*
X371765Y680950D01*
X371654Y680895D01*
X371536Y680839D01*
X371404Y680791D01*
X371266Y680749D01*
X371113Y680715D01*
X370953Y680694D01*
X370787Y680687D01*
X370745D01*
X370697Y680694D01*
X370634Y680701D01*
X370551Y680708D01*
X370461Y680722D01*
X370356Y680749D01*
X370246Y680777D01*
X370128Y680812D01*
X370009Y680860D01*
X369885Y680923D01*
X369760Y680985D01*
X369635Y681069D01*
X369510Y681166D01*
X369392Y681277D01*
X369281Y681402D01*
X369274Y681409D01*
X369260Y681436D01*
X369225Y681478D01*
X369191Y681540D01*
X369149Y681624D01*
X369100Y681728D01*
X369052Y681853D01*
X368996Y681991D01*
X368941Y682158D01*
X368892Y682345D01*
X368844Y682554D01*
X368802Y682790D01*
X368767Y683046D01*
X368740Y683331D01*
X368719Y683636D01*
X368712Y683969D01*
Y683976D01*
Y683990D01*
Y684018D01*
Y684046D01*
Y684094D01*
X368719Y684143D01*
Y684198D01*
Y684261D01*
X368733Y684414D01*
X368746Y684580D01*
X368767Y684767D01*
X368788Y684969D01*
X368823Y685184D01*
X368864Y685399D01*
X368913Y685614D01*
X368975Y685829D01*
X369045Y686037D01*
X369128Y686232D01*
X369225Y686412D01*
X369336Y686572D01*
X369343Y686579D01*
X369364Y686600D01*
X369392Y686634D01*
X369433Y686676D01*
X369489Y686725D01*
X369551Y686780D01*
X369628Y686843D01*
X369711Y686905D01*
X369808Y686961D01*
X369919Y687023D01*
X370037Y687079D01*
X370169Y687127D01*
X370308Y687169D01*
X370461Y687203D01*
X370620Y687224D01*
X370787Y687231D01*
X370828D01*
X370877Y687224D01*
D02*
G37*
G36*
X365901D02*
X365964D01*
X366040Y687210D01*
X366130Y687196D01*
X366234Y687176D01*
X366345Y687148D01*
X366456Y687113D01*
X366574Y687072D01*
X366699Y687016D01*
X366817Y686954D01*
X366935Y686877D01*
X367053Y686787D01*
X367164Y686683D01*
X367268Y686565D01*
X367275Y686558D01*
X367296Y686530D01*
X367324Y686482D01*
X367365Y686412D01*
X367414Y686329D01*
X367470Y686218D01*
X367525Y686093D01*
X367581Y685940D01*
X367636Y685774D01*
X367699Y685579D01*
X367747Y685364D01*
X367796Y685128D01*
X367837Y684872D01*
X367865Y684587D01*
X367886Y684282D01*
X367893Y683955D01*
Y683949D01*
Y683935D01*
Y683907D01*
Y683879D01*
Y683831D01*
X367886Y683782D01*
Y683727D01*
Y683657D01*
X367872Y683511D01*
X367858Y683338D01*
X367837Y683150D01*
X367816Y682949D01*
X367782Y682734D01*
X367740Y682519D01*
X367685Y682297D01*
X367629Y682082D01*
X367553Y681881D01*
X367470Y681679D01*
X367372Y681499D01*
X367261Y681339D01*
X367254Y681332D01*
X367240Y681311D01*
X367206Y681277D01*
X367164Y681235D01*
X367115Y681186D01*
X367046Y681131D01*
X366970Y681075D01*
X366886Y681013D01*
X366789Y680950D01*
X366678Y680895D01*
X366560Y680839D01*
X366428Y680791D01*
X366290Y680749D01*
X366137Y680715D01*
X365977Y680694D01*
X365811Y680687D01*
X365769D01*
X365721Y680694D01*
X365658Y680701D01*
X365575Y680708D01*
X365485Y680722D01*
X365381Y680749D01*
X365269Y680777D01*
X365152Y680812D01*
X365034Y680860D01*
X364909Y680923D01*
X364784Y680985D01*
X364659Y681069D01*
X364534Y681166D01*
X364416Y681277D01*
X364305Y681402D01*
X364298Y681409D01*
X364284Y681436D01*
X364249Y681478D01*
X364215Y681540D01*
X364173Y681624D01*
X364124Y681728D01*
X364076Y681853D01*
X364020Y681991D01*
X363965Y682158D01*
X363916Y682345D01*
X363868Y682554D01*
X363826Y682790D01*
X363791Y683046D01*
X363763Y683331D01*
X363743Y683636D01*
X363736Y683969D01*
Y683976D01*
Y683990D01*
Y684018D01*
Y684046D01*
Y684094D01*
X363743Y684143D01*
Y684198D01*
Y684261D01*
X363757Y684414D01*
X363770Y684580D01*
X363791Y684767D01*
X363812Y684969D01*
X363847Y685184D01*
X363888Y685399D01*
X363937Y685614D01*
X364000Y685829D01*
X364069Y686037D01*
X364152Y686232D01*
X364249Y686412D01*
X364360Y686572D01*
X364367Y686579D01*
X364388Y686600D01*
X364416Y686634D01*
X364458Y686676D01*
X364513Y686725D01*
X364576Y686780D01*
X364652Y686843D01*
X364735Y686905D01*
X364832Y686961D01*
X364943Y687023D01*
X365061Y687079D01*
X365193Y687127D01*
X365332Y687169D01*
X365485Y687203D01*
X365644Y687224D01*
X365811Y687231D01*
X365852D01*
X365901Y687224D01*
D02*
G37*
G36*
X392828Y687301D02*
X392849Y687273D01*
X392884Y687217D01*
X392932Y687148D01*
X392981Y687065D01*
X393050Y686961D01*
X393120Y686843D01*
X393196Y686711D01*
X393272Y686565D01*
X393356Y686412D01*
X393439Y686246D01*
X393529Y686072D01*
X393612Y685892D01*
X393689Y685704D01*
X393842Y685316D01*
X393848Y685302D01*
X393855Y685267D01*
X393876Y685212D01*
X393897Y685135D01*
X393925Y685038D01*
X393959Y684927D01*
X393994Y684802D01*
X394029Y684656D01*
X394057Y684504D01*
X394091Y684337D01*
X394126Y684157D01*
X394154Y683976D01*
X394195Y683588D01*
X394202Y683386D01*
X394209Y683185D01*
Y683178D01*
Y683144D01*
Y683095D01*
X394202Y683026D01*
Y682942D01*
X394195Y682845D01*
X394188Y682727D01*
X394175Y682602D01*
X394161Y682456D01*
X394140Y682311D01*
X394112Y682144D01*
X394084Y681978D01*
X394057Y681797D01*
X394015Y681617D01*
X393918Y681228D01*
X393911Y681214D01*
X393904Y681180D01*
X393883Y681117D01*
X393855Y681027D01*
X393821Y680923D01*
X393779Y680798D01*
X393724Y680659D01*
X393661Y680506D01*
X393592Y680340D01*
X393515Y680159D01*
X393425Y679965D01*
X393328Y679771D01*
X393224Y679563D01*
X393106Y679354D01*
X392981Y679139D01*
X392849Y678924D01*
X392002D01*
X392009Y678931D01*
X392016Y678959D01*
X392037Y679000D01*
X392058Y679049D01*
X392093Y679118D01*
X392120Y679195D01*
X392162Y679278D01*
X392197Y679368D01*
X392280Y679556D01*
X392363Y679757D01*
X392440Y679944D01*
X392474Y680034D01*
X392502Y680118D01*
Y680125D01*
X392509Y680138D01*
X392516Y680159D01*
X392530Y680194D01*
X392544Y680229D01*
X392558Y680277D01*
X392571Y680333D01*
X392592Y680395D01*
X392634Y680534D01*
X392683Y680694D01*
X392731Y680874D01*
X392780Y681069D01*
Y681075D01*
X392787Y681096D01*
X392793Y681124D01*
X392800Y681159D01*
X392807Y681207D01*
X392821Y681263D01*
X392835Y681332D01*
X392849Y681402D01*
X392884Y681554D01*
X392912Y681728D01*
X392939Y681915D01*
X392967Y682096D01*
Y682102D01*
Y682116D01*
X392974Y682144D01*
Y682179D01*
X392981Y682228D01*
X392988Y682276D01*
X392995Y682338D01*
X393002Y682401D01*
X393009Y682554D01*
X393022Y682720D01*
X393029Y682908D01*
Y683095D01*
Y683109D01*
Y683144D01*
Y683199D01*
Y683275D01*
X393022Y683366D01*
X393016Y683477D01*
X393009Y683595D01*
X393002Y683733D01*
X392988Y683879D01*
X392974Y684032D01*
X392953Y684192D01*
X392932Y684365D01*
X392877Y684712D01*
X392800Y685059D01*
Y685073D01*
X392787Y685101D01*
X392780Y685156D01*
X392759Y685226D01*
X392731Y685316D01*
X392696Y685427D01*
X392662Y685552D01*
X392613Y685690D01*
X392565Y685850D01*
X392502Y686017D01*
X392440Y686204D01*
X392363Y686405D01*
X392280Y686614D01*
X392190Y686836D01*
X392093Y687072D01*
X391988Y687315D01*
X392821D01*
X392828Y687301D01*
D02*
G37*
G36*
X378483Y687308D02*
X378476Y687301D01*
X378469Y687280D01*
X378455Y687259D01*
X378428Y687190D01*
X378386Y687092D01*
X378338Y686981D01*
X378282Y686849D01*
X378220Y686697D01*
X378157Y686537D01*
X378088Y686364D01*
X378018Y686183D01*
X377880Y685802D01*
X377754Y685420D01*
X377706Y685239D01*
X377657Y685059D01*
Y685052D01*
X377650Y685017D01*
X377637Y684969D01*
X377623Y684899D01*
X377609Y684816D01*
X377588Y684712D01*
X377567Y684594D01*
X377546Y684469D01*
X377525Y684323D01*
X377505Y684171D01*
X377484Y684011D01*
X377470Y683845D01*
X377456Y683664D01*
X377442Y683477D01*
X377435Y683095D01*
Y683088D01*
Y683060D01*
Y683026D01*
Y682970D01*
X377442Y682908D01*
Y682831D01*
X377449Y682741D01*
Y682644D01*
X377456Y682540D01*
X377470Y682422D01*
X377491Y682172D01*
X377525Y681901D01*
X377567Y681624D01*
Y681617D01*
X377574Y681589D01*
X377581Y681547D01*
X377595Y681499D01*
X377602Y681429D01*
X377623Y681353D01*
X377643Y681263D01*
X377664Y681166D01*
X377685Y681062D01*
X377713Y680950D01*
X377775Y680708D01*
X377845Y680458D01*
X377928Y680208D01*
Y680201D01*
X377935Y680187D01*
X377942Y680159D01*
X377956Y680125D01*
X377977Y680076D01*
X377997Y680021D01*
X378025Y679958D01*
X378053Y679882D01*
X378088Y679799D01*
X378129Y679701D01*
X378171Y679597D01*
X378220Y679479D01*
X378275Y679354D01*
X378338Y679222D01*
X378400Y679077D01*
X378469Y678924D01*
X377630D01*
X377623Y678938D01*
X377602Y678973D01*
X377567Y679028D01*
X377519Y679098D01*
X377463Y679195D01*
X377401Y679299D01*
X377324Y679424D01*
X377248Y679569D01*
X377172Y679715D01*
X377088Y679882D01*
X376998Y680055D01*
X376915Y680236D01*
X376832Y680423D01*
X376755Y680617D01*
X376679Y680819D01*
X376609Y681020D01*
X376603Y681034D01*
X376596Y681069D01*
X376575Y681124D01*
X376554Y681207D01*
X376526Y681304D01*
X376498Y681416D01*
X376471Y681547D01*
X376436Y681686D01*
X376401Y681846D01*
X376374Y682012D01*
X376346Y682186D01*
X376318Y682366D01*
X376276Y682741D01*
X376269Y682928D01*
X376262Y683123D01*
Y683130D01*
Y683137D01*
Y683178D01*
Y683248D01*
X376269Y683338D01*
X376276Y683449D01*
X376283Y683581D01*
X376297Y683727D01*
X376318Y683893D01*
X376339Y684067D01*
X376366Y684261D01*
X376401Y684455D01*
X376443Y684663D01*
X376491Y684872D01*
X376554Y685080D01*
X376616Y685295D01*
X376693Y685510D01*
X376700Y685524D01*
X376713Y685552D01*
X376734Y685607D01*
X376762Y685677D01*
X376797Y685760D01*
X376838Y685864D01*
X376894Y685975D01*
X376950Y686100D01*
X377019Y686239D01*
X377088Y686378D01*
X377255Y686683D01*
X377435Y687002D01*
X377643Y687315D01*
X378483D01*
Y687308D01*
D02*
G37*
G36*
X-42026Y344202D02*
X-41942D01*
X-41845Y344195D01*
X-41727Y344188D01*
X-41602Y344175D01*
X-41456Y344161D01*
X-41311Y344140D01*
X-41144Y344112D01*
X-40978Y344084D01*
X-40797Y344057D01*
X-40617Y344015D01*
X-40228Y343918D01*
X-40214Y343911D01*
X-40179Y343904D01*
X-40117Y343883D01*
X-40027Y343855D01*
X-39923Y343821D01*
X-39798Y343779D01*
X-39659Y343724D01*
X-39506Y343661D01*
X-39340Y343592D01*
X-39159Y343515D01*
X-38965Y343425D01*
X-38771Y343328D01*
X-38563Y343224D01*
X-38354Y343106D01*
X-38139Y342981D01*
X-37924Y342849D01*
Y342002D01*
X-37931Y342009D01*
X-37959Y342016D01*
X-38000Y342037D01*
X-38049Y342058D01*
X-38118Y342093D01*
X-38195Y342120D01*
X-38278Y342162D01*
X-38368Y342197D01*
X-38556Y342280D01*
X-38757Y342363D01*
X-38944Y342440D01*
X-39034Y342474D01*
X-39118Y342502D01*
X-39125D01*
X-39138Y342509D01*
X-39159Y342516D01*
X-39194Y342530D01*
X-39229Y342544D01*
X-39277Y342558D01*
X-39333Y342571D01*
X-39395Y342592D01*
X-39534Y342634D01*
X-39694Y342683D01*
X-39874Y342731D01*
X-40069Y342780D01*
X-40075D01*
X-40096Y342787D01*
X-40124Y342793D01*
X-40159Y342800D01*
X-40207Y342807D01*
X-40263Y342821D01*
X-40332Y342835D01*
X-40402Y342849D01*
X-40554Y342884D01*
X-40728Y342912D01*
X-40915Y342939D01*
X-41096Y342967D01*
X-41103D01*
X-41116D01*
X-41144Y342974D01*
X-41179D01*
X-41227Y342981D01*
X-41276Y342988D01*
X-41339Y342995D01*
X-41401Y343002D01*
X-41554Y343009D01*
X-41720Y343022D01*
X-41908Y343029D01*
X-42095D01*
X-42109D01*
X-42143D01*
X-42199D01*
X-42275D01*
X-42366Y343022D01*
X-42477Y343016D01*
X-42595Y343009D01*
X-42733Y343002D01*
X-42879Y342988D01*
X-43032Y342974D01*
X-43191Y342953D01*
X-43365Y342932D01*
X-43712Y342877D01*
X-44059Y342800D01*
X-44073D01*
X-44101Y342787D01*
X-44156Y342780D01*
X-44225Y342759D01*
X-44316Y342731D01*
X-44427Y342696D01*
X-44552Y342662D01*
X-44690Y342613D01*
X-44850Y342565D01*
X-45017Y342502D01*
X-45204Y342440D01*
X-45405Y342363D01*
X-45614Y342280D01*
X-45836Y342190D01*
X-46072Y342093D01*
X-46314Y341988D01*
Y342821D01*
X-46301Y342828D01*
X-46273Y342849D01*
X-46217Y342884D01*
X-46148Y342932D01*
X-46065Y342981D01*
X-45961Y343050D01*
X-45843Y343120D01*
X-45711Y343196D01*
X-45565Y343272D01*
X-45412Y343356D01*
X-45246Y343439D01*
X-45072Y343529D01*
X-44892Y343612D01*
X-44704Y343689D01*
X-44316Y343842D01*
X-44302Y343848D01*
X-44267Y343855D01*
X-44212Y343876D01*
X-44135Y343897D01*
X-44038Y343925D01*
X-43927Y343959D01*
X-43802Y343994D01*
X-43657Y344029D01*
X-43504Y344057D01*
X-43337Y344091D01*
X-43157Y344126D01*
X-42976Y344154D01*
X-42588Y344195D01*
X-42386Y344202D01*
X-42185Y344209D01*
X-42178D01*
X-42143D01*
X-42095D01*
X-42026Y344202D01*
D02*
G37*
G36*
X-39805Y339858D02*
X-46210D01*
Y341086D01*
X-39805D01*
Y339858D01*
D02*
G37*
G36*
Y337373D02*
X-44448D01*
Y338602D01*
X-39805D01*
Y337373D01*
D02*
G37*
G36*
X-45072D02*
X-46210D01*
Y338602D01*
X-45072D01*
Y337373D01*
D02*
G37*
G36*
X-39805Y334917D02*
X-42456D01*
X-42463D01*
X-42484D01*
X-42518D01*
X-42567D01*
X-42622Y334910D01*
X-42685D01*
X-42831Y334903D01*
X-42976Y334882D01*
X-43129Y334861D01*
X-43191Y334847D01*
X-43254Y334826D01*
X-43310Y334806D01*
X-43351Y334785D01*
X-43365Y334778D01*
X-43393Y334750D01*
X-43434Y334715D01*
X-43483Y334660D01*
X-43532Y334583D01*
X-43573Y334493D01*
X-43601Y334389D01*
X-43615Y334264D01*
Y334223D01*
X-43608Y334174D01*
X-43594Y334105D01*
X-43573Y334035D01*
X-43545Y333952D01*
X-43511Y333869D01*
X-43455Y333779D01*
X-43448Y333771D01*
X-43427Y333744D01*
X-43386Y333702D01*
X-43337Y333653D01*
X-43275Y333598D01*
X-43191Y333542D01*
X-43101Y333494D01*
X-42990Y333452D01*
X-42976Y333445D01*
X-42955D01*
X-42935Y333438D01*
X-42900Y333432D01*
X-42858Y333424D01*
X-42817Y333411D01*
X-42761Y333404D01*
X-42699Y333397D01*
X-42622Y333383D01*
X-42546Y333376D01*
X-42463Y333369D01*
X-42366Y333362D01*
X-42261D01*
X-42151Y333355D01*
X-42033D01*
X-39805D01*
Y332127D01*
X-42345D01*
X-42352D01*
X-42373D01*
X-42407D01*
X-42456D01*
X-42511D01*
X-42574D01*
X-42713Y332120D01*
X-42858Y332113D01*
X-43004Y332099D01*
X-43067Y332092D01*
X-43129Y332078D01*
X-43178Y332071D01*
X-43219Y332057D01*
X-43226D01*
X-43254Y332044D01*
X-43289Y332030D01*
X-43330Y332009D01*
X-43427Y331946D01*
X-43476Y331905D01*
X-43518Y331856D01*
X-43525Y331849D01*
X-43532Y331828D01*
X-43545Y331801D01*
X-43566Y331759D01*
X-43587Y331703D01*
X-43601Y331641D01*
X-43608Y331565D01*
X-43615Y331481D01*
Y331433D01*
X-43608Y331377D01*
X-43594Y331308D01*
X-43573Y331231D01*
X-43545Y331148D01*
X-43511Y331058D01*
X-43455Y330968D01*
X-43448Y330961D01*
X-43427Y330933D01*
X-43393Y330891D01*
X-43344Y330843D01*
X-43282Y330794D01*
X-43205Y330739D01*
X-43115Y330690D01*
X-43011Y330648D01*
X-42997Y330642D01*
X-42983D01*
X-42955Y330635D01*
X-42928Y330628D01*
X-42886Y330621D01*
X-42838Y330607D01*
X-42789Y330600D01*
X-42726Y330593D01*
X-42657Y330579D01*
X-42574Y330572D01*
X-42491Y330565D01*
X-42393Y330558D01*
X-42289D01*
X-42178Y330551D01*
X-42060D01*
X-39805D01*
Y329323D01*
X-44448D01*
Y330454D01*
X-43809D01*
X-43816Y330461D01*
X-43844Y330482D01*
X-43879Y330517D01*
X-43927Y330565D01*
X-43983Y330621D01*
X-44045Y330690D01*
X-44115Y330773D01*
X-44184Y330864D01*
X-44253Y330961D01*
X-44316Y331072D01*
X-44378Y331190D01*
X-44434Y331315D01*
X-44482Y331454D01*
X-44517Y331592D01*
X-44545Y331745D01*
X-44552Y331898D01*
Y331974D01*
X-44545Y332009D01*
Y332057D01*
X-44531Y332161D01*
X-44503Y332279D01*
X-44475Y332411D01*
X-44427Y332543D01*
X-44364Y332668D01*
Y332675D01*
X-44357Y332682D01*
X-44330Y332724D01*
X-44288Y332786D01*
X-44225Y332862D01*
X-44149Y332946D01*
X-44052Y333036D01*
X-43941Y333126D01*
X-43809Y333209D01*
X-43816Y333216D01*
X-43823Y333223D01*
X-43844Y333237D01*
X-43872Y333265D01*
X-43934Y333327D01*
X-44017Y333404D01*
X-44108Y333508D01*
X-44205Y333619D01*
X-44288Y333737D01*
X-44364Y333869D01*
Y333876D01*
X-44371Y333883D01*
X-44385Y333903D01*
X-44392Y333931D01*
X-44427Y334000D01*
X-44462Y334098D01*
X-44489Y334209D01*
X-44524Y334341D01*
X-44545Y334479D01*
X-44552Y334625D01*
Y334708D01*
X-44545Y334757D01*
X-44538Y334806D01*
X-44524Y334924D01*
X-44503Y335055D01*
X-44462Y335201D01*
X-44413Y335347D01*
X-44344Y335486D01*
Y335493D01*
X-44337Y335500D01*
X-44302Y335541D01*
X-44253Y335604D01*
X-44191Y335687D01*
X-44101Y335770D01*
X-43997Y335860D01*
X-43872Y335944D01*
X-43733Y336013D01*
X-43719Y336020D01*
X-43698Y336027D01*
X-43677Y336034D01*
X-43643Y336041D01*
X-43601Y336055D01*
X-43559Y336069D01*
X-43504Y336083D01*
X-43434Y336089D01*
X-43365Y336103D01*
X-43289Y336117D01*
X-43198Y336124D01*
X-43108Y336131D01*
X-43004Y336138D01*
X-42886Y336145D01*
X-42768D01*
X-39805D01*
Y334917D01*
D02*
G37*
G36*
X-46301Y328476D02*
X-46280Y328469D01*
X-46259Y328455D01*
X-46190Y328428D01*
X-46092Y328386D01*
X-45981Y328338D01*
X-45849Y328282D01*
X-45697Y328220D01*
X-45537Y328157D01*
X-45364Y328088D01*
X-45183Y328018D01*
X-44802Y327880D01*
X-44420Y327754D01*
X-44239Y327706D01*
X-44059Y327657D01*
X-44052D01*
X-44017Y327650D01*
X-43969Y327637D01*
X-43899Y327623D01*
X-43816Y327609D01*
X-43712Y327588D01*
X-43594Y327567D01*
X-43469Y327546D01*
X-43323Y327525D01*
X-43171Y327505D01*
X-43011Y327484D01*
X-42845Y327470D01*
X-42664Y327456D01*
X-42477Y327442D01*
X-42095Y327435D01*
X-42088D01*
X-42060D01*
X-42026D01*
X-41970D01*
X-41908Y327442D01*
X-41831D01*
X-41741Y327449D01*
X-41644D01*
X-41540Y327456D01*
X-41422Y327470D01*
X-41172Y327491D01*
X-40901Y327525D01*
X-40624Y327567D01*
X-40617D01*
X-40589Y327574D01*
X-40547Y327581D01*
X-40499Y327595D01*
X-40429Y327602D01*
X-40353Y327623D01*
X-40263Y327643D01*
X-40166Y327664D01*
X-40062Y327685D01*
X-39950Y327713D01*
X-39708Y327775D01*
X-39458Y327845D01*
X-39208Y327928D01*
X-39201D01*
X-39187Y327935D01*
X-39159Y327942D01*
X-39125Y327956D01*
X-39076Y327977D01*
X-39020Y327997D01*
X-38958Y328025D01*
X-38882Y328053D01*
X-38798Y328088D01*
X-38701Y328129D01*
X-38597Y328171D01*
X-38479Y328220D01*
X-38354Y328275D01*
X-38222Y328338D01*
X-38077Y328400D01*
X-37924Y328469D01*
Y327630D01*
X-37938Y327623D01*
X-37973Y327602D01*
X-38028Y327567D01*
X-38098Y327519D01*
X-38195Y327463D01*
X-38299Y327401D01*
X-38424Y327324D01*
X-38570Y327248D01*
X-38715Y327172D01*
X-38882Y327088D01*
X-39055Y326998D01*
X-39236Y326915D01*
X-39423Y326832D01*
X-39617Y326755D01*
X-39819Y326679D01*
X-40020Y326609D01*
X-40034Y326603D01*
X-40069Y326596D01*
X-40124Y326575D01*
X-40207Y326554D01*
X-40304Y326526D01*
X-40415Y326498D01*
X-40547Y326471D01*
X-40686Y326436D01*
X-40846Y326401D01*
X-41012Y326374D01*
X-41186Y326346D01*
X-41366Y326318D01*
X-41741Y326276D01*
X-41928Y326269D01*
X-42123Y326262D01*
X-42130D01*
X-42137D01*
X-42178D01*
X-42248D01*
X-42338Y326269D01*
X-42449Y326276D01*
X-42581Y326283D01*
X-42726Y326297D01*
X-42893Y326318D01*
X-43067Y326339D01*
X-43261Y326366D01*
X-43455Y326401D01*
X-43663Y326443D01*
X-43872Y326491D01*
X-44080Y326554D01*
X-44295Y326616D01*
X-44510Y326693D01*
X-44524Y326700D01*
X-44552Y326713D01*
X-44607Y326734D01*
X-44677Y326762D01*
X-44760Y326797D01*
X-44864Y326838D01*
X-44975Y326894D01*
X-45100Y326950D01*
X-45239Y327019D01*
X-45378Y327088D01*
X-45683Y327255D01*
X-46002Y327435D01*
X-46314Y327643D01*
Y328483D01*
X-46308D01*
X-46301Y328476D01*
D02*
G37*
G36*
X-42782Y322862D02*
X-42726D01*
X-42657D01*
X-42511Y322848D01*
X-42338Y322834D01*
X-42151Y322813D01*
X-41949Y322792D01*
X-41734Y322758D01*
X-41519Y322716D01*
X-41297Y322661D01*
X-41082Y322605D01*
X-40881Y322529D01*
X-40679Y322445D01*
X-40499Y322348D01*
X-40339Y322237D01*
X-40332Y322230D01*
X-40311Y322216D01*
X-40277Y322182D01*
X-40235Y322140D01*
X-40187Y322092D01*
X-40131Y322022D01*
X-40075Y321946D01*
X-40013Y321863D01*
X-39950Y321765D01*
X-39895Y321654D01*
X-39840Y321536D01*
X-39791Y321404D01*
X-39749Y321266D01*
X-39715Y321113D01*
X-39694Y320953D01*
X-39687Y320787D01*
Y320745D01*
X-39694Y320697D01*
X-39701Y320634D01*
X-39708Y320551D01*
X-39722Y320461D01*
X-39749Y320356D01*
X-39777Y320246D01*
X-39812Y320128D01*
X-39860Y320009D01*
X-39923Y319885D01*
X-39985Y319760D01*
X-40069Y319635D01*
X-40166Y319510D01*
X-40277Y319392D01*
X-40402Y319281D01*
X-40409Y319274D01*
X-40436Y319260D01*
X-40478Y319225D01*
X-40540Y319191D01*
X-40624Y319149D01*
X-40728Y319100D01*
X-40853Y319052D01*
X-40992Y318996D01*
X-41158Y318941D01*
X-41345Y318892D01*
X-41554Y318844D01*
X-41790Y318802D01*
X-42046Y318767D01*
X-42331Y318740D01*
X-42636Y318719D01*
X-42969Y318712D01*
X-42976D01*
X-42990D01*
X-43018D01*
X-43046D01*
X-43094D01*
X-43143Y318719D01*
X-43198D01*
X-43261D01*
X-43414Y318733D01*
X-43580Y318746D01*
X-43767Y318767D01*
X-43969Y318788D01*
X-44184Y318823D01*
X-44399Y318864D01*
X-44614Y318913D01*
X-44829Y318975D01*
X-45037Y319045D01*
X-45232Y319128D01*
X-45412Y319225D01*
X-45572Y319336D01*
X-45579Y319343D01*
X-45600Y319364D01*
X-45634Y319392D01*
X-45676Y319433D01*
X-45725Y319489D01*
X-45780Y319551D01*
X-45843Y319628D01*
X-45905Y319711D01*
X-45961Y319808D01*
X-46023Y319919D01*
X-46079Y320037D01*
X-46127Y320169D01*
X-46169Y320308D01*
X-46203Y320461D01*
X-46224Y320620D01*
X-46231Y320787D01*
Y320828D01*
X-46224Y320877D01*
Y320939D01*
X-46210Y321016D01*
X-46196Y321106D01*
X-46176Y321210D01*
X-46148Y321321D01*
X-46113Y321432D01*
X-46072Y321550D01*
X-46016Y321675D01*
X-45954Y321793D01*
X-45877Y321911D01*
X-45787Y322029D01*
X-45683Y322140D01*
X-45565Y322244D01*
X-45558Y322251D01*
X-45530Y322272D01*
X-45482Y322300D01*
X-45412Y322341D01*
X-45329Y322390D01*
X-45218Y322445D01*
X-45093Y322501D01*
X-44940Y322556D01*
X-44774Y322612D01*
X-44579Y322674D01*
X-44364Y322723D01*
X-44128Y322772D01*
X-43872Y322813D01*
X-43587Y322841D01*
X-43282Y322862D01*
X-42955Y322869D01*
X-42949D01*
X-42935D01*
X-42907D01*
X-42879D01*
X-42831D01*
X-42782Y322862D01*
D02*
G37*
G36*
Y317886D02*
X-42726D01*
X-42657D01*
X-42511Y317872D01*
X-42338Y317858D01*
X-42151Y317837D01*
X-41949Y317816D01*
X-41734Y317782D01*
X-41519Y317740D01*
X-41297Y317685D01*
X-41082Y317629D01*
X-40881Y317553D01*
X-40679Y317470D01*
X-40499Y317372D01*
X-40339Y317261D01*
X-40332Y317254D01*
X-40311Y317240D01*
X-40277Y317206D01*
X-40235Y317164D01*
X-40187Y317115D01*
X-40131Y317046D01*
X-40075Y316970D01*
X-40013Y316886D01*
X-39950Y316789D01*
X-39895Y316678D01*
X-39840Y316560D01*
X-39791Y316428D01*
X-39749Y316290D01*
X-39715Y316137D01*
X-39694Y315977D01*
X-39687Y315811D01*
Y315769D01*
X-39694Y315721D01*
X-39701Y315658D01*
X-39708Y315575D01*
X-39722Y315485D01*
X-39749Y315381D01*
X-39777Y315269D01*
X-39812Y315152D01*
X-39860Y315034D01*
X-39923Y314909D01*
X-39985Y314784D01*
X-40069Y314659D01*
X-40166Y314534D01*
X-40277Y314416D01*
X-40402Y314305D01*
X-40409Y314298D01*
X-40436Y314284D01*
X-40478Y314249D01*
X-40540Y314215D01*
X-40624Y314173D01*
X-40728Y314124D01*
X-40853Y314076D01*
X-40992Y314020D01*
X-41158Y313965D01*
X-41345Y313916D01*
X-41554Y313868D01*
X-41790Y313826D01*
X-42046Y313791D01*
X-42331Y313763D01*
X-42636Y313743D01*
X-42969Y313736D01*
X-42976D01*
X-42990D01*
X-43018D01*
X-43046D01*
X-43094D01*
X-43143Y313743D01*
X-43198D01*
X-43261D01*
X-43414Y313757D01*
X-43580Y313770D01*
X-43767Y313791D01*
X-43969Y313812D01*
X-44184Y313847D01*
X-44399Y313888D01*
X-44614Y313937D01*
X-44829Y314000D01*
X-45037Y314069D01*
X-45232Y314152D01*
X-45412Y314249D01*
X-45572Y314360D01*
X-45579Y314367D01*
X-45600Y314388D01*
X-45634Y314416D01*
X-45676Y314458D01*
X-45725Y314513D01*
X-45780Y314576D01*
X-45843Y314652D01*
X-45905Y314735D01*
X-45961Y314832D01*
X-46023Y314943D01*
X-46079Y315061D01*
X-46127Y315193D01*
X-46169Y315332D01*
X-46203Y315485D01*
X-46224Y315644D01*
X-46231Y315811D01*
Y315852D01*
X-46224Y315901D01*
Y315964D01*
X-46210Y316040D01*
X-46196Y316130D01*
X-46176Y316234D01*
X-46148Y316345D01*
X-46113Y316456D01*
X-46072Y316574D01*
X-46016Y316699D01*
X-45954Y316817D01*
X-45877Y316935D01*
X-45787Y317053D01*
X-45683Y317164D01*
X-45565Y317268D01*
X-45558Y317275D01*
X-45530Y317296D01*
X-45482Y317324D01*
X-45412Y317365D01*
X-45329Y317414D01*
X-45218Y317470D01*
X-45093Y317525D01*
X-44940Y317581D01*
X-44774Y317636D01*
X-44579Y317699D01*
X-44364Y317747D01*
X-44128Y317796D01*
X-43872Y317837D01*
X-43587Y317865D01*
X-43282Y317886D01*
X-42955Y317893D01*
X-42949D01*
X-42935D01*
X-42907D01*
X-42879D01*
X-42831D01*
X-42782Y317886D01*
D02*
G37*
G36*
X-41817Y313083D02*
X-41748Y313076D01*
X-41665Y313063D01*
X-41574Y313049D01*
X-41477Y313035D01*
X-41366Y313007D01*
X-41255Y312979D01*
X-41137Y312938D01*
X-41019Y312896D01*
X-40894Y312841D01*
X-40776Y312778D01*
X-40651Y312709D01*
X-40534Y312625D01*
X-40527Y312618D01*
X-40499Y312598D01*
X-40457Y312563D01*
X-40402Y312507D01*
X-40339Y312445D01*
X-40263Y312369D01*
X-40187Y312278D01*
X-40110Y312174D01*
X-40034Y312056D01*
X-39957Y311924D01*
X-39881Y311786D01*
X-39819Y311633D01*
X-39763Y311466D01*
X-39722Y311286D01*
X-39694Y311092D01*
X-39687Y310890D01*
Y310807D01*
X-39694Y310745D01*
X-39701Y310668D01*
X-39715Y310578D01*
X-39728Y310481D01*
X-39749Y310377D01*
X-39805Y310148D01*
X-39840Y310023D01*
X-39888Y309905D01*
X-39944Y309780D01*
X-40006Y309662D01*
X-40075Y309551D01*
X-40159Y309440D01*
X-40166Y309433D01*
X-40179Y309419D01*
X-40207Y309391D01*
X-40249Y309350D01*
X-40297Y309308D01*
X-40353Y309259D01*
X-40422Y309204D01*
X-40499Y309148D01*
X-40589Y309093D01*
X-40686Y309037D01*
X-40790Y308982D01*
X-40901Y308926D01*
X-41026Y308878D01*
X-41158Y308836D01*
X-41297Y308808D01*
X-41443Y308781D01*
X-41574Y310002D01*
X-41568D01*
X-41554D01*
X-41533Y310009D01*
X-41505Y310016D01*
X-41429Y310030D01*
X-41339Y310057D01*
X-41227Y310099D01*
X-41123Y310155D01*
X-41012Y310224D01*
X-40915Y310307D01*
X-40908Y310321D01*
X-40881Y310356D01*
X-40839Y310404D01*
X-40797Y310481D01*
X-40749Y310564D01*
X-40714Y310668D01*
X-40686Y310779D01*
X-40672Y310904D01*
Y310939D01*
X-40679Y310967D01*
X-40686Y311043D01*
X-40714Y311133D01*
X-40749Y311237D01*
X-40804Y311341D01*
X-40881Y311453D01*
X-40929Y311508D01*
X-40985Y311557D01*
X-40992D01*
X-40999Y311571D01*
X-41019Y311584D01*
X-41040Y311598D01*
X-41075Y311619D01*
X-41116Y311640D01*
X-41165Y311668D01*
X-41221Y311695D01*
X-41283Y311716D01*
X-41352Y311744D01*
X-41429Y311765D01*
X-41512Y311786D01*
X-41609Y311800D01*
X-41706Y311813D01*
X-41817Y311827D01*
X-41928D01*
X-41935D01*
X-41956D01*
X-41984D01*
X-42026Y311820D01*
X-42074D01*
X-42130Y311813D01*
X-42261Y311792D01*
X-42407Y311765D01*
X-42553Y311716D01*
X-42692Y311647D01*
X-42817Y311557D01*
X-42824D01*
X-42831Y311543D01*
X-42865Y311508D01*
X-42914Y311453D01*
X-42969Y311369D01*
X-43018Y311272D01*
X-43067Y311154D01*
X-43101Y311022D01*
X-43115Y310946D01*
Y310821D01*
X-43108Y310779D01*
X-43101Y310731D01*
X-43087Y310682D01*
X-43060Y310550D01*
X-43004Y310404D01*
X-42963Y310321D01*
X-42921Y310245D01*
X-42865Y310162D01*
X-42803Y310078D01*
X-42733Y309995D01*
X-42650Y309919D01*
X-42789Y308926D01*
X-46127Y309558D01*
Y312806D01*
X-44975D01*
Y310481D01*
X-43885Y310287D01*
Y310294D01*
X-43892Y310307D01*
X-43906Y310328D01*
X-43920Y310356D01*
X-43934Y310398D01*
X-43955Y310439D01*
X-43990Y310543D01*
X-44031Y310675D01*
X-44059Y310814D01*
X-44087Y310967D01*
X-44094Y311126D01*
Y311161D01*
X-44087Y311203D01*
Y311265D01*
X-44073Y311334D01*
X-44059Y311418D01*
X-44045Y311508D01*
X-44017Y311605D01*
X-43990Y311716D01*
X-43948Y311827D01*
X-43899Y311938D01*
X-43844Y312056D01*
X-43775Y312174D01*
X-43691Y312292D01*
X-43601Y312403D01*
X-43497Y312514D01*
X-43490Y312521D01*
X-43469Y312542D01*
X-43434Y312570D01*
X-43386Y312604D01*
X-43330Y312646D01*
X-43261Y312695D01*
X-43178Y312750D01*
X-43080Y312806D01*
X-42976Y312854D01*
X-42858Y312910D01*
X-42726Y312959D01*
X-42595Y313000D01*
X-42442Y313035D01*
X-42289Y313063D01*
X-42123Y313083D01*
X-41949Y313090D01*
X-41942D01*
X-41914D01*
X-41873D01*
X-41817Y313083D01*
D02*
G37*
G36*
X-41755Y308059D02*
X-41693D01*
X-41609Y308045D01*
X-41512Y308038D01*
X-41401Y308017D01*
X-41283Y307996D01*
X-41165Y307962D01*
X-41033Y307927D01*
X-40901Y307878D01*
X-40769Y307823D01*
X-40644Y307753D01*
X-40513Y307677D01*
X-40395Y307587D01*
X-40277Y307483D01*
X-40270Y307476D01*
X-40249Y307455D01*
X-40221Y307427D01*
X-40187Y307379D01*
X-40138Y307323D01*
X-40089Y307254D01*
X-40034Y307171D01*
X-39985Y307080D01*
X-39930Y306983D01*
X-39874Y306872D01*
X-39826Y306747D01*
X-39777Y306615D01*
X-39742Y306476D01*
X-39715Y306331D01*
X-39694Y306171D01*
X-39687Y306005D01*
Y305963D01*
X-39694Y305914D01*
X-39701Y305845D01*
X-39708Y305762D01*
X-39728Y305664D01*
X-39749Y305560D01*
X-39784Y305442D01*
X-39819Y305317D01*
X-39867Y305186D01*
X-39930Y305054D01*
X-40006Y304922D01*
X-40089Y304790D01*
X-40187Y304658D01*
X-40304Y304526D01*
X-40436Y304408D01*
X-40443Y304401D01*
X-40471Y304381D01*
X-40520Y304353D01*
X-40582Y304311D01*
X-40665Y304263D01*
X-40769Y304214D01*
X-40887Y304158D01*
X-41026Y304103D01*
X-41193Y304041D01*
X-41373Y303985D01*
X-41574Y303937D01*
X-41797Y303888D01*
X-42039Y303846D01*
X-42310Y303818D01*
X-42595Y303798D01*
X-42907Y303791D01*
X-42914D01*
X-42928D01*
X-42949D01*
X-42983D01*
X-43025D01*
X-43073Y303798D01*
X-43129D01*
X-43191D01*
X-43337Y303812D01*
X-43504Y303825D01*
X-43691Y303846D01*
X-43885Y303874D01*
X-44094Y303909D01*
X-44302Y303950D01*
X-44517Y303999D01*
X-44725Y304061D01*
X-44927Y304138D01*
X-45114Y304221D01*
X-45287Y304325D01*
X-45447Y304436D01*
X-45454Y304443D01*
X-45482Y304464D01*
X-45516Y304505D01*
X-45572Y304554D01*
X-45627Y304617D01*
X-45697Y304700D01*
X-45766Y304790D01*
X-45843Y304894D01*
X-45912Y305005D01*
X-45981Y305137D01*
X-46051Y305276D01*
X-46106Y305429D01*
X-46162Y305588D01*
X-46196Y305755D01*
X-46224Y305942D01*
X-46231Y306130D01*
Y306199D01*
X-46224Y306254D01*
X-46217Y306310D01*
X-46210Y306386D01*
X-46196Y306470D01*
X-46183Y306553D01*
X-46127Y306747D01*
X-46099Y306844D01*
X-46058Y306948D01*
X-46009Y307046D01*
X-45954Y307150D01*
X-45891Y307247D01*
X-45815Y307337D01*
X-45808Y307344D01*
X-45794Y307358D01*
X-45773Y307386D01*
X-45739Y307413D01*
X-45697Y307455D01*
X-45641Y307497D01*
X-45586Y307545D01*
X-45509Y307594D01*
X-45433Y307642D01*
X-45343Y307698D01*
X-45246Y307747D01*
X-45142Y307795D01*
X-45024Y307844D01*
X-44899Y307885D01*
X-44767Y307920D01*
X-44621Y307948D01*
X-44496Y306761D01*
X-44503D01*
X-44510D01*
X-44559Y306754D01*
X-44621Y306733D01*
X-44697Y306713D01*
X-44788Y306685D01*
X-44871Y306643D01*
X-44961Y306588D01*
X-45031Y306525D01*
X-45037Y306518D01*
X-45058Y306490D01*
X-45086Y306456D01*
X-45121Y306400D01*
X-45156Y306331D01*
X-45183Y306247D01*
X-45204Y306157D01*
X-45211Y306053D01*
Y306018D01*
X-45204Y305991D01*
X-45190Y305914D01*
X-45169Y305824D01*
X-45128Y305720D01*
X-45065Y305609D01*
X-45024Y305554D01*
X-44975Y305498D01*
X-44919Y305449D01*
X-44857Y305394D01*
X-44850D01*
X-44843Y305380D01*
X-44815Y305366D01*
X-44788Y305352D01*
X-44746Y305331D01*
X-44690Y305304D01*
X-44621Y305283D01*
X-44545Y305255D01*
X-44455Y305227D01*
X-44350Y305193D01*
X-44232Y305165D01*
X-44094Y305137D01*
X-43948Y305116D01*
X-43781Y305088D01*
X-43601Y305068D01*
X-43400Y305054D01*
X-43407Y305061D01*
X-43420Y305075D01*
X-43448Y305102D01*
X-43483Y305137D01*
X-43525Y305186D01*
X-43573Y305234D01*
X-43622Y305297D01*
X-43677Y305373D01*
X-43726Y305449D01*
X-43775Y305540D01*
X-43823Y305630D01*
X-43865Y305734D01*
X-43899Y305838D01*
X-43927Y305956D01*
X-43941Y306074D01*
X-43948Y306199D01*
Y306234D01*
X-43941Y306275D01*
Y306331D01*
X-43927Y306393D01*
X-43920Y306470D01*
X-43899Y306560D01*
X-43872Y306650D01*
X-43844Y306754D01*
X-43802Y306858D01*
X-43754Y306969D01*
X-43698Y307080D01*
X-43629Y307191D01*
X-43552Y307302D01*
X-43462Y307413D01*
X-43358Y307518D01*
X-43351Y307524D01*
X-43330Y307538D01*
X-43296Y307566D01*
X-43254Y307601D01*
X-43191Y307642D01*
X-43122Y307691D01*
X-43046Y307740D01*
X-42949Y307795D01*
X-42851Y307844D01*
X-42733Y307892D01*
X-42608Y307941D01*
X-42477Y307982D01*
X-42331Y308017D01*
X-42185Y308045D01*
X-42019Y308059D01*
X-41852Y308066D01*
X-41838D01*
X-41810D01*
X-41755Y308059D01*
D02*
G37*
%LPC*%
G36*
X635320Y628529D02*
X635279D01*
X635231Y628522D01*
X635170Y628515D01*
X635101Y628508D01*
X635026Y628488D01*
X634951Y628467D01*
X634883Y628440D01*
X634876Y628433D01*
X634848Y628419D01*
X634814Y628399D01*
X634773Y628372D01*
X634726Y628337D01*
X634678Y628290D01*
X634575Y628187D01*
X634569Y628180D01*
X634555Y628160D01*
X634534Y628126D01*
X634507Y628078D01*
X634480Y628023D01*
X634446Y627962D01*
X634398Y627825D01*
Y627818D01*
X634391Y627791D01*
X634377Y627750D01*
X634364Y627702D01*
X634357Y627641D01*
X634343Y627566D01*
X634336Y627415D01*
Y627402D01*
Y627375D01*
Y627333D01*
X634343Y627279D01*
X634350Y627211D01*
X634357Y627142D01*
X634384Y626999D01*
Y626992D01*
X634391Y626965D01*
X634405Y626931D01*
X634418Y626890D01*
X634473Y626780D01*
X634541Y626678D01*
X634548Y626671D01*
X634562Y626657D01*
X634582Y626630D01*
X634616Y626603D01*
X634657Y626575D01*
X634705Y626541D01*
X634760Y626507D01*
X634821Y626480D01*
X634828Y626473D01*
X634855Y626466D01*
X634890Y626452D01*
X634944Y626439D01*
X635006Y626425D01*
X635081Y626418D01*
X635163Y626405D01*
X635347D01*
X635395Y626411D01*
X635443Y626418D01*
X635552Y626432D01*
X635559D01*
X635579Y626439D01*
X635607Y626446D01*
X635641Y626452D01*
X635730Y626473D01*
X635832Y626507D01*
X635839D01*
X635853Y626514D01*
X635880Y626521D01*
X635914Y626534D01*
X635996Y626569D01*
X636092Y626610D01*
X636098D01*
X636112Y626623D01*
X636133Y626630D01*
X636167Y626650D01*
X636235Y626691D01*
X636317Y626746D01*
Y626753D01*
Y626767D01*
Y626794D01*
Y626828D01*
Y626876D01*
X636310Y626924D01*
Y627040D01*
X636303Y627176D01*
X636290Y627320D01*
X636276Y627463D01*
X636256Y627600D01*
Y627607D01*
Y627613D01*
X636242Y627655D01*
X636228Y627716D01*
X636208Y627798D01*
X636180Y627880D01*
X636146Y627976D01*
X636105Y628064D01*
X636064Y628146D01*
X636058Y628153D01*
X636044Y628180D01*
X636017Y628215D01*
X635982Y628262D01*
X635934Y628310D01*
X635880Y628358D01*
X635825Y628399D01*
X635757Y628440D01*
X635750Y628447D01*
X635723Y628454D01*
X635682Y628467D01*
X635634Y628481D01*
X635566Y628501D01*
X635497Y628515D01*
X635409Y628522D01*
X635320Y628529D01*
D02*
G37*
G36*
X686367Y102395D02*
X683580D01*
Y102381D01*
X686367Y100749D01*
Y102395D01*
D02*
G37*
G36*
X45075Y50262D02*
Y48286D01*
X48420D01*
Y48302D01*
X45075Y50262D01*
D02*
G37*
G36*
X45706Y289180D02*
X45698D01*
X45681D01*
X45649D01*
X45608D01*
X45550D01*
X45493Y289172D01*
X45353D01*
X45189Y289164D01*
X45017Y289147D01*
X44845Y289131D01*
X44681Y289106D01*
X44673D01*
X44665D01*
X44615Y289090D01*
X44542Y289073D01*
X44443Y289049D01*
X44345Y289016D01*
X44230Y288975D01*
X44123Y288926D01*
X44025Y288877D01*
X44017Y288868D01*
X43984Y288852D01*
X43943Y288819D01*
X43886Y288778D01*
X43828Y288721D01*
X43771Y288655D01*
X43722Y288590D01*
X43672Y288508D01*
X43664Y288499D01*
X43656Y288467D01*
X43640Y288417D01*
X43623Y288360D01*
X43599Y288278D01*
X43582Y288196D01*
X43574Y288089D01*
X43566Y287983D01*
Y287934D01*
X43574Y287876D01*
X43582Y287802D01*
X43590Y287720D01*
X43615Y287630D01*
X43640Y287540D01*
X43672Y287458D01*
X43681Y287450D01*
X43697Y287417D01*
X43722Y287376D01*
X43754Y287327D01*
X43795Y287269D01*
X43853Y287212D01*
X43976Y287089D01*
X43984Y287081D01*
X44009Y287064D01*
X44050Y287040D01*
X44107Y287007D01*
X44173Y286974D01*
X44246Y286933D01*
X44410Y286876D01*
X44419D01*
X44451Y286868D01*
X44501Y286851D01*
X44558Y286835D01*
X44632Y286827D01*
X44722Y286810D01*
X44902Y286802D01*
X44919D01*
X44952D01*
X45001D01*
X45066Y286810D01*
X45148Y286818D01*
X45230Y286827D01*
X45403Y286859D01*
X45411D01*
X45444Y286868D01*
X45485Y286884D01*
X45534Y286900D01*
X45665Y286966D01*
X45788Y287048D01*
X45796Y287056D01*
X45813Y287073D01*
X45845Y287097D01*
X45878Y287138D01*
X45911Y287187D01*
X45952Y287245D01*
X45993Y287310D01*
X46026Y287384D01*
X46034Y287392D01*
X46042Y287425D01*
X46059Y287466D01*
X46075Y287532D01*
X46091Y287606D01*
X46100Y287696D01*
X46116Y287794D01*
Y288016D01*
X46108Y288073D01*
X46100Y288130D01*
X46083Y288262D01*
Y288270D01*
X46075Y288294D01*
X46067Y288327D01*
X46059Y288368D01*
X46034Y288475D01*
X45993Y288598D01*
Y288606D01*
X45985Y288622D01*
X45977Y288655D01*
X45960Y288696D01*
X45919Y288795D01*
X45870Y288909D01*
Y288918D01*
X45854Y288934D01*
X45845Y288959D01*
X45821Y289000D01*
X45772Y289082D01*
X45706Y289180D01*
D02*
G37*
G36*
X370787Y686211D02*
X370752D01*
X370710Y686204D01*
X370655Y686190D01*
X370592Y686176D01*
X370523Y686149D01*
X370461Y686114D01*
X370391Y686065D01*
X370384Y686058D01*
X370363Y686037D01*
X370329Y686003D01*
X370294Y685947D01*
X370252Y685878D01*
X370204Y685795D01*
X370162Y685684D01*
X370121Y685559D01*
Y685552D01*
X370114Y685538D01*
X370107Y685510D01*
X370100Y685468D01*
X370093Y685413D01*
X370079Y685351D01*
X370072Y685267D01*
X370058Y685177D01*
X370044Y685073D01*
X370037Y684955D01*
X370023Y684823D01*
X370016Y684677D01*
X370009Y684525D01*
X370003Y684344D01*
X369996Y684157D01*
Y683955D01*
Y683942D01*
Y683907D01*
Y683851D01*
Y683775D01*
X370003Y683678D01*
Y683574D01*
Y683463D01*
X370009Y683338D01*
X370023Y683081D01*
X370044Y682824D01*
X370058Y682699D01*
X370072Y682588D01*
X370086Y682491D01*
X370107Y682401D01*
Y682394D01*
X370114Y682380D01*
X370121Y682359D01*
X370128Y682332D01*
X370148Y682262D01*
X370183Y682179D01*
X370225Y682082D01*
X370273Y681991D01*
X370329Y681908D01*
X370391Y681846D01*
X370398Y681839D01*
X370419Y681825D01*
X370461Y681804D01*
X370509Y681776D01*
X370565Y681749D01*
X370634Y681728D01*
X370704Y681714D01*
X370787Y681707D01*
X370821D01*
X370863Y681714D01*
X370919Y681728D01*
X370981Y681742D01*
X371051Y681763D01*
X371113Y681797D01*
X371182Y681846D01*
X371189Y681853D01*
X371210Y681874D01*
X371245Y681908D01*
X371280Y681964D01*
X371328Y682033D01*
X371370Y682116D01*
X371411Y682228D01*
X371453Y682352D01*
Y682359D01*
X371460Y682373D01*
X371467Y682401D01*
X371474Y682443D01*
X371481Y682498D01*
X371495Y682561D01*
X371509Y682637D01*
X371522Y682727D01*
X371529Y682831D01*
X371543Y682949D01*
X371557Y683081D01*
X371564Y683227D01*
X371571Y683386D01*
X371578Y683560D01*
X371585Y683754D01*
Y683955D01*
Y683969D01*
Y684004D01*
Y684060D01*
Y684136D01*
Y684226D01*
X371578Y684337D01*
Y684448D01*
X371571Y684573D01*
X371557Y684830D01*
X371536Y685080D01*
X371522Y685205D01*
X371509Y685316D01*
X371488Y685413D01*
X371467Y685503D01*
Y685510D01*
X371460Y685524D01*
X371453Y685545D01*
X371446Y685572D01*
X371425Y685642D01*
X371391Y685732D01*
X371349Y685829D01*
X371300Y685920D01*
X371245Y686003D01*
X371182Y686065D01*
X371175Y686072D01*
X371155Y686086D01*
X371113Y686114D01*
X371071Y686142D01*
X371009Y686162D01*
X370939Y686190D01*
X370870Y686204D01*
X370787Y686211D01*
D02*
G37*
G36*
X365811D02*
X365776D01*
X365735Y686204D01*
X365679Y686190D01*
X365616Y686176D01*
X365547Y686149D01*
X365485Y686114D01*
X365415Y686065D01*
X365408Y686058D01*
X365388Y686037D01*
X365353Y686003D01*
X365318Y685947D01*
X365276Y685878D01*
X365228Y685795D01*
X365186Y685684D01*
X365145Y685559D01*
Y685552D01*
X365138Y685538D01*
X365131Y685510D01*
X365124Y685468D01*
X365117Y685413D01*
X365103Y685351D01*
X365096Y685267D01*
X365082Y685177D01*
X365068Y685073D01*
X365061Y684955D01*
X365047Y684823D01*
X365040Y684677D01*
X365034Y684525D01*
X365027Y684344D01*
X365020Y684157D01*
Y683955D01*
Y683942D01*
Y683907D01*
Y683851D01*
Y683775D01*
X365027Y683678D01*
Y683574D01*
Y683463D01*
X365034Y683338D01*
X365047Y683081D01*
X365068Y682824D01*
X365082Y682699D01*
X365096Y682588D01*
X365110Y682491D01*
X365131Y682401D01*
Y682394D01*
X365138Y682380D01*
X365145Y682359D01*
X365152Y682332D01*
X365172Y682262D01*
X365207Y682179D01*
X365249Y682082D01*
X365297Y681991D01*
X365353Y681908D01*
X365415Y681846D01*
X365422Y681839D01*
X365443Y681825D01*
X365485Y681804D01*
X365533Y681776D01*
X365589Y681749D01*
X365658Y681728D01*
X365727Y681714D01*
X365811Y681707D01*
X365845D01*
X365887Y681714D01*
X365943Y681728D01*
X366005Y681742D01*
X366074Y681763D01*
X366137Y681797D01*
X366206Y681846D01*
X366213Y681853D01*
X366234Y681874D01*
X366269Y681908D01*
X366303Y681964D01*
X366352Y682033D01*
X366394Y682116D01*
X366435Y682228D01*
X366477Y682352D01*
Y682359D01*
X366484Y682373D01*
X366491Y682401D01*
X366498Y682443D01*
X366505Y682498D01*
X366519Y682561D01*
X366533Y682637D01*
X366546Y682727D01*
X366553Y682831D01*
X366567Y682949D01*
X366581Y683081D01*
X366588Y683227D01*
X366595Y683386D01*
X366602Y683560D01*
X366609Y683754D01*
Y683955D01*
Y683969D01*
Y684004D01*
Y684060D01*
Y684136D01*
Y684226D01*
X366602Y684337D01*
Y684448D01*
X366595Y684573D01*
X366581Y684830D01*
X366560Y685080D01*
X366546Y685205D01*
X366533Y685316D01*
X366512Y685413D01*
X366491Y685503D01*
Y685510D01*
X366484Y685524D01*
X366477Y685545D01*
X366470Y685572D01*
X366449Y685642D01*
X366415Y685732D01*
X366373Y685829D01*
X366324Y685920D01*
X366269Y686003D01*
X366206Y686065D01*
X366199Y686072D01*
X366179Y686086D01*
X366137Y686114D01*
X366095Y686142D01*
X366033Y686162D01*
X365964Y686190D01*
X365894Y686204D01*
X365811Y686211D01*
D02*
G37*
G36*
X-42754Y321585D02*
X-42955D01*
X-42969D01*
X-43004D01*
X-43060D01*
X-43136D01*
X-43226D01*
X-43337Y321578D01*
X-43448D01*
X-43573Y321571D01*
X-43830Y321557D01*
X-44080Y321536D01*
X-44205Y321522D01*
X-44316Y321509D01*
X-44413Y321488D01*
X-44503Y321467D01*
X-44510D01*
X-44524Y321460D01*
X-44545Y321453D01*
X-44573Y321446D01*
X-44642Y321425D01*
X-44732Y321391D01*
X-44829Y321349D01*
X-44919Y321300D01*
X-45003Y321245D01*
X-45065Y321182D01*
X-45072Y321175D01*
X-45086Y321155D01*
X-45114Y321113D01*
X-45142Y321071D01*
X-45162Y321009D01*
X-45190Y320939D01*
X-45204Y320870D01*
X-45211Y320787D01*
Y320752D01*
X-45204Y320710D01*
X-45190Y320655D01*
X-45176Y320592D01*
X-45149Y320523D01*
X-45114Y320461D01*
X-45065Y320391D01*
X-45058Y320384D01*
X-45037Y320363D01*
X-45003Y320329D01*
X-44947Y320294D01*
X-44878Y320252D01*
X-44795Y320204D01*
X-44684Y320162D01*
X-44559Y320121D01*
X-44552D01*
X-44538Y320114D01*
X-44510Y320107D01*
X-44469Y320100D01*
X-44413Y320093D01*
X-44350Y320079D01*
X-44267Y320072D01*
X-44177Y320058D01*
X-44073Y320044D01*
X-43955Y320037D01*
X-43823Y320023D01*
X-43677Y320016D01*
X-43525Y320009D01*
X-43344Y320003D01*
X-43157Y319996D01*
X-42955D01*
X-42942D01*
X-42907D01*
X-42851D01*
X-42775D01*
X-42678Y320003D01*
X-42574D01*
X-42463D01*
X-42338Y320009D01*
X-42081Y320023D01*
X-41824Y320044D01*
X-41699Y320058D01*
X-41588Y320072D01*
X-41491Y320086D01*
X-41401Y320107D01*
X-41394D01*
X-41380Y320114D01*
X-41359Y320121D01*
X-41332Y320128D01*
X-41262Y320148D01*
X-41179Y320183D01*
X-41082Y320225D01*
X-40992Y320273D01*
X-40908Y320329D01*
X-40846Y320391D01*
X-40839Y320398D01*
X-40825Y320419D01*
X-40804Y320461D01*
X-40776Y320509D01*
X-40749Y320565D01*
X-40728Y320634D01*
X-40714Y320704D01*
X-40707Y320787D01*
Y320821D01*
X-40714Y320863D01*
X-40728Y320919D01*
X-40742Y320981D01*
X-40762Y321051D01*
X-40797Y321113D01*
X-40846Y321182D01*
X-40853Y321189D01*
X-40874Y321210D01*
X-40908Y321245D01*
X-40964Y321280D01*
X-41033Y321328D01*
X-41116Y321370D01*
X-41227Y321411D01*
X-41352Y321453D01*
X-41359D01*
X-41373Y321460D01*
X-41401Y321467D01*
X-41443Y321474D01*
X-41498Y321481D01*
X-41561Y321495D01*
X-41637Y321509D01*
X-41727Y321522D01*
X-41831Y321529D01*
X-41949Y321543D01*
X-42081Y321557D01*
X-42227Y321564D01*
X-42386Y321571D01*
X-42560Y321578D01*
X-42754Y321585D01*
D02*
G37*
G36*
Y316609D02*
X-42955D01*
X-42969D01*
X-43004D01*
X-43060D01*
X-43136D01*
X-43226D01*
X-43337Y316602D01*
X-43448D01*
X-43573Y316595D01*
X-43830Y316581D01*
X-44080Y316560D01*
X-44205Y316546D01*
X-44316Y316533D01*
X-44413Y316512D01*
X-44503Y316491D01*
X-44510D01*
X-44524Y316484D01*
X-44545Y316477D01*
X-44573Y316470D01*
X-44642Y316449D01*
X-44732Y316415D01*
X-44829Y316373D01*
X-44919Y316324D01*
X-45003Y316269D01*
X-45065Y316206D01*
X-45072Y316199D01*
X-45086Y316179D01*
X-45114Y316137D01*
X-45142Y316095D01*
X-45162Y316033D01*
X-45190Y315964D01*
X-45204Y315894D01*
X-45211Y315811D01*
Y315776D01*
X-45204Y315735D01*
X-45190Y315679D01*
X-45176Y315616D01*
X-45149Y315547D01*
X-45114Y315485D01*
X-45065Y315415D01*
X-45058Y315408D01*
X-45037Y315388D01*
X-45003Y315353D01*
X-44947Y315318D01*
X-44878Y315276D01*
X-44795Y315228D01*
X-44684Y315186D01*
X-44559Y315145D01*
X-44552D01*
X-44538Y315138D01*
X-44510Y315131D01*
X-44469Y315124D01*
X-44413Y315117D01*
X-44350Y315103D01*
X-44267Y315096D01*
X-44177Y315082D01*
X-44073Y315068D01*
X-43955Y315061D01*
X-43823Y315047D01*
X-43677Y315040D01*
X-43525Y315034D01*
X-43344Y315027D01*
X-43157Y315020D01*
X-42955D01*
X-42942D01*
X-42907D01*
X-42851D01*
X-42775D01*
X-42678Y315027D01*
X-42574D01*
X-42463D01*
X-42338Y315034D01*
X-42081Y315047D01*
X-41824Y315068D01*
X-41699Y315082D01*
X-41588Y315096D01*
X-41491Y315110D01*
X-41401Y315131D01*
X-41394D01*
X-41380Y315138D01*
X-41359Y315145D01*
X-41332Y315152D01*
X-41262Y315172D01*
X-41179Y315207D01*
X-41082Y315249D01*
X-40992Y315297D01*
X-40908Y315353D01*
X-40846Y315415D01*
X-40839Y315422D01*
X-40825Y315443D01*
X-40804Y315485D01*
X-40776Y315533D01*
X-40749Y315589D01*
X-40728Y315658D01*
X-40714Y315727D01*
X-40707Y315811D01*
Y315845D01*
X-40714Y315887D01*
X-40728Y315943D01*
X-40742Y316005D01*
X-40762Y316074D01*
X-40797Y316137D01*
X-40846Y316206D01*
X-40853Y316213D01*
X-40874Y316234D01*
X-40908Y316269D01*
X-40964Y316303D01*
X-41033Y316352D01*
X-41116Y316394D01*
X-41227Y316435D01*
X-41352Y316477D01*
X-41359D01*
X-41373Y316484D01*
X-41401Y316491D01*
X-41443Y316498D01*
X-41498Y316505D01*
X-41561Y316519D01*
X-41637Y316533D01*
X-41727Y316546D01*
X-41831Y316553D01*
X-41949Y316567D01*
X-42081Y316581D01*
X-42227Y316588D01*
X-42386Y316595D01*
X-42560Y316602D01*
X-42754Y316609D01*
D02*
G37*
G36*
X-41727Y306865D02*
X-41838D01*
X-41845D01*
X-41866D01*
X-41901D01*
X-41942Y306858D01*
X-41991D01*
X-42053Y306851D01*
X-42185Y306837D01*
X-42338Y306803D01*
X-42491Y306761D01*
X-42629Y306699D01*
X-42699Y306657D01*
X-42754Y306615D01*
X-42768Y306601D01*
X-42803Y306574D01*
X-42845Y306518D01*
X-42900Y306449D01*
X-42955Y306359D01*
X-42997Y306254D01*
X-43032Y306136D01*
X-43046Y306005D01*
Y305991D01*
X-43039Y305949D01*
X-43032Y305880D01*
X-43011Y305796D01*
X-42976Y305706D01*
X-42928Y305602D01*
X-42858Y305505D01*
X-42768Y305408D01*
X-42754Y305401D01*
X-42720Y305373D01*
X-42650Y305331D01*
X-42560Y305290D01*
X-42449Y305241D01*
X-42303Y305206D01*
X-42137Y305179D01*
X-41949Y305165D01*
X-41942D01*
X-41921D01*
X-41894D01*
X-41852Y305172D01*
X-41804D01*
X-41741Y305179D01*
X-41609Y305200D01*
X-41463Y305234D01*
X-41311Y305276D01*
X-41158Y305345D01*
X-41026Y305435D01*
X-41012Y305449D01*
X-40978Y305484D01*
X-40922Y305540D01*
X-40867Y305616D01*
X-40811Y305713D01*
X-40756Y305817D01*
X-40721Y305935D01*
X-40714Y306005D01*
X-40707Y306067D01*
Y306081D01*
X-40714Y306123D01*
X-40721Y306185D01*
X-40742Y306268D01*
X-40769Y306359D01*
X-40818Y306449D01*
X-40881Y306546D01*
X-40971Y306636D01*
X-40985Y306643D01*
X-41019Y306671D01*
X-41089Y306705D01*
X-41130Y306726D01*
X-41179Y306754D01*
X-41234Y306775D01*
X-41297Y306796D01*
X-41366Y306810D01*
X-41449Y306830D01*
X-41533Y306844D01*
X-41630Y306858D01*
X-41727Y306865D01*
D02*
G37*
%LPD*%
D10*
X0Y685000D02*
X6000Y687000D01*
X0Y685000D02*
X6000Y683000D01*
X744000D02*
X750000Y685000D01*
X744000Y687000D02*
X750000Y685000D01*
X0D02*
X352791D01*
X395209D02*
X750000D01*
X0Y651000D02*
Y686000D01*
X750000Y652000D02*
Y686000D01*
X-46000Y6000D02*
X-44000Y0D01*
X-42000Y6000D01*
X-44000Y650000D02*
X-42000Y644000D01*
X-46000D02*
X-44000Y650000D01*
Y0D02*
Y302791D01*
Y345209D02*
Y650000D01*
X-45000Y0D02*
X-1500D01*
X-45000Y650000D02*
X-2000D01*
X726293Y593209D02*
X725293Y594209D01*
Y596208D01*
X726293Y597208D01*
X727292D01*
X728292Y596208D01*
X729291Y597208D01*
X730291D01*
X731291Y596208D01*
Y594209D01*
X730291Y593209D01*
X729291D01*
X728292Y594209D01*
X727292Y593209D01*
X726293D01*
X728292Y594209D02*
Y596208D01*
X731391Y504109D02*
Y506109D01*
Y505109D01*
X725393D01*
X726392Y504109D01*
X375000Y512936D02*
X374147Y512083D01*
X372442D01*
X371589Y512936D01*
Y513789D01*
X372442Y514642D01*
X371589Y515494D01*
Y516347D01*
X372442Y517200D01*
X374147D01*
X375000Y516347D01*
Y515494D01*
X374147Y514642D01*
X375000Y513789D01*
Y512936D01*
X374147Y514642D02*
X372442D01*
X415389Y516500D02*
X418800D01*
X415389Y513089D01*
Y512236D01*
X416242Y511383D01*
X417947D01*
X418800Y512236D01*
X373900Y558883D02*
X370489D01*
Y559736D01*
X373900Y563147D01*
Y564000D01*
X417700Y563700D02*
X415995D01*
X416847D01*
Y558583D01*
X417700Y559436D01*
X478711Y548083D02*
X475300D01*
X478711Y551494D01*
Y552346D01*
X477858Y553199D01*
X476153D01*
X475300Y552346D01*
X476800Y522983D02*
X478506D01*
X477653D01*
Y528099D01*
X476800Y527246D01*
X354000Y295000D02*
Y296706D01*
Y295853D01*
X348884D01*
X349736Y295000D01*
D16*
X750250Y650000D02*
X750000Y650250D01*
X750250Y650000D02*
X750000Y650250D01*
Y-250D02*
X750250Y0D01*
X750000Y-250D02*
X750250Y0D01*
X0Y650250D02*
X-250Y650000D01*
X0Y650250D02*
X-250Y650000D01*
Y0D02*
X0Y-250D01*
X-250Y0D02*
X0Y-250D01*
X750250Y0D02*
Y650000D01*
X0Y650250D02*
X750000D01*
X0Y-250D02*
X750000D01*
X-250Y0D02*
Y650000D01*
D89*
X738347Y134693D02*
X738892Y134007D01*
X739768D01*
X740313Y134693D01*
Y169307D02*
X739768Y169993D01*
X738892D01*
X738347Y169307D01*
X716713Y134693D02*
X717259Y134007D01*
X718135D01*
X718680Y134693D01*
Y169307D02*
X718135Y169993D01*
X717259D01*
X716713Y169307D01*
X714353Y167143D02*
X750933D01*
X714353Y136857D02*
Y167143D01*
Y136857D02*
X750933D01*
Y167143D01*
X748180Y137053D02*
Y166947D01*
X740313Y134693D02*
Y136857D01*
X738347Y134693D02*
Y136857D01*
Y167143D02*
Y169307D01*
X740313Y167143D02*
Y169307D01*
X742280Y132530D02*
Y136857D01*
X736380Y132530D02*
X742280D01*
X736380D02*
Y136857D01*
X720647Y132530D02*
Y136857D01*
X714747Y132530D02*
X720647D01*
X714747D02*
Y136857D01*
X718680Y134693D02*
Y136857D01*
X716713Y134693D02*
Y136857D01*
X714747Y167143D02*
Y171470D01*
X720647D01*
Y167143D02*
Y171470D01*
X716713Y167143D02*
Y169307D01*
X718680Y167143D02*
Y169307D01*
X736380Y167143D02*
Y171470D01*
X742280D01*
Y167143D02*
Y171470D01*
X593106Y574104D02*
Y576604D01*
X592106Y574104D02*
X593106Y574104D01*
X592106Y574104D02*
Y576604D01*
X582803D02*
X594803D01*
Y581604D01*
X582803D02*
X594803D01*
X582803Y576604D02*
Y581604D01*
X585499Y574104D02*
Y576604D01*
X584500Y574104D02*
X585499Y574104D01*
X584500Y574104D02*
Y576604D01*
X588303Y581604D02*
Y584104D01*
X589303D01*
Y581604D02*
Y584104D01*
X273067Y439933D02*
Y442433D01*
X272067Y439933D02*
X273067Y439933D01*
X272067Y439933D02*
Y442433D01*
X262763D02*
X274763D01*
Y447433D01*
X262763D02*
X274763D01*
X262763Y442433D02*
Y447433D01*
X265460Y439933D02*
Y442433D01*
X264460Y439933D02*
X265460Y439933D01*
X264460Y439933D02*
Y442433D01*
X268263Y447433D02*
Y449933D01*
X269263D01*
Y447433D02*
Y449933D01*
X605967Y392697D02*
X608467D01*
X605967D02*
Y393697D01*
X608467D01*
Y391000D02*
Y403000D01*
Y391000D02*
X613467Y391000D01*
Y403000D01*
X608467Y403000D02*
X613467Y403000D01*
X605967Y400303D02*
X608467D01*
X605967D02*
Y401303D01*
X608467D01*
X613467Y397500D02*
X615967D01*
Y396500D02*
Y397500D01*
X613467Y396500D02*
X615967D01*
X606000Y414197D02*
X608500Y414197D01*
X606000Y414197D02*
X606000Y415197D01*
X608500D01*
X608500Y412500D02*
Y424500D01*
Y412500D02*
X613500D01*
Y424500D01*
X608500D02*
X613500D01*
X606000Y421803D02*
X608500D01*
X606000Y422803D02*
X606000Y421803D01*
X606000Y422803D02*
X608500Y422803D01*
X613500Y419000D02*
X616000D01*
Y418000D02*
Y419000D01*
X613500Y418000D02*
X616000D01*
X606000Y433697D02*
X608500Y433697D01*
X606000Y433697D02*
X606000Y434697D01*
X608500D01*
X608500Y432000D02*
Y444000D01*
Y432000D02*
X613500D01*
Y444000D01*
X608500D02*
X613500D01*
X606000Y441303D02*
X608500D01*
X606000Y442303D02*
X606000Y441303D01*
X606000Y442303D02*
X608500Y442303D01*
X613500Y438500D02*
X616000D01*
Y437500D02*
Y438500D01*
X613500Y437500D02*
X616000D01*
X582697Y597533D02*
Y600033D01*
X583697D01*
Y597533D02*
Y600033D01*
X581000Y597533D02*
X593000D01*
X581000Y592533D02*
Y597533D01*
Y592533D02*
X593000D01*
Y597533D01*
X590303D02*
Y600033D01*
X591303D01*
Y597533D02*
Y600033D01*
X587500Y590033D02*
Y592533D01*
X586500Y590033D02*
X587500D01*
X586500D02*
Y592533D01*
X387500Y397467D02*
Y399967D01*
X386500D02*
X387500D01*
X386500Y397467D02*
Y399967D01*
X382697Y389967D02*
Y392467D01*
Y389967D02*
X383697D01*
Y392467D01*
X381000D02*
Y397467D01*
X393000D01*
Y392467D02*
Y397467D01*
X381000Y392467D02*
X393000D01*
X390303Y389967D02*
Y392467D01*
Y389967D02*
X391303D01*
Y392467D01*
X407303Y389967D02*
Y392467D01*
X406303Y389967D02*
X407303D01*
X406303D02*
Y392467D01*
X397000D02*
X409000D01*
Y397467D01*
X397000D02*
X409000D01*
X397000Y392467D02*
Y397467D01*
X399697Y389967D02*
Y392467D01*
X398697Y389967D02*
X399697D01*
X398697D02*
Y392467D01*
X402500Y397467D02*
Y399967D01*
X403500D01*
Y397467D02*
Y399967D01*
X293467Y251500D02*
X295967D01*
Y252500D01*
X293467D02*
X295967D01*
X285967Y256303D02*
X288467D01*
X285967Y255303D02*
Y256303D01*
Y255303D02*
X288467D01*
Y258000D02*
X293467D01*
Y246000D02*
Y258000D01*
X288467Y246000D02*
X293467D01*
X288467D02*
Y258000D01*
X285967Y248697D02*
X288467D01*
X285967Y247697D02*
Y248697D01*
Y247697D02*
X288467D01*
X242303Y232967D02*
Y235467D01*
X241303Y232967D02*
X242303D01*
X241303D02*
Y235467D01*
X232000D02*
X244000D01*
Y240467D01*
X232000D02*
X244000D01*
X232000Y235467D02*
Y240467D01*
X234697Y232967D02*
Y235467D01*
X233697Y232967D02*
X234697D01*
X233697D02*
Y235467D01*
X237500Y240467D02*
Y242967D01*
X238500D01*
Y240467D02*
Y242967D01*
X81467Y478500D02*
X83967D01*
Y479500D01*
X81467D02*
X83967D01*
X73967Y483303D02*
X76467D01*
X73967Y482303D02*
Y483303D01*
Y482303D02*
X76467D01*
Y485000D02*
X81467D01*
Y473000D02*
Y485000D01*
X76467Y473000D02*
X81467D01*
X76467D02*
Y485000D01*
X73967Y475697D02*
X76467D01*
X73967Y474697D02*
Y475697D01*
Y474697D02*
X76467D01*
X263967Y247697D02*
X266467D01*
X263967D02*
Y248697D01*
X266467D01*
Y246000D02*
Y258000D01*
Y246000D02*
X271467D01*
Y258000D01*
X266467D02*
X271467D01*
X263967Y255303D02*
X266467D01*
X263967D02*
Y256303D01*
X266467D01*
X271467Y252500D02*
X273967D01*
Y251500D02*
Y252500D01*
X271467Y251500D02*
X273967D01*
X238500Y255467D02*
Y257967D01*
X237500D02*
X238500D01*
X237500Y255467D02*
Y257967D01*
X233697Y247967D02*
Y250467D01*
Y247967D02*
X234697D01*
Y250467D01*
X232000D02*
Y255467D01*
X244000D01*
Y250467D02*
Y255467D01*
X232000Y250467D02*
X244000D01*
X241303Y247967D02*
Y250467D01*
Y247967D02*
X242303D01*
Y250467D01*
X81533Y433303D02*
X84033D01*
Y432303D02*
Y433303D01*
X81533Y432303D02*
X84033D01*
X81533Y423000D02*
Y435000D01*
X76533D02*
X81533D01*
X76533Y423000D02*
Y435000D01*
Y423000D02*
X81533D01*
Y425697D02*
X84033D01*
Y424697D02*
Y425697D01*
X81533Y424697D02*
X84033D01*
X74033Y428500D02*
X76533D01*
X74033D02*
Y429500D01*
X76533D01*
X293467Y311500D02*
X295967D01*
Y312500D01*
X293467D02*
X295967D01*
X285967Y316303D02*
X288467D01*
X285967Y315303D02*
Y316303D01*
Y315303D02*
X288467D01*
Y318000D02*
X293467D01*
Y306000D02*
Y318000D01*
X288467Y306000D02*
X293467D01*
X288467D02*
Y318000D01*
X285967Y308697D02*
X288467D01*
X285967Y307697D02*
Y308697D01*
Y307697D02*
X288467D01*
X242303Y292967D02*
Y295467D01*
X241303Y292967D02*
X242303D01*
X241303D02*
Y295467D01*
X232000D02*
X244000D01*
Y300467D01*
X232000D02*
X244000D01*
X232000Y295467D02*
Y300467D01*
X234697Y292967D02*
Y295467D01*
X233697Y292967D02*
X234697D01*
X233697D02*
Y295467D01*
X237500Y300467D02*
Y302967D01*
X238500D01*
Y300467D02*
Y302967D01*
X169500Y140467D02*
Y142967D01*
X168500D02*
X169500D01*
X168500Y140467D02*
Y142967D01*
X164697Y132967D02*
Y135467D01*
Y132967D02*
X165697D01*
Y135467D01*
X163000D02*
Y140467D01*
X175000D01*
Y135467D02*
Y140467D01*
X163000Y135467D02*
X175000D01*
X172303Y132967D02*
Y135467D01*
Y132967D02*
X173303D01*
Y135467D01*
X263967Y307697D02*
X266467D01*
X263967D02*
Y308697D01*
X266467D01*
Y306000D02*
Y318000D01*
Y306000D02*
X271467D01*
Y318000D01*
X266467D02*
X271467D01*
X263967Y315303D02*
X266467D01*
X263967D02*
Y316303D01*
X266467D01*
X271467Y312500D02*
X273967D01*
Y311500D02*
Y312500D01*
X271467Y311500D02*
X273967D01*
X238500Y314467D02*
Y316967D01*
X237500D02*
X238500D01*
X237500Y314467D02*
Y316967D01*
X233697Y306967D02*
Y309467D01*
Y306967D02*
X234697D01*
Y309467D01*
X232000D02*
Y314467D01*
X244000D01*
Y309467D02*
Y314467D01*
X232000Y309467D02*
X244000D01*
X241303Y306967D02*
Y309467D01*
Y306967D02*
X242303D01*
Y309467D01*
X172303Y261967D02*
Y264467D01*
X171303Y261967D02*
X172303D01*
X171303D02*
Y264467D01*
X162000D02*
X174000D01*
Y269467D01*
X162000D02*
X174000D01*
X162000Y264467D02*
Y269467D01*
X164697Y261967D02*
Y264467D01*
X163697Y261967D02*
X164697D01*
X163697D02*
Y264467D01*
X167500Y269467D02*
Y271967D01*
X168500D01*
Y269467D02*
Y271967D01*
X294433Y371763D02*
X296933D01*
Y372763D01*
X294433D02*
X296933D01*
X286933Y376567D02*
X289433D01*
X286933Y375567D02*
Y376567D01*
Y375567D02*
X289433D01*
Y378263D02*
X294433D01*
Y366263D02*
Y378263D01*
X289433Y366263D02*
X294433D01*
X289433D02*
Y378263D01*
X286933Y368960D02*
X289433D01*
X286933Y367960D02*
Y368960D01*
Y367960D02*
X289433D01*
X242303Y353967D02*
Y356467D01*
X241303Y353967D02*
X242303D01*
X241303D02*
Y356467D01*
X232000D02*
X244000D01*
Y361467D01*
X232000D02*
X244000D01*
X232000Y356467D02*
Y361467D01*
X234697Y353967D02*
Y356467D01*
X233697Y353967D02*
X234697D01*
X233697D02*
Y356467D01*
X237500Y361467D02*
Y363967D01*
X238500D01*
Y361467D02*
Y363967D01*
X171500Y407467D02*
Y409967D01*
X170500D02*
X171500D01*
X170500Y407467D02*
Y409967D01*
X166697Y399967D02*
Y402467D01*
Y399967D02*
X167697D01*
Y402467D01*
X165000D02*
Y407467D01*
X177000D01*
Y402467D02*
Y407467D01*
X165000Y402467D02*
X177000D01*
X174303Y399967D02*
Y402467D01*
Y399967D02*
X175303D01*
Y402467D01*
X264467Y368697D02*
X266967D01*
X264467D02*
Y369697D01*
X266967D01*
Y367000D02*
Y379000D01*
Y367000D02*
X271967D01*
Y379000D01*
X266967D02*
X271967D01*
X264467Y376303D02*
X266967D01*
X264467D02*
Y377303D01*
X266967D01*
X271967Y373500D02*
X274467D01*
Y372500D02*
Y373500D01*
X271967Y372500D02*
X274467D01*
X238500Y375467D02*
Y377967D01*
X237500D02*
X238500D01*
X237500Y375467D02*
Y377967D01*
X233697Y367967D02*
Y370467D01*
Y367967D02*
X234697D01*
Y370467D01*
X232000D02*
Y375467D01*
X244000D01*
Y370467D02*
Y375467D01*
X232000Y370467D02*
X244000D01*
X241303Y367967D02*
Y370467D01*
Y367967D02*
X242303D01*
Y370467D01*
X100303Y493967D02*
Y496467D01*
X99303Y493967D02*
X100303D01*
X99303D02*
Y496467D01*
X90000D02*
X102000D01*
Y501467D01*
X90000D02*
X102000D01*
X90000Y496467D02*
Y501467D01*
X92697Y493967D02*
Y496467D01*
X91697Y493967D02*
X92697D01*
X91697D02*
Y496467D01*
X95500Y501467D02*
Y503967D01*
X96500D01*
Y501467D02*
Y503967D01*
X171500Y500467D02*
Y502967D01*
X170500D02*
X171500D01*
X170500Y500467D02*
Y502967D01*
X166697Y492967D02*
Y495467D01*
Y492967D02*
X167697D01*
Y495467D01*
X165000D02*
Y500467D01*
X177000D01*
Y495467D02*
Y500467D01*
X165000Y495467D02*
X177000D01*
X174303Y492967D02*
Y495467D01*
Y492967D02*
X175303D01*
Y495467D01*
D90*
X544039Y187197D02*
X543968Y188193D01*
X543755Y189169D01*
X543406Y190104D01*
X542928Y190981D01*
X542329Y191781D01*
X541623Y192487D01*
X540823Y193085D01*
X539947Y193564D01*
X539011Y193913D01*
X538035Y194125D01*
X537039Y194197D01*
X536043Y194125D01*
X535067Y193913D01*
X534131Y193564D01*
X533254Y193085D01*
X532455Y192487D01*
X531749Y191781D01*
X531150Y190981D01*
X530671Y190104D01*
X530322Y189169D01*
X530110Y188193D01*
X530039Y187197D01*
Y153197D02*
X530110Y152200D01*
X530322Y151225D01*
X530671Y150289D01*
X531150Y149412D01*
X531749Y148613D01*
X532455Y147906D01*
X533254Y147308D01*
X534131Y146829D01*
X535067Y146480D01*
X536043Y146268D01*
X537039Y146197D01*
X538035Y146268D01*
X539011Y146480D01*
X539947Y146829D01*
X540823Y147308D01*
X541623Y147906D01*
X542329Y148613D01*
X542928Y149412D01*
X543406Y150289D01*
X543755Y151225D01*
X543968Y152200D01*
X544039Y153197D01*
X636429Y65776D02*
X652571D01*
X657492Y70697D01*
Y91760D01*
X631508D02*
X657492D01*
X631508Y70697D02*
Y91760D01*
Y70697D02*
X636429Y65776D01*
X333008Y63571D02*
X337929Y68492D01*
X358992D01*
Y42508D02*
Y68492D01*
X337929Y42508D02*
X358992D01*
X333008Y47429D02*
X337929Y42508D01*
X333008Y47429D02*
Y63571D01*
X160689Y305904D02*
X163489D01*
X160689D02*
Y309104D01*
X163489D01*
X153578Y300519D02*
X163489D01*
X153578Y296320D02*
X163478Y296320D01*
X153578Y300519D02*
X153578Y296320D01*
Y314420D02*
Y318619D01*
Y314420D02*
X163478D01*
X153578Y318619D02*
X163489D01*
X187989Y296704D02*
X187989Y294204D01*
X163489D02*
X187989D01*
X163489D02*
Y320804D01*
X187989D01*
X187989Y318304D02*
X187989Y320804D01*
X187989Y318304D02*
X191889D01*
X192989Y317204D01*
Y297804D02*
Y317204D01*
X191889Y296704D02*
X192989Y297804D01*
X187989Y296704D02*
X191889D01*
X187989D02*
Y318304D01*
X170189Y307504D02*
X194189D01*
X527039Y197697D02*
X547039D01*
Y142697D02*
Y197697D01*
X527039Y142697D02*
X547039D01*
X527039D02*
Y197697D01*
X530039Y153197D02*
Y187197D01*
X544039Y153197D02*
Y187197D01*
X415100Y522800D02*
Y551100D01*
X375000Y522800D02*
Y551100D01*
X415100D01*
X375000Y522800D02*
X415100D01*
X481000Y522883D02*
Y551183D01*
X494400D01*
X481000Y522883D02*
X506662D01*
X494400Y551183D02*
X511100D01*
Y522883D02*
Y551183D01*
X506662Y522883D02*
X511100D01*
X362000Y215500D02*
X386000D01*
X379800Y204700D02*
Y226300D01*
Y204700D02*
X383700D01*
X384800Y205800D01*
Y225200D01*
X383700Y226300D02*
X384800Y225200D01*
X379800Y226300D02*
X383700D01*
X379800D02*
X379800Y228800D01*
X355300D02*
X379800D01*
X355300Y202200D02*
Y228800D01*
Y202200D02*
X379800D01*
X379800Y204700D02*
X379800Y202200D01*
X345389Y226616D02*
X355300D01*
X345389Y222416D02*
X355289D01*
X345389D02*
Y226616D01*
X345389Y208516D02*
X345389Y204316D01*
X355289Y204316D01*
X345389Y208516D02*
X355300D01*
X352500Y217100D02*
X355300D01*
X352500Y213900D02*
Y217100D01*
Y213900D02*
X355300D01*
D91*
X733430Y143740D02*
X743853D01*
X744050Y143543D01*
Y141970D02*
Y143543D01*
X743853Y141773D02*
X744050Y141970D01*
X733430Y141773D02*
X743853D01*
X731267Y156432D02*
X744050Y157113D01*
X731267Y147568D02*
Y156432D01*
Y147568D02*
X744050Y146887D01*
X733430Y162227D02*
X743853D01*
X744050Y162030D01*
Y160457D02*
Y162030D01*
X743853Y160260D02*
X744050Y160457D01*
X733430Y160260D02*
X743853D01*
D92*
X686807Y504032D02*
Y507969D01*
X675095D02*
X686807D01*
X675095Y504032D02*
X686807D01*
X675095D02*
Y507969D01*
X682000Y501000D02*
Y504000D01*
X680000Y501000D02*
Y504000D01*
Y501000D02*
X682000D01*
X683500Y508000D02*
Y511000D01*
X686000D01*
Y508000D02*
Y511000D01*
X678500Y508000D02*
Y511000D01*
X676000D02*
X678500D01*
X676000Y508000D02*
Y511000D01*
Y490000D02*
Y493000D01*
X678500D01*
Y490000D02*
Y493000D01*
X686000Y490000D02*
Y493000D01*
X683500D02*
X686000D01*
X683500Y490000D02*
Y493000D01*
X680000Y483000D02*
X682000D01*
X680000D02*
Y486000D01*
X682000Y483000D02*
Y486000D01*
X675095Y486031D02*
Y489968D01*
Y486031D02*
X686807D01*
X675095Y489968D02*
X686807D01*
Y486031D02*
Y489968D01*
Y468032D02*
Y471969D01*
X675095D02*
X686807D01*
X675095Y468032D02*
X686807D01*
X675095D02*
Y471969D01*
X682000Y465000D02*
Y468000D01*
X680000Y465000D02*
Y468000D01*
Y465000D02*
X682000D01*
X683500Y472000D02*
Y475000D01*
X686000D01*
Y472000D02*
Y475000D01*
X678500Y472000D02*
Y475000D01*
X676000D02*
X678500D01*
X676000Y472000D02*
Y475000D01*
X677000Y454000D02*
Y457000D01*
X679500D01*
Y454000D02*
Y457000D01*
X687000Y454000D02*
Y457000D01*
X684500D02*
X687000D01*
X684500Y454000D02*
Y457000D01*
X681000Y447000D02*
X683000D01*
X681000D02*
Y450000D01*
X683000Y447000D02*
Y450000D01*
X676094Y450032D02*
Y453968D01*
Y450032D02*
X687807D01*
X676094Y453968D02*
X687807D01*
Y450032D02*
Y453968D01*
X686807Y432031D02*
Y435968D01*
X675095D02*
X686807D01*
X675095Y432031D02*
X686807D01*
X675095D02*
Y435968D01*
X682000Y429000D02*
Y432000D01*
X680000Y429000D02*
Y432000D01*
Y429000D02*
X682000D01*
X683500Y436000D02*
Y439000D01*
X686000D01*
Y436000D02*
Y439000D01*
X678500Y436000D02*
Y439000D01*
X676000D02*
X678500D01*
X676000Y436000D02*
Y439000D01*
Y417000D02*
Y420000D01*
X678500D01*
Y417000D02*
Y420000D01*
X686000Y417000D02*
Y420000D01*
X683500D02*
X686000D01*
X683500Y417000D02*
Y420000D01*
X680000Y410000D02*
X682000D01*
X680000D02*
Y413000D01*
X682000Y410000D02*
Y413000D01*
X675095Y413031D02*
Y416968D01*
Y413031D02*
X686807D01*
X675095Y416968D02*
X686807D01*
Y413031D02*
Y416968D01*
X687807Y394032D02*
Y397969D01*
X676094D02*
X687807D01*
X676094Y394032D02*
X687807D01*
X676094D02*
Y397969D01*
X683000Y391000D02*
Y394000D01*
X681000Y391000D02*
Y394000D01*
Y391000D02*
X683000D01*
X684500Y398000D02*
Y401000D01*
X687000D01*
Y398000D02*
Y401000D01*
X679500Y398000D02*
Y401000D01*
X677000D02*
X679500D01*
X677000Y398000D02*
Y401000D01*
X601000Y510000D02*
Y513000D01*
X603500D01*
Y510000D02*
Y513000D01*
X611000Y510000D02*
Y513000D01*
X608500D02*
X611000D01*
X608500Y510000D02*
Y513000D01*
X605000Y503000D02*
X607000D01*
X605000D02*
Y506000D01*
X607000Y503000D02*
Y506000D01*
X600095Y506032D02*
Y509969D01*
Y506032D02*
X611807D01*
X600095Y509969D02*
X611807D01*
Y506032D02*
Y509969D01*
Y486031D02*
Y489968D01*
X600095D02*
X611807D01*
X600095Y486031D02*
X611807D01*
X600095D02*
Y489968D01*
X607000Y483000D02*
Y486000D01*
X605000Y483000D02*
Y486000D01*
Y483000D02*
X607000D01*
X608500Y490000D02*
Y493000D01*
X611000D01*
Y490000D02*
Y493000D01*
X603500Y490000D02*
Y493000D01*
X601000D02*
X603500D01*
X601000Y490000D02*
Y493000D01*
Y471000D02*
Y474000D01*
X603500D01*
Y471000D02*
Y474000D01*
X611000Y471000D02*
Y474000D01*
X608500D02*
X611000D01*
X608500Y471000D02*
Y474000D01*
X605000Y464000D02*
X607000D01*
X605000D02*
Y467000D01*
X607000Y464000D02*
Y467000D01*
X600095Y467031D02*
Y470968D01*
Y467031D02*
X611807D01*
X600095Y470968D02*
X611807D01*
Y467031D02*
Y470968D01*
X697532Y567693D02*
X701469D01*
Y579405D01*
X697532Y567693D02*
Y579405D01*
X701469D01*
X694500Y572500D02*
X697500D01*
X694500Y574500D02*
X697500D01*
X694500Y572500D02*
Y574500D01*
X701500Y571000D02*
X704500D01*
Y568500D02*
Y571000D01*
X701500Y568500D02*
X704500D01*
X701500Y576000D02*
X704500D01*
Y578500D01*
X701500D02*
X704500D01*
X343000Y506000D02*
X346000D01*
Y503500D02*
Y506000D01*
X343000Y503500D02*
X346000D01*
X343000Y496000D02*
X346000D01*
Y498500D01*
X343000D02*
X346000D01*
X336000Y500000D02*
Y502000D01*
X339000D01*
X336000Y500000D02*
X339000D01*
X339032Y506906D02*
X342969D01*
X339032Y495193D02*
Y506906D01*
X342969Y495193D02*
Y506906D01*
X339032Y495193D02*
X342969D01*
X375031Y496193D02*
X378969D01*
Y507905D01*
X375031Y496193D02*
Y507905D01*
X378969D01*
X372000Y501000D02*
X375000D01*
X372000Y503000D02*
X375000D01*
X372000Y501000D02*
Y503000D01*
X379000Y499500D02*
X382000D01*
Y497000D02*
Y499500D01*
X379000Y497000D02*
X382000D01*
X379000Y504500D02*
X382000D01*
Y507000D01*
X379000D02*
X382000D01*
X415000D02*
X418000D01*
Y504500D02*
Y507000D01*
X415000Y504500D02*
X418000D01*
X415000Y497000D02*
X418000D01*
Y499500D01*
X415000D02*
X418000D01*
X408000Y501000D02*
Y503000D01*
X411000D01*
X408000Y501000D02*
X411000D01*
X411031Y507905D02*
X414968D01*
X411031Y496193D02*
Y507905D01*
X414968Y496193D02*
Y507905D01*
X411031Y496193D02*
X414968D01*
X625768Y583032D02*
Y586969D01*
X614055D02*
X625768D01*
X614055Y583032D02*
X625768D01*
X614055D02*
Y586969D01*
X620961Y580000D02*
Y583000D01*
X618961Y580000D02*
Y583000D01*
Y580000D02*
X620961D01*
X622461Y587000D02*
Y590000D01*
X624961D01*
Y587000D02*
Y590000D01*
X617460Y587000D02*
Y590000D01*
X614960D02*
X617460D01*
X614960Y587000D02*
Y590000D01*
X703000Y217000D02*
Y220000D01*
X705500D01*
Y217000D02*
Y220000D01*
X713000Y217000D02*
Y220000D01*
X710500D02*
X713000D01*
X710500Y217000D02*
Y220000D01*
X707000Y210000D02*
X709000D01*
X707000D02*
Y213000D01*
X709000Y210000D02*
Y213000D01*
X702095Y213032D02*
Y216968D01*
Y213032D02*
X713807D01*
X702095Y216968D02*
X713807D01*
Y213032D02*
Y216968D01*
X658807Y213032D02*
Y216968D01*
X647094D02*
X658807D01*
X647094Y213032D02*
X658807D01*
X647094D02*
Y216968D01*
X654000Y210000D02*
Y213000D01*
X652000Y210000D02*
Y213000D01*
Y210000D02*
X654000D01*
X655500Y217000D02*
Y220000D01*
X658000D01*
Y217000D02*
Y220000D01*
X650500Y217000D02*
Y220000D01*
X648000D02*
X650500D01*
X648000Y217000D02*
Y220000D01*
Y281000D02*
Y284000D01*
X650500D01*
Y281000D02*
Y284000D01*
X658000Y281000D02*
Y284000D01*
X655500D02*
X658000D01*
X655500Y281000D02*
Y284000D01*
X652000Y274000D02*
X654000D01*
X652000D02*
Y277000D01*
X654000Y274000D02*
Y277000D01*
X647094Y277031D02*
Y280968D01*
Y277031D02*
X658807D01*
X647094Y280968D02*
X658807D01*
Y277031D02*
Y280968D01*
X713807Y277031D02*
Y280968D01*
X702095D02*
X713807D01*
X702095Y277031D02*
X713807D01*
X702095D02*
Y280968D01*
X709000Y274000D02*
Y277000D01*
X707000Y274000D02*
Y277000D01*
Y274000D02*
X709000D01*
X710500Y281000D02*
Y284000D01*
X713000D01*
Y281000D02*
Y284000D01*
X705500Y281000D02*
Y284000D01*
X703000D02*
X705500D01*
X703000Y281000D02*
Y284000D01*
X648000Y354000D02*
Y357000D01*
X650500D01*
Y354000D02*
Y357000D01*
X658000Y354000D02*
Y357000D01*
X655500D02*
X658000D01*
X655500Y354000D02*
Y357000D01*
X652000Y347000D02*
X654000D01*
X652000D02*
Y350000D01*
X654000Y347000D02*
Y350000D01*
X647094Y350031D02*
Y353969D01*
Y350031D02*
X658807D01*
X647094Y353969D02*
X658807D01*
Y350031D02*
Y353969D01*
X713807Y350031D02*
Y353969D01*
X702095D02*
X713807D01*
X702095Y350031D02*
X713807D01*
X702095D02*
Y353969D01*
X709000Y347000D02*
Y350000D01*
X707000Y347000D02*
Y350000D01*
Y347000D02*
X709000D01*
X710500Y354000D02*
Y357000D01*
X713000D01*
Y354000D02*
Y357000D01*
X705500Y354000D02*
Y357000D01*
X703000D02*
X705500D01*
X703000Y354000D02*
Y357000D01*
X660032Y583807D02*
X663969D01*
X660032Y572094D02*
Y583807D01*
X663969Y572094D02*
Y583807D01*
X660032Y572094D02*
X663969D01*
X664000Y579000D02*
X667000D01*
X664000Y577000D02*
X667000D01*
Y579000D01*
X657000Y580500D02*
X660000D01*
X657000D02*
Y583000D01*
X660000D01*
X657000Y575500D02*
X660000D01*
X657000Y573000D02*
Y575500D01*
Y573000D02*
X660000D01*
X451000Y507000D02*
X454000D01*
Y504500D02*
Y507000D01*
X451000Y504500D02*
X454000D01*
X451000Y497000D02*
X454000D01*
Y499500D01*
X451000D02*
X454000D01*
X444000Y501000D02*
Y503000D01*
X447000D01*
X444000Y501000D02*
X447000D01*
X447031Y507905D02*
X450969D01*
X447031Y496193D02*
Y507905D01*
X450969Y496193D02*
Y507905D01*
X447031Y496193D02*
X450969D01*
X335807Y209032D02*
Y212968D01*
X324095D02*
X335807D01*
X324095Y209032D02*
X335807D01*
X324095D02*
Y212968D01*
X331000Y206000D02*
Y209000D01*
X329000Y206000D02*
Y209000D01*
Y206000D02*
X331000D01*
X332500Y213000D02*
Y216000D01*
X335000D01*
Y213000D02*
Y216000D01*
X327500Y213000D02*
Y216000D01*
X325000D02*
X327500D01*
X325000Y213000D02*
Y216000D01*
M02*
