G04*
G04 #@! TF.GenerationSoftware,Altium Limited,Altium Designer,19.0.10 (269)*
G04*
G04 Layer_Color=255*
%FSLAX25Y25*%
%MOIN*%
G70*
G01*
G75*
%ADD24R,0.08000X0.08000*%
%ADD64C,0.08000*%
%ADD65C,0.06000*%
%ADD66R,0.08000X0.08000*%
%ADD67R,0.07480X0.07480*%
%ADD68C,0.07480*%
%ADD69C,0.06299*%
%ADD70C,0.10000*%
%ADD71C,0.12000*%
%ADD72C,0.09055*%
%ADD73C,0.07874*%
%ADD74P,0.08523X8X292.5*%
%ADD75C,0.05906*%
%ADD76R,0.05906X0.05906*%
%ADD77C,0.07000*%
%ADD78C,0.25000*%
%ADD79C,0.03900*%
D24*
X561500Y624500D02*
D03*
X623000Y623500D02*
D03*
D64*
X727530Y160653D02*
D03*
Y143347D02*
D03*
X411500Y624500D02*
D03*
X421500D02*
D03*
X431500Y624500D02*
D03*
X441500Y624500D02*
D03*
X451500Y624500D02*
D03*
X461500Y624500D02*
D03*
X471500D02*
D03*
X481500Y624500D02*
D03*
X491500D02*
D03*
X501500Y624500D02*
D03*
X511500D02*
D03*
X521500Y624500D02*
D03*
X531500D02*
D03*
X541500D02*
D03*
X551500Y624500D02*
D03*
X728799Y372394D02*
D03*
Y362394D02*
D03*
Y352394D02*
D03*
Y342394D02*
D03*
Y332394D02*
D03*
X729000Y408600D02*
D03*
Y478600D02*
D03*
Y468600D02*
D03*
Y458600D02*
D03*
Y448600D02*
D03*
Y438600D02*
D03*
Y428600D02*
D03*
Y418600D02*
D03*
X583000Y623500D02*
D03*
X593000D02*
D03*
X603000D02*
D03*
X613000D02*
D03*
X728391Y585109D02*
D03*
Y575109D02*
D03*
Y565109D02*
D03*
Y555109D02*
D03*
Y545109D02*
D03*
Y535109D02*
D03*
Y525109D02*
D03*
X674500Y372500D02*
D03*
Y362500D02*
D03*
Y352500D02*
D03*
Y342500D02*
D03*
Y332500D02*
D03*
X674000Y294500D02*
D03*
Y284500D02*
D03*
Y274500D02*
D03*
Y264500D02*
D03*
X728500Y294500D02*
D03*
Y284500D02*
D03*
Y274500D02*
D03*
Y264500D02*
D03*
X728500Y228500D02*
D03*
Y218500D02*
D03*
Y208500D02*
D03*
X674000Y228500D02*
D03*
Y218500D02*
D03*
Y208500D02*
D03*
D65*
X182000Y307600D02*
D03*
X71850Y401167D02*
D03*
X85000Y331000D02*
D03*
X269500Y19500D02*
D03*
X254000D02*
D03*
X269494Y79519D02*
D03*
X254100D02*
D03*
X182500Y44449D02*
D03*
X182031Y82654D02*
D03*
X182000Y180500D02*
D03*
X204031Y102618D02*
D03*
X190500D02*
D03*
X177540D02*
D03*
X204531Y72154D02*
D03*
X182500Y25933D02*
D03*
X208500Y27449D02*
D03*
Y39949D02*
D03*
Y52349D02*
D03*
X209000Y165500D02*
D03*
Y177000D02*
D03*
X209500Y189949D02*
D03*
X265000Y49000D02*
D03*
X182000Y218500D02*
D03*
X209500Y208933D02*
D03*
Y236000D02*
D03*
X191000Y237500D02*
D03*
X174000D02*
D03*
X210500Y294500D02*
D03*
Y308000D02*
D03*
Y321000D02*
D03*
X202500Y370500D02*
D03*
X187500Y370600D02*
D03*
X173500Y370500D02*
D03*
X181500Y348100D02*
D03*
X84000Y35000D02*
D03*
X84189Y65000D02*
D03*
X85189Y95056D02*
D03*
X84500Y171000D02*
D03*
Y200600D02*
D03*
X85189Y231000D02*
D03*
X84000Y255500D02*
D03*
X85000Y360000D02*
D03*
X85189Y136056D02*
D03*
X67000Y136600D02*
D03*
X46500Y137600D02*
D03*
X66000Y196600D02*
D03*
X59500Y207416D02*
D03*
X93500Y264500D02*
D03*
X75300Y265067D02*
D03*
X85000Y301000D02*
D03*
X59000Y307090D02*
D03*
Y295100D02*
D03*
Y334600D02*
D03*
Y325036D02*
D03*
X92568Y401167D02*
D03*
X82568D02*
D03*
X11500Y408100D02*
D03*
X22489D02*
D03*
X32489D02*
D03*
X11511Y448100D02*
D03*
X22500D02*
D03*
X32500D02*
D03*
X11500Y457100D02*
D03*
X22489D02*
D03*
X32489D02*
D03*
X32500Y497100D02*
D03*
X22500D02*
D03*
X11511D02*
D03*
D66*
X728799Y322394D02*
D03*
X729000Y398600D02*
D03*
X728391Y515109D02*
D03*
X674500Y322500D02*
D03*
X674000Y254500D02*
D03*
X728500D02*
D03*
X728500Y198500D02*
D03*
X674000D02*
D03*
D67*
X226000Y627000D02*
D03*
D68*
Y617000D02*
D03*
Y607000D02*
D03*
Y597000D02*
D03*
Y587000D02*
D03*
Y577000D02*
D03*
Y567000D02*
D03*
Y557000D02*
D03*
X316000D02*
D03*
Y567000D02*
D03*
Y577000D02*
D03*
Y587000D02*
D03*
Y597000D02*
D03*
Y607000D02*
D03*
Y617000D02*
D03*
Y627000D02*
D03*
D69*
X380000Y532000D02*
D03*
Y542000D02*
D03*
X390000Y532000D02*
D03*
Y542000D02*
D03*
X400000Y532000D02*
D03*
Y542000D02*
D03*
X410000D02*
D03*
Y532000D02*
D03*
X506000Y542083D02*
D03*
Y532083D02*
D03*
X496000Y542083D02*
D03*
Y532083D02*
D03*
X486000Y542083D02*
D03*
Y532083D02*
D03*
D70*
X460500Y175290D02*
D03*
Y86710D02*
D03*
X407000D02*
D03*
Y175290D02*
D03*
D71*
X99000Y614000D02*
D03*
X79000D02*
D03*
X654465Y621827D02*
D03*
X671000D02*
D03*
X687535D02*
D03*
Y600173D02*
D03*
X671000D02*
D03*
X654465D02*
D03*
X189000Y613000D02*
D03*
X169000D02*
D03*
X149000D02*
D03*
X421000Y50000D02*
D03*
X441000D02*
D03*
X461000D02*
D03*
D72*
X707094Y55134D02*
D03*
Y106866D02*
D03*
X315000Y302000D02*
D03*
X335000D02*
D03*
X315000Y314500D02*
D03*
X335000D02*
D03*
D73*
X46000Y64000D02*
D03*
Y94000D02*
D03*
Y79000D02*
D03*
Y206000D02*
D03*
Y221000D02*
D03*
Y191000D02*
D03*
Y176000D02*
D03*
Y319000D02*
D03*
Y334000D02*
D03*
Y364000D02*
D03*
Y349000D02*
D03*
Y304000D02*
D03*
D74*
Y109000D02*
D03*
Y236000D02*
D03*
Y379000D02*
D03*
D75*
X130000Y491000D02*
D03*
X140000D02*
D03*
D76*
X150000D02*
D03*
D77*
X552000Y27000D02*
D03*
X535000D02*
D03*
X520000D02*
D03*
X504000D02*
D03*
D78*
X375000Y20000D02*
D03*
X21000Y628000D02*
D03*
X375000D02*
D03*
X729000Y20000D02*
D03*
X728000Y627000D02*
D03*
X21000Y20000D02*
D03*
D79*
X329000Y322000D02*
D03*
X321000D02*
D03*
X325000Y302000D02*
D03*
M02*
