G04*
G04 #@! TF.GenerationSoftware,Altium Limited,Altium Designer,19.0.10 (269)*
G04*
G04 Layer_Color=255*
%FSLAX25Y25*%
%MOIN*%
G70*
G01*
G75*
%ADD21R,0.09053X0.01967*%
%ADD22R,0.09053X0.07873*%
%ADD23C,0.03937*%
%ADD24R,0.08000X0.08000*%
%ADD25R,0.03150X0.03543*%
%ADD26R,0.03543X0.03150*%
%ADD27R,0.03000X0.04000*%
%ADD28R,0.04000X0.03000*%
G04:AMPARAMS|DCode=29|XSize=39.37mil|YSize=125.98mil|CornerRadius=9.84mil|HoleSize=0mil|Usage=FLASHONLY|Rotation=270.000|XOffset=0mil|YOffset=0mil|HoleType=Round|Shape=RoundedRectangle|*
%AMROUNDEDRECTD29*
21,1,0.03937,0.10630,0,0,270.0*
21,1,0.01968,0.12598,0,0,270.0*
1,1,0.01968,-0.05315,-0.00984*
1,1,0.01968,-0.05315,0.00984*
1,1,0.01968,0.05315,0.00984*
1,1,0.01968,0.05315,-0.00984*
%
%ADD29ROUNDEDRECTD29*%
%ADD30R,0.06299X0.12008*%
G04:AMPARAMS|DCode=31|XSize=27.56mil|YSize=49.21mil|CornerRadius=6.89mil|HoleSize=0mil|Usage=FLASHONLY|Rotation=90.000|XOffset=0mil|YOffset=0mil|HoleType=Round|Shape=RoundedRectangle|*
%AMROUNDEDRECTD31*
21,1,0.02756,0.03543,0,0,90.0*
21,1,0.01378,0.04921,0,0,90.0*
1,1,0.01378,0.01772,0.00689*
1,1,0.01378,0.01772,-0.00689*
1,1,0.01378,-0.01772,-0.00689*
1,1,0.01378,-0.01772,0.00689*
%
%ADD31ROUNDEDRECTD31*%
G04:AMPARAMS|DCode=32|XSize=27.56mil|YSize=49.21mil|CornerRadius=6.89mil|HoleSize=0mil|Usage=FLASHONLY|Rotation=180.000|XOffset=0mil|YOffset=0mil|HoleType=Round|Shape=RoundedRectangle|*
%AMROUNDEDRECTD32*
21,1,0.02756,0.03543,0,0,180.0*
21,1,0.01378,0.04921,0,0,180.0*
1,1,0.01378,-0.00689,0.01772*
1,1,0.01378,0.00689,0.01772*
1,1,0.01378,0.00689,-0.01772*
1,1,0.01378,-0.00689,-0.01772*
%
%ADD32ROUNDEDRECTD32*%
G04:AMPARAMS|DCode=33|XSize=27.56mil|YSize=49.21mil|CornerRadius=6.89mil|HoleSize=0mil|Usage=FLASHONLY|Rotation=45.000|XOffset=0mil|YOffset=0mil|HoleType=Round|Shape=RoundedRectangle|*
%AMROUNDEDRECTD33*
21,1,0.02756,0.03543,0,0,45.0*
21,1,0.01378,0.04921,0,0,45.0*
1,1,0.01378,0.01740,-0.00766*
1,1,0.01378,0.00766,-0.01740*
1,1,0.01378,-0.01740,0.00766*
1,1,0.01378,-0.00766,0.01740*
%
%ADD33ROUNDEDRECTD33*%
G04:AMPARAMS|DCode=34|XSize=27.56mil|YSize=49.21mil|CornerRadius=6.89mil|HoleSize=0mil|Usage=FLASHONLY|Rotation=315.000|XOffset=0mil|YOffset=0mil|HoleType=Round|Shape=RoundedRectangle|*
%AMROUNDEDRECTD34*
21,1,0.02756,0.03543,0,0,315.0*
21,1,0.01378,0.04921,0,0,315.0*
1,1,0.01378,-0.00766,-0.01740*
1,1,0.01378,-0.01740,-0.00766*
1,1,0.01378,0.00766,0.01740*
1,1,0.01378,0.01740,0.00766*
%
%ADD34ROUNDEDRECTD34*%
%ADD35R,0.12008X0.06299*%
%ADD36R,0.10984X0.12598*%
%ADD37R,0.24410X0.22835*%
%ADD38R,0.11811X0.06299*%
%ADD39R,0.06000X0.06299*%
%ADD40R,0.11339X0.04409*%
G04:AMPARAMS|DCode=41|XSize=12mil|YSize=56mil|CornerRadius=0mil|HoleSize=0mil|Usage=FLASHONLY|Rotation=45.000|XOffset=0mil|YOffset=0mil|HoleType=Round|Shape=Rectangle|*
%AMROTATEDRECTD41*
4,1,4,0.01556,-0.02404,-0.02404,0.01556,-0.01556,0.02404,0.02404,-0.01556,0.01556,-0.02404,0.0*
%
%ADD41ROTATEDRECTD41*%

%ADD42R,0.09055X0.02362*%
%ADD43R,0.07874X0.21654*%
%ADD44R,0.03937X0.16929*%
%ADD45R,0.09055X0.06300*%
%ADD46R,0.06000X0.09000*%
%ADD47R,0.04331X0.18307*%
%ADD48R,0.04000X0.02854*%
%ADD49R,0.09055X0.16929*%
%ADD50R,0.08661X0.05000*%
%ADD51R,0.04724X0.12992*%
%ADD52R,0.03937X0.12598*%
G04:AMPARAMS|DCode=53|XSize=12mil|YSize=56mil|CornerRadius=0mil|HoleSize=0mil|Usage=FLASHONLY|Rotation=315.000|XOffset=0mil|YOffset=0mil|HoleType=Round|Shape=Rectangle|*
%AMROTATEDRECTD53*
4,1,4,-0.02404,-0.01556,0.01556,0.02404,0.02404,0.01556,-0.01556,-0.02404,-0.02404,-0.01556,0.0*
%
%ADD53ROTATEDRECTD53*%

%ADD54R,0.08000X0.06000*%
%ADD55R,0.16000X0.15000*%
%ADD56R,0.03030X0.05910*%
%ADD57C,0.03100*%
%ADD58R,0.05984X0.03937*%
%ADD59R,0.05910X0.03030*%
%ADD60R,0.06000X0.06300*%
%ADD61R,0.12000X0.06300*%
%ADD64C,0.08000*%
%ADD65C,0.06000*%
%ADD66R,0.08000X0.08000*%
%ADD67R,0.07480X0.07480*%
%ADD68C,0.07480*%
%ADD69C,0.06299*%
%ADD70C,0.10000*%
%ADD71C,0.12000*%
%ADD72C,0.09055*%
%ADD73C,0.07874*%
%ADD74P,0.08523X8X292.5*%
%ADD75C,0.05906*%
%ADD76R,0.05906X0.05906*%
%ADD77C,0.07000*%
%ADD78C,0.25000*%
%ADD79C,0.03900*%
D21*
X717500Y155147D02*
D03*
Y152000D02*
D03*
Y148853D02*
D03*
Y145707D02*
D03*
Y158293D02*
D03*
D22*
X717697Y169503D02*
D03*
X739330D02*
D03*
Y134497D02*
D03*
X717697D02*
D03*
D23*
X45500Y641500D02*
D03*
X700000Y11500D02*
D03*
D24*
X283460Y183500D02*
D03*
X300000D02*
D03*
X561500Y624500D02*
D03*
X623000Y623500D02*
D03*
D25*
X588803Y583104D02*
D03*
X585066Y575171D02*
D03*
X592540D02*
D03*
X268763Y448933D02*
D03*
X265027Y441000D02*
D03*
X272500D02*
D03*
X587000Y591033D02*
D03*
X590737Y598967D02*
D03*
X583263D02*
D03*
X390737Y391033D02*
D03*
X383263D02*
D03*
X387000Y398967D02*
D03*
X403000D02*
D03*
X399263Y391033D02*
D03*
X406737D02*
D03*
X238000Y241967D02*
D03*
X234263Y234033D02*
D03*
X241737D02*
D03*
Y249033D02*
D03*
X234263D02*
D03*
X238000Y256967D02*
D03*
Y301967D02*
D03*
X234263Y294033D02*
D03*
X241737D02*
D03*
X172737Y134033D02*
D03*
X165263D02*
D03*
X169000Y141967D02*
D03*
X241737Y308033D02*
D03*
X234263D02*
D03*
X238000Y315967D02*
D03*
X168000Y270967D02*
D03*
X164263Y263033D02*
D03*
X171737D02*
D03*
X238000Y362967D02*
D03*
X234263Y355033D02*
D03*
X241737D02*
D03*
X174737Y401033D02*
D03*
X167263D02*
D03*
X171000Y408967D02*
D03*
X241737Y369033D02*
D03*
X234263D02*
D03*
X238000Y376967D02*
D03*
X96000Y502967D02*
D03*
X92263Y495033D02*
D03*
X99737D02*
D03*
X174737Y494033D02*
D03*
X167263D02*
D03*
X171000Y501967D02*
D03*
D26*
X614967Y397000D02*
D03*
X607033Y400737D02*
D03*
Y393263D02*
D03*
X615000Y418500D02*
D03*
X607067Y422237D02*
D03*
Y414763D02*
D03*
X615000Y438000D02*
D03*
X607067Y441737D02*
D03*
Y434263D02*
D03*
X287033Y248263D02*
D03*
Y255737D02*
D03*
X294967Y252000D02*
D03*
X75033Y475263D02*
D03*
Y482737D02*
D03*
X82967Y479000D02*
D03*
X272967Y252000D02*
D03*
X265033Y255737D02*
D03*
Y248263D02*
D03*
X75033Y429000D02*
D03*
X82967Y425263D02*
D03*
Y432737D02*
D03*
X287033Y308263D02*
D03*
Y315737D02*
D03*
X294967Y312000D02*
D03*
X272967D02*
D03*
X265033Y315737D02*
D03*
Y308263D02*
D03*
X288000Y368527D02*
D03*
Y376000D02*
D03*
X295933Y372263D02*
D03*
X273467Y373000D02*
D03*
X265533Y376737D02*
D03*
Y369263D02*
D03*
D27*
X677250Y510000D02*
D03*
X684750D02*
D03*
X681000Y502000D02*
D03*
Y484000D02*
D03*
X684750Y492000D02*
D03*
X677250D02*
D03*
Y474000D02*
D03*
X684750D02*
D03*
X681000Y466000D02*
D03*
X682000Y448000D02*
D03*
X685750Y456000D02*
D03*
X678250D02*
D03*
X677250Y438000D02*
D03*
X684750D02*
D03*
X681000Y430000D02*
D03*
Y411000D02*
D03*
X684750Y419000D02*
D03*
X677250D02*
D03*
X678250Y400000D02*
D03*
X685750D02*
D03*
X682000Y392000D02*
D03*
X606000Y504000D02*
D03*
X609750Y512000D02*
D03*
X602250D02*
D03*
Y492000D02*
D03*
X609750D02*
D03*
X606000Y484000D02*
D03*
Y465000D02*
D03*
X609750Y473000D02*
D03*
X602250D02*
D03*
X616211Y589000D02*
D03*
X623710D02*
D03*
X619960Y581000D02*
D03*
X708000Y211000D02*
D03*
X711750Y219000D02*
D03*
X704250D02*
D03*
X649250D02*
D03*
X656750D02*
D03*
X653000Y211000D02*
D03*
Y275000D02*
D03*
X656750Y283000D02*
D03*
X649250D02*
D03*
X704250D02*
D03*
X711750D02*
D03*
X708000Y275000D02*
D03*
X653000Y348000D02*
D03*
X656750Y356000D02*
D03*
X649250D02*
D03*
X704250D02*
D03*
X711750D02*
D03*
X708000Y348000D02*
D03*
X326250Y215000D02*
D03*
X333750D02*
D03*
X330000Y207000D02*
D03*
D28*
X703500Y577250D02*
D03*
Y569750D02*
D03*
X695500Y573500D02*
D03*
X337000Y501000D02*
D03*
X345000Y497250D02*
D03*
Y504750D02*
D03*
X381000Y505750D02*
D03*
Y498250D02*
D03*
X373000Y502000D02*
D03*
X409000D02*
D03*
X417000Y498250D02*
D03*
Y505750D02*
D03*
X658000Y574250D02*
D03*
Y581750D02*
D03*
X666000Y578000D02*
D03*
X445000Y502000D02*
D03*
X453000Y498250D02*
D03*
Y505750D02*
D03*
D29*
X133000Y233705D02*
D03*
Y209295D02*
D03*
Y340091D02*
D03*
Y364500D02*
D03*
X135000Y72795D02*
D03*
Y97205D02*
D03*
D30*
X644500Y90185D02*
D03*
Y67350D02*
D03*
D31*
X694000Y509740D02*
D03*
Y502260D02*
D03*
Y484260D02*
D03*
Y491740D02*
D03*
Y473740D02*
D03*
Y466260D02*
D03*
Y448260D02*
D03*
Y455740D02*
D03*
Y437740D02*
D03*
Y430260D02*
D03*
Y411260D02*
D03*
Y418740D02*
D03*
Y399740D02*
D03*
Y392260D02*
D03*
X619000Y511740D02*
D03*
Y504260D02*
D03*
Y484260D02*
D03*
Y491740D02*
D03*
Y472740D02*
D03*
Y465260D02*
D03*
X213500Y567177D02*
D03*
Y559697D02*
D03*
X329000Y566740D02*
D03*
Y559260D02*
D03*
X593000Y121740D02*
D03*
Y114260D02*
D03*
X537039Y214992D02*
D03*
Y207512D02*
D03*
X616000Y162823D02*
D03*
Y170303D02*
D03*
X537000Y126760D02*
D03*
Y134240D02*
D03*
X386000Y312323D02*
D03*
Y319803D02*
D03*
X347000Y315740D02*
D03*
Y308260D02*
D03*
X578500Y283740D02*
D03*
Y276260D02*
D03*
X276500Y155260D02*
D03*
Y162740D02*
D03*
X315500Y32760D02*
D03*
Y40240D02*
D03*
X59000Y96260D02*
D03*
Y103740D02*
D03*
X66500Y46260D02*
D03*
Y53740D02*
D03*
X59000Y222260D02*
D03*
Y229740D02*
D03*
Y180260D02*
D03*
Y187740D02*
D03*
X60000Y365260D02*
D03*
Y372740D02*
D03*
X67000Y311260D02*
D03*
Y318740D02*
D03*
X704000Y203740D02*
D03*
Y196260D02*
D03*
X649000D02*
D03*
Y203740D02*
D03*
Y267740D02*
D03*
Y260260D02*
D03*
X704000D02*
D03*
Y267740D02*
D03*
X649000Y340740D02*
D03*
Y333260D02*
D03*
X704000D02*
D03*
Y340740D02*
D03*
X378000Y319803D02*
D03*
Y312323D02*
D03*
X672500Y578197D02*
D03*
Y585677D02*
D03*
X511500Y598697D02*
D03*
Y606177D02*
D03*
X501500Y598823D02*
D03*
Y606303D02*
D03*
X491500Y598823D02*
D03*
Y606303D02*
D03*
X441500Y598823D02*
D03*
Y606303D02*
D03*
X431461Y598661D02*
D03*
Y606142D02*
D03*
X421500Y598823D02*
D03*
Y606303D02*
D03*
X411500Y598827D02*
D03*
Y606307D02*
D03*
X497000Y46260D02*
D03*
Y53740D02*
D03*
X333500Y224760D02*
D03*
Y232240D02*
D03*
X137000Y564260D02*
D03*
Y571740D02*
D03*
X58000Y564260D02*
D03*
Y571740D02*
D03*
X712000Y333260D02*
D03*
Y340740D02*
D03*
X657000Y333260D02*
D03*
Y340740D02*
D03*
X697000Y348260D02*
D03*
Y355740D02*
D03*
X642000Y348260D02*
D03*
Y355740D02*
D03*
X712000Y260260D02*
D03*
Y267740D02*
D03*
X657000Y260260D02*
D03*
Y267740D02*
D03*
X697000Y275260D02*
D03*
Y282740D02*
D03*
X642000Y275260D02*
D03*
Y282740D02*
D03*
X657000Y196260D02*
D03*
Y203740D02*
D03*
X712000Y196260D02*
D03*
Y203740D02*
D03*
X642000Y211260D02*
D03*
Y218740D02*
D03*
X697000Y211260D02*
D03*
Y218740D02*
D03*
X607500Y581260D02*
D03*
Y588740D02*
D03*
X249000Y376740D02*
D03*
Y369260D02*
D03*
X257000D02*
D03*
Y376740D02*
D03*
X281000Y376240D02*
D03*
Y368760D02*
D03*
X181000Y408740D02*
D03*
Y401260D02*
D03*
X296000Y362740D02*
D03*
Y355260D02*
D03*
X249000Y362740D02*
D03*
Y355260D02*
D03*
X188000Y401260D02*
D03*
Y408740D02*
D03*
X296000Y341260D02*
D03*
Y348740D02*
D03*
X257000Y362740D02*
D03*
Y355260D02*
D03*
X180000Y270740D02*
D03*
Y263260D02*
D03*
X249000Y314740D02*
D03*
Y307260D02*
D03*
X187000Y263260D02*
D03*
Y270740D02*
D03*
X257000Y307260D02*
D03*
Y314740D02*
D03*
X279000Y315740D02*
D03*
Y308260D02*
D03*
X180000Y141740D02*
D03*
Y134260D02*
D03*
X295000Y302740D02*
D03*
Y295260D02*
D03*
X249000Y301740D02*
D03*
Y294260D02*
D03*
X295000Y281260D02*
D03*
Y288740D02*
D03*
X257000Y301740D02*
D03*
Y294260D02*
D03*
X188000Y134260D02*
D03*
Y141740D02*
D03*
X90000Y425260D02*
D03*
Y432740D02*
D03*
X97000D02*
D03*
Y425260D02*
D03*
X249000Y256740D02*
D03*
Y249260D02*
D03*
X75000Y411260D02*
D03*
Y418740D02*
D03*
X257000Y249260D02*
D03*
Y256740D02*
D03*
X279000Y255740D02*
D03*
Y248260D02*
D03*
X295000Y242740D02*
D03*
Y235260D02*
D03*
X249000Y241740D02*
D03*
Y234260D02*
D03*
X295000Y220260D02*
D03*
Y227740D02*
D03*
X257000Y241740D02*
D03*
Y234260D02*
D03*
X535000Y45260D02*
D03*
Y52740D02*
D03*
X520000Y45260D02*
D03*
Y52740D02*
D03*
X504000Y46260D02*
D03*
Y53740D02*
D03*
X306500Y40240D02*
D03*
Y32760D02*
D03*
Y55240D02*
D03*
Y47760D02*
D03*
X587500Y283740D02*
D03*
Y276260D02*
D03*
X595000Y283740D02*
D03*
Y276260D02*
D03*
X403000Y412740D02*
D03*
Y405260D02*
D03*
X330000Y497740D02*
D03*
Y490260D02*
D03*
X366000Y497740D02*
D03*
Y490260D02*
D03*
X387000Y412740D02*
D03*
Y405260D02*
D03*
X402000Y497740D02*
D03*
Y490260D02*
D03*
X438000Y498740D02*
D03*
Y491260D02*
D03*
X585000Y114260D02*
D03*
Y121740D02*
D03*
X685500Y573760D02*
D03*
Y581240D02*
D03*
X712000Y577197D02*
D03*
Y584677D02*
D03*
X639000Y574260D02*
D03*
Y581740D02*
D03*
X649000Y574197D02*
D03*
Y581677D02*
D03*
X600000Y400740D02*
D03*
Y393260D02*
D03*
Y421740D02*
D03*
Y414260D02*
D03*
Y441740D02*
D03*
Y434260D02*
D03*
X592000Y393260D02*
D03*
Y400740D02*
D03*
Y414260D02*
D03*
Y421740D02*
D03*
Y434260D02*
D03*
Y441740D02*
D03*
X595000Y465260D02*
D03*
Y472740D02*
D03*
Y484260D02*
D03*
Y491740D02*
D03*
Y504260D02*
D03*
Y511740D02*
D03*
X671000Y392260D02*
D03*
Y399740D02*
D03*
X670000Y411260D02*
D03*
Y418740D02*
D03*
Y430260D02*
D03*
Y437740D02*
D03*
Y448260D02*
D03*
Y455740D02*
D03*
Y466260D02*
D03*
Y473740D02*
D03*
Y484260D02*
D03*
Y491740D02*
D03*
Y502260D02*
D03*
Y509740D02*
D03*
D32*
X588740Y193000D02*
D03*
X581260D02*
D03*
X452740Y491000D02*
D03*
X445260D02*
D03*
X409260Y490000D02*
D03*
X416740D02*
D03*
X380740D02*
D03*
X373260D02*
D03*
X337260D02*
D03*
X344740D02*
D03*
X583260Y606000D02*
D03*
X590740D02*
D03*
X627740Y572000D02*
D03*
X620260D02*
D03*
X50260Y589000D02*
D03*
X57740D02*
D03*
X129260D02*
D03*
X136740D02*
D03*
X265260Y425000D02*
D03*
X272740D02*
D03*
X167260Y486000D02*
D03*
X174740D02*
D03*
Y479000D02*
D03*
X167260D02*
D03*
X181740Y552000D02*
D03*
X174260D02*
D03*
X129260Y582000D02*
D03*
X136740D02*
D03*
X139260Y543000D02*
D03*
X146740D02*
D03*
X92260Y486000D02*
D03*
X99740D02*
D03*
Y479000D02*
D03*
X92260D02*
D03*
X106740Y552000D02*
D03*
X99260D02*
D03*
X57740Y582000D02*
D03*
X50260D02*
D03*
X62260Y543000D02*
D03*
X69740D02*
D03*
X711740Y369000D02*
D03*
X704260D02*
D03*
X658740D02*
D03*
X651260D02*
D03*
X701740Y306000D02*
D03*
X694260D02*
D03*
X711740Y296000D02*
D03*
X704260D02*
D03*
X656740D02*
D03*
X649260D02*
D03*
X698740Y244000D02*
D03*
X691260D02*
D03*
X657740Y232000D02*
D03*
X650260D02*
D03*
X711740D02*
D03*
X704260D02*
D03*
X694740Y185000D02*
D03*
X687260D02*
D03*
X585260Y568000D02*
D03*
X592740D02*
D03*
X585260Y560000D02*
D03*
X592740D02*
D03*
X273740Y362000D02*
D03*
X266260D02*
D03*
X166260Y394000D02*
D03*
X173740D02*
D03*
X266260Y349000D02*
D03*
X273740D02*
D03*
X234260Y348000D02*
D03*
X241740D02*
D03*
X173740Y387000D02*
D03*
X166260D02*
D03*
X300740Y382000D02*
D03*
X293260D02*
D03*
X241740Y383000D02*
D03*
X234260D02*
D03*
X164260Y256000D02*
D03*
X171740D02*
D03*
Y248000D02*
D03*
X164260D02*
D03*
X272740Y301000D02*
D03*
X265260D02*
D03*
Y289000D02*
D03*
X272740D02*
D03*
X234260Y287000D02*
D03*
X241740D02*
D03*
X165260Y126000D02*
D03*
X172740D02*
D03*
X294740Y322000D02*
D03*
X287260D02*
D03*
X241740Y323000D02*
D03*
X234260D02*
D03*
X172740Y119000D02*
D03*
X165260D02*
D03*
X75260Y439000D02*
D03*
X82740D02*
D03*
X272740Y241000D02*
D03*
X265260D02*
D03*
X75260Y454000D02*
D03*
X82740D02*
D03*
Y447000D02*
D03*
X75260D02*
D03*
X265260Y229000D02*
D03*
X272740D02*
D03*
X234260Y227000D02*
D03*
X241740D02*
D03*
X82740Y462000D02*
D03*
X75260D02*
D03*
X294740Y262000D02*
D03*
X287260D02*
D03*
X241740Y264000D02*
D03*
X234260D02*
D03*
X82740Y469000D02*
D03*
X75260D02*
D03*
X303260Y137000D02*
D03*
X310740D02*
D03*
X294740Y136500D02*
D03*
X287260D02*
D03*
X300240Y194500D02*
D03*
X292760D02*
D03*
X399260Y383000D02*
D03*
X406740D02*
D03*
Y375000D02*
D03*
X399260D02*
D03*
X383260Y383000D02*
D03*
X390740D02*
D03*
Y375000D02*
D03*
X383260D02*
D03*
X385740Y297000D02*
D03*
X378260D02*
D03*
X385740Y304000D02*
D03*
X378260D02*
D03*
X265260Y434000D02*
D03*
X272740D02*
D03*
X532177Y540500D02*
D03*
X524697D02*
D03*
X532312Y532500D02*
D03*
X524831D02*
D03*
X532240Y524500D02*
D03*
X524760D02*
D03*
X132760Y480000D02*
D03*
X140240D02*
D03*
X691260Y146000D02*
D03*
X698740D02*
D03*
X585260Y129000D02*
D03*
X592740D02*
D03*
X573260Y465000D02*
D03*
X580740D02*
D03*
X573260Y484000D02*
D03*
X580740D02*
D03*
X573260Y504000D02*
D03*
X580740D02*
D03*
X473240Y568000D02*
D03*
X465760D02*
D03*
X473240Y589000D02*
D03*
X465760D02*
D03*
X473240Y575000D02*
D03*
X465760D02*
D03*
X473213Y582000D02*
D03*
X465732D02*
D03*
X390859Y598460D02*
D03*
X398339D02*
D03*
X390859Y591461D02*
D03*
X398339D02*
D03*
D33*
X538645Y333645D02*
D03*
X533355Y328355D02*
D03*
X459184Y265684D02*
D03*
X464473Y270973D02*
D03*
X476145Y253145D02*
D03*
X470855Y247855D02*
D03*
X528355Y333355D02*
D03*
X533645Y338645D02*
D03*
X446184Y279184D02*
D03*
X451473Y284473D02*
D03*
D34*
X477527Y352473D02*
D03*
X482816Y347184D02*
D03*
X461645Y329355D02*
D03*
X456355Y334645D02*
D03*
X531973Y264027D02*
D03*
X526684Y269316D02*
D03*
X522645Y252355D02*
D03*
X517355Y257645D02*
D03*
D35*
X334583Y55500D02*
D03*
X357417D02*
D03*
D36*
X251000Y178866D02*
D03*
Y137134D02*
D03*
D37*
X182000Y307504D02*
D03*
X373811Y215500D02*
D03*
X85189Y360000D02*
D03*
Y301000D02*
D03*
X181811Y349000D02*
D03*
X85189Y331000D02*
D03*
Y231000D02*
D03*
X175811Y573000D02*
D03*
X98811D02*
D03*
X182000Y218500D02*
D03*
X85189Y201000D02*
D03*
Y171000D02*
D03*
X182000Y181000D02*
D03*
X84189Y95000D02*
D03*
X23189Y427000D02*
D03*
Y476000D02*
D03*
X182000Y45000D02*
D03*
X84189Y35000D02*
D03*
Y65000D02*
D03*
X182000Y83000D02*
D03*
D38*
X157591Y298488D02*
D03*
Y316519D02*
D03*
X349402Y224516D02*
D03*
Y206484D02*
D03*
D39*
X160689Y307504D02*
D03*
X352500Y215500D02*
D03*
D40*
X693000Y84937D02*
D03*
Y94779D02*
D03*
Y67220D02*
D03*
Y77063D02*
D03*
D41*
X507692Y271821D02*
D03*
X509084Y273212D02*
D03*
X491267Y341139D02*
D03*
X489875Y339747D02*
D03*
X488483Y338355D02*
D03*
X487092Y336963D02*
D03*
X485700Y335571D02*
D03*
X484308Y334180D02*
D03*
X482916Y332788D02*
D03*
X481524Y331396D02*
D03*
X480132Y330004D02*
D03*
X478740Y328612D02*
D03*
X477348Y327220D02*
D03*
X475956Y325828D02*
D03*
X474564Y324436D02*
D03*
X473172Y323044D02*
D03*
X471780Y321652D02*
D03*
X470388Y320260D02*
D03*
X468996Y318868D02*
D03*
X467604Y317476D02*
D03*
X466212Y316084D02*
D03*
X464820Y314692D02*
D03*
X463429Y313300D02*
D03*
X462037Y311908D02*
D03*
X460645Y310517D02*
D03*
X459253Y309125D02*
D03*
X457861Y307733D02*
D03*
X500733Y264861D02*
D03*
X502125Y266253D02*
D03*
X503516Y267645D02*
D03*
X504908Y269037D02*
D03*
X506300Y270429D02*
D03*
X510476Y274604D02*
D03*
X514652Y278780D02*
D03*
X516044Y280172D02*
D03*
X517436Y281564D02*
D03*
X518828Y282956D02*
D03*
X520220Y284348D02*
D03*
X521612Y285740D02*
D03*
X523004Y287132D02*
D03*
X524396Y288524D02*
D03*
X525788Y289916D02*
D03*
X527179Y291308D02*
D03*
X528571Y292700D02*
D03*
X529963Y294092D02*
D03*
X531355Y295484D02*
D03*
X532747Y296875D02*
D03*
X534139Y298267D02*
D03*
X513260Y277388D02*
D03*
X511868Y275996D02*
D03*
D42*
X602972Y175500D02*
D03*
Y180500D02*
D03*
X567028Y185500D02*
D03*
Y180500D02*
D03*
Y175500D02*
D03*
Y170500D02*
D03*
Y165500D02*
D03*
Y160500D02*
D03*
Y155500D02*
D03*
Y150500D02*
D03*
Y145500D02*
D03*
Y140500D02*
D03*
X602972Y185500D02*
D03*
Y170500D02*
D03*
Y165500D02*
D03*
Y160500D02*
D03*
Y155500D02*
D03*
Y150500D02*
D03*
Y145500D02*
D03*
Y140500D02*
D03*
D43*
X537039Y188897D02*
D03*
Y151496D02*
D03*
D44*
X380000Y523417D02*
D03*
X390000D02*
D03*
X400000D02*
D03*
X410000D02*
D03*
D03*
X380000Y550583D02*
D03*
X390000D02*
D03*
X400000D02*
D03*
X410000D02*
D03*
X506000Y550665D02*
D03*
X496000D02*
D03*
X486000D02*
D03*
D03*
X506000Y523500D02*
D03*
X496000D02*
D03*
X486000D02*
D03*
D45*
X298535Y75550D02*
D03*
X315465D02*
D03*
D46*
X285500Y124500D02*
D03*
X299500D02*
D03*
D47*
X349500Y148563D02*
D03*
Y181437D02*
D03*
D48*
X144000Y519717D02*
D03*
Y514284D02*
D03*
X396000Y413000D02*
D03*
Y407567D02*
D03*
X380000Y413000D02*
D03*
Y407567D02*
D03*
X68000Y514284D02*
D03*
Y519717D02*
D03*
X535000Y67716D02*
D03*
Y62283D02*
D03*
X520000Y67716D02*
D03*
Y62283D02*
D03*
X504000Y67716D02*
D03*
Y62283D02*
D03*
D49*
X269000Y464693D02*
D03*
Y508000D02*
D03*
D50*
X368496Y352000D02*
D03*
X355504Y342000D02*
D03*
X368496Y332000D02*
D03*
X355504Y322000D02*
D03*
X368496Y312000D02*
D03*
X355504Y302000D02*
D03*
D03*
D51*
X523000Y597697D02*
D03*
X543000D02*
D03*
X533000Y572500D02*
D03*
D52*
X345874Y451614D02*
D03*
Y478386D02*
D03*
X330126Y451614D02*
D03*
Y478386D02*
D03*
X366126D02*
D03*
Y451614D02*
D03*
X381874Y478386D02*
D03*
Y451614D02*
D03*
X438126Y478386D02*
D03*
Y451614D02*
D03*
X453874Y478386D02*
D03*
Y451614D02*
D03*
X402126Y478386D02*
D03*
Y451614D02*
D03*
X417874Y478386D02*
D03*
Y451614D02*
D03*
D53*
X534139Y307733D02*
D03*
X532747Y309125D02*
D03*
X531355Y310517D02*
D03*
X529963Y311908D02*
D03*
X525788Y316084D02*
D03*
X528571Y313300D02*
D03*
X457861Y298267D02*
D03*
X459253Y296875D02*
D03*
X460645Y295484D02*
D03*
X462037Y294092D02*
D03*
X463429Y292700D02*
D03*
X464820Y291308D02*
D03*
X466212Y289916D02*
D03*
X467604Y288524D02*
D03*
X468996Y287132D02*
D03*
X470388Y285740D02*
D03*
X471780Y284348D02*
D03*
X473172Y282956D02*
D03*
X474564Y281564D02*
D03*
X475956Y280172D02*
D03*
X477348Y278780D02*
D03*
X478740Y277388D02*
D03*
X480132Y275996D02*
D03*
X481524Y274604D02*
D03*
X482916Y273212D02*
D03*
X484308Y271821D02*
D03*
X485700Y270429D02*
D03*
X487092Y269037D02*
D03*
X488484Y267645D02*
D03*
X489875Y266253D02*
D03*
X491267Y264861D02*
D03*
X521612Y320260D02*
D03*
X520220Y321652D02*
D03*
X518828Y323044D02*
D03*
X517436Y324436D02*
D03*
X516044Y325828D02*
D03*
X514652Y327220D02*
D03*
X511868Y330004D02*
D03*
X510476Y331396D02*
D03*
X509084Y332788D02*
D03*
X503516Y338355D02*
D03*
X502125Y339747D02*
D03*
X500733Y341139D02*
D03*
X524396Y317476D02*
D03*
X523004Y318868D02*
D03*
X527179Y314692D02*
D03*
X507692Y334180D02*
D03*
X506300Y335571D02*
D03*
X504908Y336963D02*
D03*
X513260Y328612D02*
D03*
D54*
X285250Y39940D02*
D03*
Y49000D02*
D03*
Y58060D02*
D03*
D55*
X265000Y49000D02*
D03*
D56*
X287500Y147500D02*
D03*
X292500D02*
D03*
X297500D02*
D03*
X302500D02*
D03*
Y170500D02*
D03*
X297500D02*
D03*
X292500D02*
D03*
X287500D02*
D03*
D57*
X327500Y317000D02*
D03*
Y312000D02*
D03*
X322500Y317000D02*
D03*
Y312000D02*
D03*
Y307000D02*
D03*
X327500D02*
D03*
D58*
X155492Y537000D02*
D03*
X155394Y526961D02*
D03*
Y517020D02*
D03*
X191122Y537000D02*
D03*
Y526961D02*
D03*
Y517020D02*
D03*
X115122D02*
D03*
Y526961D02*
D03*
Y537000D02*
D03*
X79394Y517020D02*
D03*
Y526961D02*
D03*
X79492Y537000D02*
D03*
D59*
X601500Y265500D02*
D03*
Y260500D02*
D03*
Y255500D02*
D03*
Y250500D02*
D03*
X578500D02*
D03*
Y255500D02*
D03*
Y260500D02*
D03*
Y265500D02*
D03*
D60*
X106500Y360000D02*
D03*
Y301000D02*
D03*
X160500Y349000D02*
D03*
X106500Y331000D02*
D03*
Y231000D02*
D03*
X154500Y573000D02*
D03*
X77500D02*
D03*
X160689Y218500D02*
D03*
X106500Y201000D02*
D03*
Y171000D02*
D03*
X160689Y181000D02*
D03*
X105500Y95000D02*
D03*
X44500Y427000D02*
D03*
Y476000D02*
D03*
X160689Y45000D02*
D03*
X105500Y35000D02*
D03*
Y65000D02*
D03*
X160689Y83000D02*
D03*
D61*
X109598Y350984D02*
D03*
Y369016D02*
D03*
Y291984D02*
D03*
Y310016D02*
D03*
X157402Y358016D02*
D03*
Y339984D02*
D03*
X109598Y321984D02*
D03*
Y340016D02*
D03*
Y221984D02*
D03*
Y240016D02*
D03*
X151402Y582016D02*
D03*
Y563984D02*
D03*
X74402Y582016D02*
D03*
Y563984D02*
D03*
X157591Y227516D02*
D03*
Y209484D02*
D03*
X109598Y191984D02*
D03*
Y210016D02*
D03*
Y161984D02*
D03*
Y180016D02*
D03*
X157591Y190016D02*
D03*
Y171984D02*
D03*
X108598Y85984D02*
D03*
Y104016D02*
D03*
X47598Y417984D02*
D03*
Y436016D02*
D03*
Y466984D02*
D03*
Y485016D02*
D03*
X157591Y54016D02*
D03*
Y35984D02*
D03*
X108598Y25984D02*
D03*
Y44016D02*
D03*
Y55984D02*
D03*
Y74016D02*
D03*
X157591Y92016D02*
D03*
Y73984D02*
D03*
D64*
X727530Y160653D02*
D03*
Y143347D02*
D03*
X411500Y624500D02*
D03*
X421500D02*
D03*
X431500Y624500D02*
D03*
X441500Y624500D02*
D03*
X451500Y624500D02*
D03*
X461500Y624500D02*
D03*
X471500D02*
D03*
X481500Y624500D02*
D03*
X491500D02*
D03*
X501500Y624500D02*
D03*
X511500D02*
D03*
X521500Y624500D02*
D03*
X531500D02*
D03*
X541500D02*
D03*
X551500Y624500D02*
D03*
X728799Y372394D02*
D03*
Y362394D02*
D03*
Y352394D02*
D03*
Y342394D02*
D03*
Y332394D02*
D03*
X729000Y408600D02*
D03*
Y478600D02*
D03*
Y468600D02*
D03*
Y458600D02*
D03*
Y448600D02*
D03*
Y438600D02*
D03*
Y428600D02*
D03*
Y418600D02*
D03*
X583000Y623500D02*
D03*
X593000D02*
D03*
X603000D02*
D03*
X613000D02*
D03*
X728391Y585109D02*
D03*
Y575109D02*
D03*
Y565109D02*
D03*
Y555109D02*
D03*
Y545109D02*
D03*
Y535109D02*
D03*
Y525109D02*
D03*
X674500Y372500D02*
D03*
Y362500D02*
D03*
Y352500D02*
D03*
Y342500D02*
D03*
Y332500D02*
D03*
X674000Y294500D02*
D03*
Y284500D02*
D03*
Y274500D02*
D03*
Y264500D02*
D03*
X728500Y294500D02*
D03*
Y284500D02*
D03*
Y274500D02*
D03*
Y264500D02*
D03*
X728500Y228500D02*
D03*
Y218500D02*
D03*
Y208500D02*
D03*
X674000Y228500D02*
D03*
Y218500D02*
D03*
Y208500D02*
D03*
D65*
X182000Y307600D02*
D03*
X71850Y401167D02*
D03*
X85000Y331000D02*
D03*
X269500Y19500D02*
D03*
X254000D02*
D03*
X269494Y79519D02*
D03*
X254100D02*
D03*
X182500Y44449D02*
D03*
X182031Y82654D02*
D03*
X182000Y180500D02*
D03*
X204031Y102618D02*
D03*
X190500D02*
D03*
X177540D02*
D03*
X204531Y72154D02*
D03*
X182500Y25933D02*
D03*
X208500Y27449D02*
D03*
Y39949D02*
D03*
Y52349D02*
D03*
X209000Y165500D02*
D03*
Y177000D02*
D03*
X209500Y189949D02*
D03*
X265000Y49000D02*
D03*
X182000Y218500D02*
D03*
X209500Y208933D02*
D03*
Y236000D02*
D03*
X191000Y237500D02*
D03*
X174000D02*
D03*
X210500Y294500D02*
D03*
Y308000D02*
D03*
Y321000D02*
D03*
X202500Y370500D02*
D03*
X187500Y370600D02*
D03*
X173500Y370500D02*
D03*
X181500Y348100D02*
D03*
X84000Y35000D02*
D03*
X84189Y65000D02*
D03*
X85189Y95056D02*
D03*
X84500Y171000D02*
D03*
Y200600D02*
D03*
X85189Y231000D02*
D03*
X84000Y255500D02*
D03*
X85000Y360000D02*
D03*
X85189Y136056D02*
D03*
X67000Y136600D02*
D03*
X46500Y137600D02*
D03*
X66000Y196600D02*
D03*
X59500Y207416D02*
D03*
X93500Y264500D02*
D03*
X75300Y265067D02*
D03*
X85000Y301000D02*
D03*
X59000Y307090D02*
D03*
Y295100D02*
D03*
Y334600D02*
D03*
Y325036D02*
D03*
X92568Y401167D02*
D03*
X82568D02*
D03*
X11500Y408100D02*
D03*
X22489D02*
D03*
X32489D02*
D03*
X11511Y448100D02*
D03*
X22500D02*
D03*
X32500D02*
D03*
X11500Y457100D02*
D03*
X22489D02*
D03*
X32489D02*
D03*
X32500Y497100D02*
D03*
X22500D02*
D03*
X11511D02*
D03*
D66*
X728799Y322394D02*
D03*
X729000Y398600D02*
D03*
X728391Y515109D02*
D03*
X674500Y322500D02*
D03*
X674000Y254500D02*
D03*
X728500D02*
D03*
X728500Y198500D02*
D03*
X674000D02*
D03*
D67*
X226000Y627000D02*
D03*
D68*
Y617000D02*
D03*
Y607000D02*
D03*
Y597000D02*
D03*
Y587000D02*
D03*
Y577000D02*
D03*
Y567000D02*
D03*
Y557000D02*
D03*
X316000D02*
D03*
Y567000D02*
D03*
Y577000D02*
D03*
Y587000D02*
D03*
Y597000D02*
D03*
Y607000D02*
D03*
Y617000D02*
D03*
Y627000D02*
D03*
D69*
X380000Y532000D02*
D03*
Y542000D02*
D03*
X390000Y532000D02*
D03*
Y542000D02*
D03*
X400000Y532000D02*
D03*
Y542000D02*
D03*
X410000D02*
D03*
Y532000D02*
D03*
X506000Y542083D02*
D03*
Y532083D02*
D03*
X496000Y542083D02*
D03*
Y532083D02*
D03*
X486000Y542083D02*
D03*
Y532083D02*
D03*
D70*
X460500Y175290D02*
D03*
Y86710D02*
D03*
X407000D02*
D03*
Y175290D02*
D03*
D71*
X99000Y614000D02*
D03*
X79000D02*
D03*
X654465Y621827D02*
D03*
X671000D02*
D03*
X687535D02*
D03*
Y600173D02*
D03*
X671000D02*
D03*
X654465D02*
D03*
X189000Y613000D02*
D03*
X169000D02*
D03*
X149000D02*
D03*
X421000Y50000D02*
D03*
X441000D02*
D03*
X461000D02*
D03*
D72*
X707094Y55134D02*
D03*
Y106866D02*
D03*
X315000Y302000D02*
D03*
X335000D02*
D03*
X315000Y314500D02*
D03*
X335000D02*
D03*
D73*
X46000Y64000D02*
D03*
Y94000D02*
D03*
Y79000D02*
D03*
Y206000D02*
D03*
Y221000D02*
D03*
Y191000D02*
D03*
Y176000D02*
D03*
Y319000D02*
D03*
Y334000D02*
D03*
Y364000D02*
D03*
Y349000D02*
D03*
Y304000D02*
D03*
D74*
Y109000D02*
D03*
Y236000D02*
D03*
Y379000D02*
D03*
D75*
X130000Y491000D02*
D03*
X140000D02*
D03*
D76*
X150000D02*
D03*
D77*
X552000Y27000D02*
D03*
X535000D02*
D03*
X520000D02*
D03*
X504000D02*
D03*
D78*
X375000Y20000D02*
D03*
X21000Y628000D02*
D03*
X375000D02*
D03*
X729000Y20000D02*
D03*
X728000Y627000D02*
D03*
X21000Y20000D02*
D03*
D79*
X329000Y322000D02*
D03*
X321000D02*
D03*
X325000Y302000D02*
D03*
M02*
