M48
;Layer_Color=9474304
;FILE_FORMAT=2:5
INCH,LZ
;TYPE=PLATED
T1F00S00C0.01600
T2F00S00C0.02500
T3F00S00C0.03500
T4F00S00C0.04000
T5F00S00C0.04700
T6F00S00C0.05100
T7F00S00C0.05500
T8F00S00C0.06000
T9F00S00C0.09000
T10F00S00C0.16600
;TYPE=NON_PLATED
T11F00S00C0.04000
T12F00S00C0.09000
%
T01
X0125Y00535
X0237
X0594Y00075
X0691063Y0132937
X0695Y0183
X0641Y01825
X05915Y01945
Y0206
X0594Y0125937
X02535Y0176
X02215Y01795
X0216Y01835
Y01935
X02215
X0201Y014226
Y0133
X02095Y0127
X01755Y01385
X01835Y0103
X014375Y00815
X02095Y0059
X01465Y019
X0121Y0193
X0057433Y01705
X0081Y022
X0121038Y0245814
X01465Y0232
X0152098Y02705
X0175531Y0255
X0201Y0263064
X0205Y03055
X020676Y03205
X0203Y0346
Y03535
X0156482Y03455
X0141098Y0363968
X01235Y0337
X0216Y03395
X0216791Y0318796
X02215Y02825
X025196Y02865
X0247039Y0272436
X0260999Y0298
X0276564Y03
X0258Y03145
X026476Y0335776
X0269394Y036213
X03035Y036
X0299539Y0346942
X0309745Y032896
X03475Y03295
X02965Y02465
X0276Y02345
X025375Y02159
X0231043Y0232958
X02125Y03605
X0380506Y0299476
X0413Y0296
X0404Y0312
X0439Y0339
X04435Y035
X0448Y0347
X0451696Y03535
X0459202Y035256
X0464Y035
X04635Y0339
X0467717Y0337608
X0464Y0328
X0469938Y0313755
X048Y03035
X0484009Y0302822
X04845Y0307
X050039Y0308797
X04995Y03135
X0504Y03125
X0505316Y03162
X050214Y0319808
X0502Y0324
X0497786Y0326618
X0497148Y0330611
X0496543Y03345
X04955Y03385
X0501Y0340222
X05025Y03525
X0506Y03505
X0508303Y0356196
X0504Y0358
X0488Y03585
X0493Y03465
X04865Y0335
X04885Y0326
X04835Y03245
X04915Y032
X0515108Y03255
X05195Y0324
X0517Y0332
X05205Y02955
X0522337Y0284832
X0506Y0275
X0496035Y0276476
X04755Y0354
X0471Y03595
X0439Y0365
X052422Y0328377
X0526166Y0305597
X0531881Y0305331
X0538Y0303
X0548Y0307
X0554Y03045
X05546Y0310899
X0563Y0311
X0565133Y0306001
X0564134Y030219
X0549933Y0315332
X0549889Y0343596
X0546Y03465
X05455Y0341
X0549056Y0350095
X0564134Y0349874
X056716Y0346533
X0569911Y0340965
X0572596Y0343596
X06395Y0347272
X0639513Y031575
X0621Y0305
X064Y02755
X0629766Y02505
X0641Y0211
X0576067Y026
X05565Y0264
X05265
Y026
X0532232Y0227783
X0527455Y02135
X0699Y0211
X06925Y02505
X069826Y02745
X06925Y03155
X0700606Y03275
X0697Y03475
X0670844Y039987
X0671Y0419
X0670844Y043787
X0671Y0456
X0670844Y047387
Y049187
Y0509761
X063Y0484
X0580093Y049187
Y047287
X0580162Y0511862
X05672Y05186
X053325
X05361Y05128
X0536Y0488
X05615Y0438
X0572
X0572Y0418001
X056Y0418
X05585Y0397
X05545Y0389
X0555051Y0382403
X0572596Y038736
X0572Y0397001
X0532Y03815
X05335Y03775
X0645501Y0392
X0646001Y0411
X0656866Y0443984
X0506Y0493
X0485Y05186
X04785Y0514
X044987Y051
X0414
X037787
X04435Y04015
X0443586Y0385537
X0437Y0383
X04565Y03795
X0461Y03735
X0469558Y04015
X0493058Y0378
X03624Y0372999
X0326Y03845
X0327Y04015
X0338Y0402
X0336Y0418716
X0327Y04185
X0309862Y0418716
X031Y04055
X0291Y03965
X0283877Y0383
X0274Y038325
X026476Y0377488
X0268501Y0423
X0234062Y0450539
X0224Y04475
X0324Y0517
X0328Y05165
X034187Y051
X0206501Y03935
X02Y038
X018
X01495Y0430501
X00885Y0449
X0309862Y0537754
X0346Y05435
X03445Y05825
X03505Y0585
X03375Y05795
X03345Y0576
X04115Y0593501
X04215
X04315
X04415
X0456501Y0598839
X04565Y0567
X04215Y0549
X04115Y05475
X0407Y06055
X04915Y0593501
X05015
X05115
X05445Y0563
X0536Y0537
X05325Y053
X05563Y05337
X0589001Y0558
X0612Y0589
X06745Y05825
X0695501Y05515
T02
X01475Y0036
X0554039Y0046117
X0562539
X05745Y0046235
X0583
Y0037063
Y0029125
Y0020688
X05745
Y0029125
Y0037063
X0608004Y0033387
X0607942Y0041587
X0616442
X0616504Y0033387
X0625004
X0624942Y0041587
X0669004Y0041837
X0669066Y0033637
X0677566
X0677504Y0041837
X0686004
X0686066Y0033637
X0679361Y01103
X0679299Y01185
X0670799
X0670861Y01103
X0662361
X0662299Y01185
X0662632Y0147428
X066257Y0155628
X067107
X0671132Y0147428
X0679632
X067957Y0155628
X0624168Y0161428
X0624106Y0169628
X0615606
X0615668Y0161428
X0615866Y0137249
X0624366
X0622011Y0094779
X0622073Y008658
X0613573
X0613511Y0094779
X0579088Y0095719
X057915Y0087519
X057065
X0570588Y0095719
X0562088
X056215Y0087519
Y010635
X0562088Y011455
X0570588
X057065Y010635
X057915
X0579088Y011455
X0526562Y01138
X05265Y0122
X0526642Y01035
X0526704Y00953
Y0153313
X0526642Y0161513
X0543Y02025
X0554039Y0062492
Y0054554
X0562539
Y0062492
X05745Y006261
Y0054672
X0583
Y006261
X0518203Y00953
X0518142Y01035
X0509642
X0509703Y00953
X0509562Y01138
X05095Y0122
X0518
X0518062Y01138
X0518203Y0153313
X0518142Y0161513
X0509642
X0509703Y0153313
X0511062Y01793
X0511Y01875
X05195
X0519562Y01793
X0502562
X05025Y01875
X04325Y0176994
X0432562Y0168794
X0424062
X0424Y0176994
X04155
X0415562Y0168794
X0415Y0145618
X04235
X0432491
X0432491Y0136031
X04235
X0415
X0415Y0126318
X04235
Y0117587
X0415
X0415Y0108
X04235
X0432491
X0432491Y0117587
Y0126318
Y0098287
Y0090587
X04235
Y0098287
X0415
Y0090587
X0415Y0081
X04235
X0432491
X0373Y00815
X0373Y0091087
Y0098787
X0373Y01085
X0373Y0118087
Y0126818
X0373Y0136531
X0373Y0146118
X03645
X03645Y0136531
X03645Y0126818
Y0118087
X03645Y01085
X03645Y0098787
Y0091087
X03645Y00815
X0343624Y0080019
X0343562Y0088219
X0335062
X0335124Y0080019
X0326624
X0326562Y0088219
X0326062Y00968
X0326Y0105
X03345
X0334562Y00968
X0343062
X0343Y0105
X0343562Y01148
X03435Y0123
X0335
X0335062Y01148
X0326562
X03265Y0123
X02615Y0107004
X02515
X02475Y0099
X0238
X0243Y0091004
X02525
X02625
X02575Y0084752
X02475
X0238
X0243Y0078004
X02525
X02625
X02575Y0072
X02475
X0238
X0258Y0099
X0148911Y013426
Y014226
X0139324
Y013426
X0130411
Y014226
X0120824
Y013426
X0111111
Y014226
X0109824Y011626
Y010826
X0119411
Y011626
X0100111
Y010826
X0119541Y0178016
X0147488Y0061774
X0122587Y0256
Y0264
X0113
Y0256
X0103287
Y0264
X01127Y0282
Y029
X0122413
Y0282
X0132
Y029
X0147297Y02945
X0155297
X0164
X0172
X01815
X01895
X01722Y02772
X01672Y0308202
X0126564Y0320016
X0144648Y03424
X0185806Y0253752
X0193806
X0207307
X0215307
X02435Y0265032
X0252Y0265
X026016Y0265032
X02875Y0265
X02955
X0308Y0285
X0315Y0287644
X0281717Y02875
X0273717
X0225063Y02933
Y03013
X0285261Y0352684
X0330311Y035328
Y0359728
X0342
Y035328
X03615Y0349641
X0348437Y032
X0347Y02655
X03555
X03635
X0372
X038
X03885
X0396
X04045
X0413
X04215
X04415
X0436Y026
X0430124Y0253
X0431624Y02235
X0431686Y02153
X0423186
X0423124Y02235
X0414624
X0414686Y02153
X04225Y02905
X0431
X0428Y02985
X04365
X0435Y0306461
X04435
X044579Y0319808
X045429
X04195Y03205
X0411
X041929Y0337415
X042779
X0507042Y0292904
X0509642Y02508
X0518142
X0489282
X048972Y02585
X048122
X0480782Y02508
X0472282
X047272Y02585
X0526642Y02508
X05608Y0233461
X05693
X05778
X0578Y0222
X05695
X0561
X0592062Y0223073
X0592Y0231273
X06005
X0600562Y0223073
X0609062
X0609Y0231273
X0607Y02535
X05985
X059
X05828Y027
X05743
X05658
X0563551Y0283486
X0555051
X0572051
X0586Y0294
X05945
X0603
X0610677Y0270563
X0619177
X0627677
X0630562Y03278
X06305Y0336
X0622
X0622062Y03278
X0613562
X06135Y0336
X05875
X0593735Y0342367
X0599745Y0348377
X06175Y0365843
X0576179Y0318645
X0568012
X0550599Y0333174
X0701311Y0477272
X0701405Y0497
X0727
X0641Y05035
X0628777Y0503512
X0638Y04575
X06515
X060912Y045115
X060062
X059212
X0559Y04538
X05591Y04457
X058362Y038175
X059212
X060062
X0593179Y037004
X0584679
X0576179
X062351Y0371854
X0629521Y0377864
X0504287Y0374808
X0496035Y0407562
Y0416062
Y0424562
X0470196Y0419926
X0461696
X0453196
X0455Y0431
X04635
X04465
X0459024Y04105
X0467524
X0476024
X0432681Y0409631
X0424181
X0415681
X0416Y0390224
X04245
X0370268Y0386961
Y0425437
X0381057Y0424937
X0389557
X0398057
X0427963Y0480949
X0428Y049
Y05005
X046335Y0502518
Y0511018
Y0519518
X047235
Y0511018
Y0502518
X0468551Y0479539
Y0471039
Y0462539
X0357Y04823
Y04908
Y04993
X03545Y0516
X0353268Y0425437
X0361768
Y0386961
X0353268
X0341937Y0367478
X0330248
X0275062Y04823
X0275Y04905
X02665
X0266562Y04823
X0258062
X0258Y04905
X01945Y05885
Y05955
Y06025
Y06095
Y06165
Y06235
Y06305
Y06375
Y06445
X01875
Y0638
X01805
Y06445
X01575
Y0638
X0151
X01445
Y06315
X0138064
Y0625
X01445
X0148Y06185
X0154386Y061665
X0154Y0609
X01605Y060815
Y06145
X01675Y06085
X01795Y06095
Y06165
X0187
Y06095
Y06025
X018725Y05955
Y05885
X01795
Y05955
Y06025
X01575Y0603
X0151Y0603
X01615Y0598
X0160967Y05885
X0111Y059
Y0598
Y06045
Y0612
Y06205
X0106Y0625
Y061596
Y060815
X01056Y060175
X0106Y0594
X0103Y0587906
X0085Y05885
X00785
X0082Y05985
X0073
X007Y06045
X0069937Y0610999
X007715Y061035
X0077Y0604
X00855
Y0611039
X0094233
X0080016Y06195
X007085Y06188
X0074Y0625
X0066
Y06315
Y0638
X0065905Y06445
X0073
X0080016
X0096
X010448
X0112114
X01095Y0638
X0111Y0631
X0084967Y0625
X0138Y0638
X0138064Y06445
X01445
X0151
X0267158Y06272
X0269913Y06125
Y06045
X0270213Y05955
Y05875
Y05785
Y05705
X0270713Y05615
Y05535
X02803
Y05615
X02798Y05705
Y05785
Y05875
Y05955
X02795Y06045
Y06125
X02602
Y06045
X02605Y05955
Y05875
Y05785
Y05705
X0261Y05615
Y05535
X0339Y05535
X03475
X0356
Y0567
X03475
X0339
X03545Y0533
Y05245
X03915Y0524
X04
X04085
X0420329
X0428829
X0437329
Y0532583
X0428829
X0420329
X04702Y05965
Y06138
X05115Y0566595
X052
X05285
X0607563Y0545001
X0616063
X0624563
X0611106Y0524539
X0602606
X0594106
X0689595Y05255
X07015
X0702Y0539
X06895Y0539094
T03
X0131Y0488
X0141
X0151
T04
X072753Y0143347
Y0160653
X07285Y01985
Y02085
X0674
Y01985
Y02185
Y02285
Y02545
Y02645
Y02745
Y02845
Y02945
X06745Y03225
Y03325
Y03425
Y03525
Y03625
X07285Y0362
Y0352
Y0342
Y0332
Y0322
X0728Y02945
Y02845
Y02745
Y02645
Y02545
X07285Y02285
Y02185
Y0372
X0729Y03985
Y04085
Y04185
Y04285
Y04385
Y04485
Y04585
Y04685
Y04785
X0728Y0515
X06745Y03725
X0521Y0514
X0511
X0501
X0184Y0626
X0169
X0154
X0226Y0627
Y0617
Y0607
Y0597
Y0587
Y0577
Y0567
Y0557
X0316
Y0567
Y0577
Y0587
Y0597
Y0607
Y0617
Y0627
X03655Y0557
Y0547
X03755
Y0557
X03855
Y0547
X03955
Y0557
X04115Y06245
X04215
X04315Y06245
X04415Y06245
X04515Y06245
X04615Y06245
X04715
X04815Y06245
X04915
X05015Y06245
X05115
X05215Y06245
X0521Y0524
X0511
X0501
X05315Y06245
X05415
X05515Y06245
X05615
X0583Y06235
X0593
X0603
X0613
X0623
X0728Y0585
Y0575
Y0565
Y0555
Y0545
Y0535
Y0525
T05
X00345Y0064
Y0079
Y0094
Y0109
Y01705
Y01855
Y02005
Y02155
Y02305
X0034Y0304
Y0319
Y0334
Y0349
Y0364
Y0379
T06
X0451Y00875
X0461
X0471
X00765Y01045
Y01145
Y01245
X0076Y02395
Y02495
Y02595
X00755Y0386
Y0396
Y0406
X0029Y04145
Y04245
Y04345
Y04625
Y04725
Y04825
X0093Y05785
Y05885
Y05985
X0169
Y05885
Y05785
T07
X0421Y005
X0441
X0461
X0504Y0027
X052
X0535
X0552
X01Y0634
X008
T08
X045479Y01745
X036621
X036571Y0225
X045429
X0654465Y0600173
X0671
Y0621827
X0654465
X0687535
Y0600173
T09
X0707094Y0055134
Y0106866
T10
X0021Y002
X0375
X0729
X0021Y0628
X0375
X0728Y0627
T11
X0325Y0302
X0321Y0322
X0329
T12
X0315Y0302
Y03145
X0335
Y0302
M30
