G04*
G04 #@! TF.GenerationSoftware,Altium Limited,Altium Designer,20.0.2 (26)*
G04*
G04 Layer_Color=8388736*
%FSLAX25Y25*%
%MOIN*%
G70*
G01*
G75*
G04:AMPARAMS|DCode=21|XSize=27.56mil|YSize=49.21mil|CornerRadius=6.89mil|HoleSize=0mil|Usage=FLASHONLY|Rotation=180.000|XOffset=0mil|YOffset=0mil|HoleType=Round|Shape=RoundedRectangle|*
%AMROUNDEDRECTD21*
21,1,0.02756,0.03543,0,0,180.0*
21,1,0.01378,0.04921,0,0,180.0*
1,1,0.01378,-0.00689,0.01772*
1,1,0.01378,0.00689,0.01772*
1,1,0.01378,0.00689,-0.01772*
1,1,0.01378,-0.00689,-0.01772*
%
%ADD21ROUNDEDRECTD21*%
%ADD22R,0.03543X0.13583*%
%ADD23R,0.09055X0.06299*%
%ADD24R,0.09055X0.02362*%
%ADD25R,0.06000X0.06299*%
%ADD26R,0.11811X0.06299*%
%ADD27R,0.24410X0.22835*%
G04:AMPARAMS|DCode=29|XSize=9mil|YSize=65mil|CornerRadius=0mil|HoleSize=0mil|Usage=FLASHONLY|Rotation=315.000|XOffset=0mil|YOffset=0mil|HoleType=Round|Shape=Rectangle|*
%AMROTATEDRECTD29*
4,1,4,-0.02616,-0.01980,0.01980,0.02616,0.02616,0.01980,-0.01980,-0.02616,-0.02616,-0.01980,0.0*
%
%ADD29ROTATEDRECTD29*%

G04:AMPARAMS|DCode=30|XSize=9mil|YSize=65mil|CornerRadius=0mil|HoleSize=0mil|Usage=FLASHONLY|Rotation=45.000|XOffset=0mil|YOffset=0mil|HoleType=Round|Shape=Rectangle|*
%AMROTATEDRECTD30*
4,1,4,0.01980,-0.02616,-0.02616,0.01980,-0.01980,0.02616,0.02616,-0.01980,0.01980,-0.02616,0.0*
%
%ADD30ROTATEDRECTD30*%

G04:AMPARAMS|DCode=31|XSize=27.56mil|YSize=49.21mil|CornerRadius=6.89mil|HoleSize=0mil|Usage=FLASHONLY|Rotation=45.000|XOffset=0mil|YOffset=0mil|HoleType=Round|Shape=RoundedRectangle|*
%AMROUNDEDRECTD31*
21,1,0.02756,0.03543,0,0,45.0*
21,1,0.01378,0.04921,0,0,45.0*
1,1,0.01378,0.01740,-0.00766*
1,1,0.01378,0.00766,-0.01740*
1,1,0.01378,-0.01740,0.00766*
1,1,0.01378,-0.00766,0.01740*
%
%ADD31ROUNDEDRECTD31*%
G04:AMPARAMS|DCode=32|XSize=27.56mil|YSize=49.21mil|CornerRadius=6.89mil|HoleSize=0mil|Usage=FLASHONLY|Rotation=270.000|XOffset=0mil|YOffset=0mil|HoleType=Round|Shape=RoundedRectangle|*
%AMROUNDEDRECTD32*
21,1,0.02756,0.03543,0,0,270.0*
21,1,0.01378,0.04921,0,0,270.0*
1,1,0.01378,-0.01772,-0.00689*
1,1,0.01378,-0.01772,0.00689*
1,1,0.01378,0.01772,0.00689*
1,1,0.01378,0.01772,-0.00689*
%
%ADD32ROUNDEDRECTD32*%
G04:AMPARAMS|DCode=33|XSize=27.56mil|YSize=49.21mil|CornerRadius=6.89mil|HoleSize=0mil|Usage=FLASHONLY|Rotation=135.000|XOffset=0mil|YOffset=0mil|HoleType=Round|Shape=RoundedRectangle|*
%AMROUNDEDRECTD33*
21,1,0.02756,0.03543,0,0,135.0*
21,1,0.01378,0.04921,0,0,135.0*
1,1,0.01378,0.00766,0.01740*
1,1,0.01378,0.01740,0.00766*
1,1,0.01378,-0.00766,-0.01740*
1,1,0.01378,-0.01740,-0.00766*
%
%ADD33ROUNDEDRECTD33*%
%ADD34R,0.09053X0.01967*%
%ADD35C,0.03100*%
%ADD36R,0.04000X0.03000*%
%ADD37R,0.03000X0.04000*%
%ADD38R,0.09053X0.07873*%
%ADD40R,0.08000X0.08000*%
G04:AMPARAMS|DCode=41|XSize=39.37mil|YSize=125.98mil|CornerRadius=9.84mil|HoleSize=0mil|Usage=FLASHONLY|Rotation=270.000|XOffset=0mil|YOffset=0mil|HoleType=Round|Shape=RoundedRectangle|*
%AMROUNDEDRECTD41*
21,1,0.03937,0.10630,0,0,270.0*
21,1,0.01968,0.12598,0,0,270.0*
1,1,0.01968,-0.05315,-0.00984*
1,1,0.01968,-0.05315,0.00984*
1,1,0.01968,0.05315,0.00984*
1,1,0.01968,0.05315,-0.00984*
%
%ADD41ROUNDEDRECTD41*%
%ADD42R,0.10984X0.12598*%
%ADD43R,0.11339X0.04409*%
%ADD44R,0.07874X0.21654*%
%ADD45R,0.03937X0.16929*%
%ADD46R,0.09055X0.06300*%
%ADD47R,0.06000X0.09000*%
%ADD48R,0.04331X0.18307*%
%ADD49R,0.09055X0.16929*%
%ADD50R,0.08661X0.05000*%
%ADD51R,0.12992X0.04724*%
%ADD52R,0.03937X0.12598*%
%ADD53R,0.08000X0.06000*%
%ADD54R,0.16000X0.15000*%
%ADD55R,0.03030X0.05910*%
%ADD56R,0.03937X0.05984*%
%ADD57R,0.05910X0.03030*%
%ADD58R,0.04945X0.03799*%
%ADD59C,0.11811*%
%ADD60C,0.08000*%
%ADD61C,0.06000*%
%ADD62C,0.09055*%
%ADD63C,0.03900*%
%ADD64C,0.07500*%
%ADD65C,0.10000*%
%ADD66R,0.05906X0.05906*%
%ADD67C,0.05906*%
%ADD68R,0.08000X0.08000*%
%ADD69R,0.07480X0.07480*%
%ADD70C,0.07480*%
%ADD71C,0.06299*%
%ADD72C,0.12000*%
%ADD73C,0.07874*%
%ADD74P,0.08523X8X292.5*%
%ADD75C,0.07000*%
%ADD76C,0.25000*%
%ADD77C,0.05000*%
G36*
X87000Y628000D02*
X98000Y617000D01*
Y594500D01*
X62033Y594500D01*
X61968Y649000D01*
X87000Y649000D01*
Y628000D01*
D02*
G37*
D21*
X294240Y123000D02*
D03*
X286760D02*
D03*
X383260Y373500D02*
D03*
X390740D02*
D03*
X234260Y421000D02*
D03*
X241740D02*
D03*
Y239000D02*
D03*
X234260D02*
D03*
X280303Y300000D02*
D03*
X272823D02*
D03*
X249260Y347000D02*
D03*
X256740D02*
D03*
X233760D02*
D03*
X241240D02*
D03*
X277260Y403000D02*
D03*
X284740D02*
D03*
X251760Y409000D02*
D03*
X259240D02*
D03*
X269760Y388000D02*
D03*
X277240D02*
D03*
X648240Y484000D02*
D03*
X640760D02*
D03*
X648240Y466000D02*
D03*
X640760D02*
D03*
X649240Y392000D02*
D03*
X641760D02*
D03*
X648740Y448000D02*
D03*
X641260D02*
D03*
X649240Y430000D02*
D03*
X641760D02*
D03*
X645740Y527000D02*
D03*
X638260D02*
D03*
X646260Y577500D02*
D03*
X653740D02*
D03*
X649740Y411000D02*
D03*
X642260D02*
D03*
X580260Y132000D02*
D03*
X587740D02*
D03*
X650740Y100000D02*
D03*
X643260Y100000D02*
D03*
X651240Y172500D02*
D03*
X643760D02*
D03*
X449740Y490000D02*
D03*
X442260D02*
D03*
X406260D02*
D03*
X413740D02*
D03*
X377740D02*
D03*
X370260D02*
D03*
X334260D02*
D03*
X341740D02*
D03*
X513740Y238000D02*
D03*
X506260D02*
D03*
X583260Y606000D02*
D03*
X590740D02*
D03*
X706740Y231000D02*
D03*
X699260D02*
D03*
X640760D02*
D03*
X648240D02*
D03*
X647740Y295500D02*
D03*
X640260D02*
D03*
X697760Y294500D02*
D03*
X705240D02*
D03*
X647240Y372500D02*
D03*
X639760D02*
D03*
X697260D02*
D03*
X704740D02*
D03*
X56260Y613500D02*
D03*
X63740D02*
D03*
X138260Y612500D02*
D03*
X145740D02*
D03*
X264760Y423000D02*
D03*
X272240D02*
D03*
X451260Y112500D02*
D03*
X458740D02*
D03*
X178260Y472000D02*
D03*
X185740D02*
D03*
Y457500D02*
D03*
X178260D02*
D03*
X138260Y603000D02*
D03*
X145740D02*
D03*
X140760Y515500D02*
D03*
X148240D02*
D03*
X100760Y472000D02*
D03*
X108240D02*
D03*
X108114Y457500D02*
D03*
X100634D02*
D03*
X63740Y605000D02*
D03*
X56260D02*
D03*
X62260Y516000D02*
D03*
X69740D02*
D03*
X697260Y332000D02*
D03*
X704740D02*
D03*
X639760Y332500D02*
D03*
X647240D02*
D03*
X704740Y322000D02*
D03*
X697260D02*
D03*
X647240Y322500D02*
D03*
X639760D02*
D03*
X704740Y342000D02*
D03*
X697260D02*
D03*
X646740Y342500D02*
D03*
X639260D02*
D03*
X694240Y309500D02*
D03*
X686760D02*
D03*
X697260Y259500D02*
D03*
X704740D02*
D03*
X640260Y260500D02*
D03*
X647740D02*
D03*
X705740Y250500D02*
D03*
X698260D02*
D03*
X647740D02*
D03*
X640260D02*
D03*
X704740Y269500D02*
D03*
X697260D02*
D03*
X647740Y270000D02*
D03*
X640260D02*
D03*
X688740Y240500D02*
D03*
X681260D02*
D03*
X640760Y196500D02*
D03*
X648240D02*
D03*
X699260D02*
D03*
X706740D02*
D03*
X648240Y188000D02*
D03*
X640760D02*
D03*
X706740Y187000D02*
D03*
X699260D02*
D03*
X648240Y206000D02*
D03*
X640760D02*
D03*
X706240D02*
D03*
X698760D02*
D03*
X686240Y175500D02*
D03*
X678760D02*
D03*
X585260Y567000D02*
D03*
X592740D02*
D03*
X585260Y558000D02*
D03*
X592740D02*
D03*
X273260Y357500D02*
D03*
X280740D02*
D03*
X156760Y388500D02*
D03*
X164240D02*
D03*
X281240Y346500D02*
D03*
X273760D02*
D03*
X202760Y401500D02*
D03*
X210240D02*
D03*
X241240Y373500D02*
D03*
X233760D02*
D03*
X179240Y388000D02*
D03*
X171760D02*
D03*
X312240Y384500D02*
D03*
X304760D02*
D03*
X241240Y392000D02*
D03*
X233760D02*
D03*
X234260Y383000D02*
D03*
X241740D02*
D03*
X313260Y351000D02*
D03*
X320740D02*
D03*
X256740Y383000D02*
D03*
X249260D02*
D03*
X171740Y255000D02*
D03*
X164260D02*
D03*
X171740Y245000D02*
D03*
X164260D02*
D03*
X264740Y298000D02*
D03*
X257260D02*
D03*
Y286500D02*
D03*
X264740D02*
D03*
X206760Y326500D02*
D03*
X214240D02*
D03*
X287760Y303000D02*
D03*
X295240D02*
D03*
X233760Y298000D02*
D03*
X241240D02*
D03*
X170240Y133000D02*
D03*
X162760D02*
D03*
X295240Y334500D02*
D03*
X287760D02*
D03*
X170240Y123000D02*
D03*
X162760D02*
D03*
X294260Y290000D02*
D03*
X301740D02*
D03*
X132260Y453000D02*
D03*
X139740D02*
D03*
X272760Y265500D02*
D03*
X280240D02*
D03*
X80760Y472000D02*
D03*
X88240D02*
D03*
Y457500D02*
D03*
X80760D02*
D03*
X280240Y234500D02*
D03*
X272760D02*
D03*
X309740Y269000D02*
D03*
X302260D02*
D03*
X234260Y208500D02*
D03*
X241740D02*
D03*
Y194000D02*
D03*
X234260D02*
D03*
X306260Y230500D02*
D03*
X313740D02*
D03*
X329740D02*
D03*
X322260D02*
D03*
X280240Y221000D02*
D03*
X272760D02*
D03*
X295760Y39500D02*
D03*
X303240D02*
D03*
X302760Y123000D02*
D03*
X310240D02*
D03*
X542240Y213500D02*
D03*
X534760D02*
D03*
X542240Y221000D02*
D03*
X534760D02*
D03*
X399260Y383000D02*
D03*
X406740D02*
D03*
Y373500D02*
D03*
X399260D02*
D03*
X341740Y516500D02*
D03*
X334260D02*
D03*
X377740D02*
D03*
X370260D02*
D03*
X383260Y383000D02*
D03*
X390740D02*
D03*
X392240Y292500D02*
D03*
X384760D02*
D03*
X413740Y516500D02*
D03*
X406260D02*
D03*
X392240Y304000D02*
D03*
X384760D02*
D03*
X264760Y432500D02*
D03*
X272240D02*
D03*
X132654Y472000D02*
D03*
X140134D02*
D03*
X449740Y516500D02*
D03*
X442260D02*
D03*
X691260Y146000D02*
D03*
X698740D02*
D03*
X691760Y551500D02*
D03*
X699240D02*
D03*
X668740Y560500D02*
D03*
X661260D02*
D03*
X554760Y465000D02*
D03*
X562240D02*
D03*
X554760Y484000D02*
D03*
X562240D02*
D03*
X554760Y504000D02*
D03*
X562240D02*
D03*
X390760Y598000D02*
D03*
X398240D02*
D03*
X390760Y589500D02*
D03*
X398240D02*
D03*
D22*
X332000Y57941D02*
D03*
Y35500D02*
D03*
X651000Y63279D02*
D03*
Y85720D02*
D03*
D23*
X295535Y54500D02*
D03*
X312465D02*
D03*
D24*
X601320Y140678D02*
D03*
Y145678D02*
D03*
Y150678D02*
D03*
Y155678D02*
D03*
Y160678D02*
D03*
Y165678D02*
D03*
Y170678D02*
D03*
Y175678D02*
D03*
Y180678D02*
D03*
Y185678D02*
D03*
X565375Y140678D02*
D03*
Y155678D02*
D03*
Y160678D02*
D03*
Y165678D02*
D03*
Y170678D02*
D03*
Y175678D02*
D03*
Y180678D02*
D03*
Y185678D02*
D03*
Y150678D02*
D03*
Y145678D02*
D03*
D25*
X160500Y45000D02*
D03*
X105000Y31500D02*
D03*
Y63500D02*
D03*
X160500Y81500D02*
D03*
Y181000D02*
D03*
X106000Y169000D02*
D03*
Y202000D02*
D03*
X160500Y220000D02*
D03*
X106000Y311000D02*
D03*
Y345500D02*
D03*
X160098Y363484D02*
D03*
X160500Y324500D02*
D03*
D26*
X157402Y54016D02*
D03*
Y35984D02*
D03*
X108098Y40516D02*
D03*
Y22484D02*
D03*
Y54484D02*
D03*
Y72516D02*
D03*
X157402Y72484D02*
D03*
Y90516D02*
D03*
Y190016D02*
D03*
Y171984D02*
D03*
X109098Y178016D02*
D03*
Y159984D02*
D03*
Y192984D02*
D03*
Y211016D02*
D03*
X157402Y210984D02*
D03*
Y229016D02*
D03*
X109098Y301984D02*
D03*
Y320016D02*
D03*
Y354516D02*
D03*
Y336484D02*
D03*
X157000Y372500D02*
D03*
Y354468D02*
D03*
X157402Y315484D02*
D03*
Y333516D02*
D03*
D27*
X181811Y45000D02*
D03*
X83689Y31500D02*
D03*
Y63500D02*
D03*
X181811Y81500D02*
D03*
Y181000D02*
D03*
X84689Y169000D02*
D03*
Y202000D02*
D03*
X181811Y220000D02*
D03*
X84689Y311000D02*
D03*
Y345500D02*
D03*
X181409Y363484D02*
D03*
X181811Y324500D02*
D03*
D29*
X510511Y363236D02*
D03*
X511624Y362123D02*
D03*
X512738Y361009D02*
D03*
X513852Y359896D02*
D03*
X514965Y358782D02*
D03*
X516079Y357668D02*
D03*
X517192Y356555D02*
D03*
X518306Y355441D02*
D03*
X519419Y354328D02*
D03*
X520533Y353214D02*
D03*
X521646Y352101D02*
D03*
X522760Y350987D02*
D03*
X523874Y349874D02*
D03*
X524987Y348760D02*
D03*
X526101Y347646D02*
D03*
X527214Y346533D02*
D03*
X528328Y345419D02*
D03*
X529441Y344306D02*
D03*
X530555Y343192D02*
D03*
X531669Y342079D02*
D03*
X532782Y340965D02*
D03*
X533896Y339852D02*
D03*
X535009Y338738D02*
D03*
X536123Y337625D02*
D03*
X537236Y336511D02*
D03*
X500489Y299764D02*
D03*
X499375Y300877D02*
D03*
X498262Y301991D02*
D03*
X497148Y303104D02*
D03*
X496035Y304218D02*
D03*
X494921Y305331D02*
D03*
X493808Y306445D02*
D03*
X492694Y307559D02*
D03*
X491581Y308672D02*
D03*
X490467Y309786D02*
D03*
X489354Y310899D02*
D03*
X488240Y312013D02*
D03*
X487126Y313126D02*
D03*
X486013Y314240D02*
D03*
X484899Y315353D02*
D03*
X483786Y316467D02*
D03*
X482672Y317581D02*
D03*
X481559Y318694D02*
D03*
X480445Y319808D02*
D03*
X479331Y320921D02*
D03*
X478218Y322035D02*
D03*
X477104Y323148D02*
D03*
X475991Y324262D02*
D03*
X474877Y325376D02*
D03*
X473764Y326489D02*
D03*
D30*
X537236D02*
D03*
X536123Y325376D02*
D03*
X535009Y324262D02*
D03*
X533896Y323148D02*
D03*
X532782Y322035D02*
D03*
X531669Y320921D02*
D03*
X530555Y319808D02*
D03*
X529441Y318694D02*
D03*
X528328Y317581D02*
D03*
X527214Y316467D02*
D03*
X526101Y315353D02*
D03*
X524987Y314240D02*
D03*
X523874Y313126D02*
D03*
X522760Y312013D02*
D03*
X521646Y310899D02*
D03*
X520533Y309786D02*
D03*
X519419Y308672D02*
D03*
X518306Y307559D02*
D03*
X514965Y304218D02*
D03*
X513852Y303104D02*
D03*
X512738Y301991D02*
D03*
X511624Y300877D02*
D03*
X510511Y299764D02*
D03*
X473764Y336511D02*
D03*
X474877Y337625D02*
D03*
X475991Y338738D02*
D03*
X477104Y339852D02*
D03*
X478218Y340965D02*
D03*
X479331Y342079D02*
D03*
X480445Y343192D02*
D03*
X481559Y344306D02*
D03*
X482672Y345419D02*
D03*
X483786Y346533D02*
D03*
X484899Y347646D02*
D03*
X486013Y348760D02*
D03*
X487126Y349874D02*
D03*
X488240Y350987D02*
D03*
X489354Y352101D02*
D03*
X490467Y353214D02*
D03*
X491581Y354328D02*
D03*
X492694Y355441D02*
D03*
X493808Y356555D02*
D03*
X494921Y357668D02*
D03*
X496035Y358782D02*
D03*
X497148Y359896D02*
D03*
X498262Y361009D02*
D03*
X499375Y362123D02*
D03*
X500489Y363236D02*
D03*
X517192Y306445D02*
D03*
X516079Y305331D02*
D03*
D31*
X480974Y282581D02*
D03*
X486264Y287870D02*
D03*
X475971Y299145D02*
D03*
X470682Y293855D02*
D03*
X537855Y360355D02*
D03*
X543145Y365645D02*
D03*
X532855Y365355D02*
D03*
X538145Y370645D02*
D03*
X459355Y303355D02*
D03*
X464645Y308645D02*
D03*
D32*
X121500Y445177D02*
D03*
Y437697D02*
D03*
X654500Y523260D02*
D03*
Y530740D02*
D03*
X289500Y237740D02*
D03*
Y230260D02*
D03*
X234500Y264760D02*
D03*
Y272240D02*
D03*
X289500Y256240D02*
D03*
Y248760D02*
D03*
X280000Y315740D02*
D03*
Y308260D02*
D03*
X646000Y548740D02*
D03*
Y541260D02*
D03*
X652039Y502260D02*
D03*
Y509740D02*
D03*
X694000D02*
D03*
Y502260D02*
D03*
Y484260D02*
D03*
Y491740D02*
D03*
Y473740D02*
D03*
Y466260D02*
D03*
Y448260D02*
D03*
Y455740D02*
D03*
Y437740D02*
D03*
Y430260D02*
D03*
Y411260D02*
D03*
Y418740D02*
D03*
Y399740D02*
D03*
Y392260D02*
D03*
X600500Y511740D02*
D03*
Y504260D02*
D03*
Y484260D02*
D03*
Y491740D02*
D03*
Y472740D02*
D03*
Y465260D02*
D03*
X240500Y566740D02*
D03*
Y559260D02*
D03*
X302500Y566740D02*
D03*
Y559260D02*
D03*
X619501Y118291D02*
D03*
Y110810D02*
D03*
X556500Y147760D02*
D03*
Y155240D02*
D03*
X393500Y312260D02*
D03*
Y319740D02*
D03*
X348500Y309740D02*
D03*
Y302260D02*
D03*
X277000Y141760D02*
D03*
Y149240D02*
D03*
X56500Y101260D02*
D03*
Y108740D02*
D03*
Y69260D02*
D03*
Y76740D02*
D03*
X53500Y218760D02*
D03*
Y226240D02*
D03*
X57500Y189760D02*
D03*
Y197240D02*
D03*
X55000Y366260D02*
D03*
Y373740D02*
D03*
X57500Y306823D02*
D03*
Y314303D02*
D03*
X631500Y588740D02*
D03*
Y581260D02*
D03*
X384000Y319740D02*
D03*
Y312260D02*
D03*
X511500Y589760D02*
D03*
Y597240D02*
D03*
X501500Y589760D02*
D03*
Y597240D02*
D03*
X491500Y589760D02*
D03*
Y597240D02*
D03*
X441500Y589760D02*
D03*
Y597240D02*
D03*
X431500Y589760D02*
D03*
Y597240D02*
D03*
X421500Y589760D02*
D03*
Y597240D02*
D03*
X411500Y589760D02*
D03*
Y597240D02*
D03*
X495500Y45760D02*
D03*
Y53240D02*
D03*
X147000Y595740D02*
D03*
Y588260D02*
D03*
X156000Y578760D02*
D03*
Y586240D02*
D03*
X64500Y596240D02*
D03*
Y588760D02*
D03*
X74000Y578260D02*
D03*
Y585740D02*
D03*
X607500Y581260D02*
D03*
Y588740D02*
D03*
X221000Y401760D02*
D03*
Y409240D02*
D03*
X291000Y376240D02*
D03*
Y368760D02*
D03*
X181000Y408740D02*
D03*
Y401260D02*
D03*
X321000Y376740D02*
D03*
Y369260D02*
D03*
X191500Y401260D02*
D03*
Y408740D02*
D03*
X181000Y270740D02*
D03*
Y263260D02*
D03*
X225000Y326760D02*
D03*
Y334240D02*
D03*
X191000Y263260D02*
D03*
Y270740D02*
D03*
X221500Y319740D02*
D03*
Y312260D02*
D03*
X181000Y149740D02*
D03*
Y142260D02*
D03*
X302000Y323240D02*
D03*
Y315760D02*
D03*
X249500Y317740D02*
D03*
Y310260D02*
D03*
X258000Y317740D02*
D03*
Y310260D02*
D03*
X191000Y142260D02*
D03*
Y149740D02*
D03*
X149500Y426760D02*
D03*
Y434240D02*
D03*
X160500Y441740D02*
D03*
Y434260D02*
D03*
X250500Y256740D02*
D03*
Y249260D02*
D03*
X260500Y249760D02*
D03*
Y257240D02*
D03*
X68000Y490240D02*
D03*
Y482760D02*
D03*
X326000Y263240D02*
D03*
Y255760D02*
D03*
X68000Y466260D02*
D03*
Y473740D02*
D03*
X253000Y228240D02*
D03*
Y220760D02*
D03*
X535000Y45760D02*
D03*
Y53240D02*
D03*
X520000Y45760D02*
D03*
Y53240D02*
D03*
X504000Y45760D02*
D03*
Y53240D02*
D03*
X282500Y47240D02*
D03*
Y39760D02*
D03*
X403000Y415240D02*
D03*
Y407760D02*
D03*
X387000Y415240D02*
D03*
Y407760D02*
D03*
X501000Y480260D02*
D03*
Y487740D02*
D03*
X511000Y480260D02*
D03*
Y487740D02*
D03*
X521000Y480260D02*
D03*
X521000Y487740D02*
D03*
X628300Y125803D02*
D03*
Y118323D02*
D03*
X609724Y125740D02*
D03*
Y118260D02*
D03*
X703000Y569240D02*
D03*
Y561760D02*
D03*
X582000Y400740D02*
D03*
Y393260D02*
D03*
Y421740D02*
D03*
Y414260D02*
D03*
Y441740D02*
D03*
Y434260D02*
D03*
X572000Y393260D02*
D03*
Y400740D02*
D03*
Y414260D02*
D03*
Y421740D02*
D03*
Y434260D02*
D03*
Y441740D02*
D03*
X576000Y465260D02*
D03*
Y472740D02*
D03*
Y484260D02*
D03*
Y491740D02*
D03*
Y504260D02*
D03*
Y511740D02*
D03*
X664500Y392260D02*
D03*
Y399740D02*
D03*
Y411260D02*
D03*
Y418740D02*
D03*
Y430260D02*
D03*
Y437740D02*
D03*
Y448260D02*
D03*
Y455740D02*
D03*
Y466260D02*
D03*
Y473740D02*
D03*
Y484260D02*
D03*
Y491740D02*
D03*
Y502260D02*
D03*
Y509740D02*
D03*
X456500Y568240D02*
D03*
Y560760D02*
D03*
X482500Y568240D02*
D03*
Y560760D02*
D03*
X465000Y568760D02*
D03*
Y576240D02*
D03*
X473500Y568760D02*
D03*
X473500Y576240D02*
D03*
D33*
X532855Y300145D02*
D03*
X538145Y294855D02*
D03*
X526355Y294145D02*
D03*
X531645Y288855D02*
D03*
X482855Y378645D02*
D03*
X488145Y373355D02*
D03*
X473145Y357355D02*
D03*
X467855Y362645D02*
D03*
D34*
X717500Y148853D02*
D03*
Y152000D02*
D03*
Y155147D02*
D03*
Y145707D02*
D03*
Y158293D02*
D03*
D35*
X327500Y307000D02*
D03*
X322500D02*
D03*
Y312000D02*
D03*
Y317000D02*
D03*
X327500Y312000D02*
D03*
Y317000D02*
D03*
X491500Y320000D02*
D03*
X488500Y326000D02*
D03*
X483500Y324500D02*
D03*
X380506Y299476D02*
D03*
X291000Y396500D02*
D03*
X464000Y328000D02*
D03*
X463500Y339000D02*
D03*
X464000Y350000D02*
D03*
X443500D02*
D03*
X448000Y347000D02*
D03*
X459202Y352560D02*
D03*
X505316Y316200D02*
D03*
X515108Y325500D02*
D03*
X519500Y324000D02*
D03*
X504000Y312500D02*
D03*
X499500Y313500D02*
D03*
X517000Y332000D02*
D03*
X506000Y350500D02*
D03*
X508303Y356196D02*
D03*
X524220Y328377D02*
D03*
X532500Y530000D02*
D03*
X421500Y549000D02*
D03*
X411500Y547500D02*
D03*
X549889Y343596D02*
D03*
X545500Y341000D02*
D03*
X546000Y346500D02*
D03*
X549056Y350095D02*
D03*
X569911Y340965D02*
D03*
X591500Y206000D02*
D03*
Y194500D02*
D03*
X536100Y512800D02*
D03*
X532000Y381500D02*
D03*
X558500Y397000D02*
D03*
X485000Y518600D02*
D03*
X533250D02*
D03*
X567200D02*
D03*
X556300Y533700D02*
D03*
X641000Y182500D02*
D03*
X461000Y373500D02*
D03*
X533500Y377500D02*
D03*
X526166Y305597D02*
D03*
X520500Y295500D02*
D03*
X526500Y264000D02*
D03*
X576067Y260000D02*
D03*
X556500Y264000D02*
D03*
X88500Y449000D02*
D03*
X501000Y340222D02*
D03*
X554600Y310899D02*
D03*
X563000Y311000D02*
D03*
X146500Y190000D02*
D03*
Y232000D02*
D03*
X247039Y272436D02*
D03*
X274000Y383250D02*
D03*
X283877Y383000D02*
D03*
X437000Y383000D02*
D03*
X506000Y275000D02*
D03*
X621000Y305000D02*
D03*
X572596Y387360D02*
D03*
X555051Y382403D02*
D03*
X554500Y389000D02*
D03*
X692500Y315500D02*
D03*
X532232Y227783D02*
D03*
X413000Y296000D02*
D03*
X216791Y318796D02*
D03*
X258000Y314500D02*
D03*
X296500Y246500D02*
D03*
X216000Y339500D02*
D03*
X212500Y360500D02*
D03*
X560000Y418000D02*
D03*
X572000Y438000D02*
D03*
X580162Y511862D02*
D03*
X456500Y567000D02*
D03*
X175500Y138500D02*
D03*
X121038Y245814D02*
D03*
X152098Y270500D02*
D03*
X81000Y220000D02*
D03*
X469558Y401500D02*
D03*
X443500D02*
D03*
X443586Y385537D02*
D03*
X456500Y379500D02*
D03*
X224000Y447500D02*
D03*
X175531Y255000D02*
D03*
X251960Y286500D02*
D03*
X260999Y298000D02*
D03*
X269394Y362130D02*
D03*
X303500Y360000D02*
D03*
X439000Y365000D02*
D03*
Y339000D02*
D03*
X451696Y353500D02*
D03*
X471000Y359500D02*
D03*
X493000Y346500D02*
D03*
X495500Y338500D02*
D03*
X493058Y378000D02*
D03*
X538000Y303000D02*
D03*
X554000Y304500D02*
D03*
X549933Y315332D02*
D03*
X522337Y284832D02*
D03*
X531881Y305331D02*
D03*
X496035Y276476D02*
D03*
X500390Y308797D02*
D03*
X480000Y303500D02*
D03*
X484009Y302822D02*
D03*
X469938Y313755D02*
D03*
X404000Y312000D02*
D03*
X692500Y250500D02*
D03*
X629766D02*
D03*
X565133Y306001D02*
D03*
X564134Y349874D02*
D03*
X567160Y346533D02*
D03*
X526500Y260000D02*
D03*
X502140Y319808D02*
D03*
X346000Y543500D02*
D03*
X328000Y516500D02*
D03*
X183500Y103000D02*
D03*
X276000Y234500D02*
D03*
X253750Y215900D02*
D03*
X253500Y176000D02*
D03*
X221500Y193500D02*
D03*
X216000Y183500D02*
D03*
X221500Y179500D02*
D03*
X209500Y59000D02*
D03*
Y127000D02*
D03*
X221500Y282500D02*
D03*
X121000Y193000D02*
D03*
X205000Y305500D02*
D03*
X125000Y53500D02*
D03*
X143750Y81500D02*
D03*
X484500Y307000D02*
D03*
X231043Y232958D02*
D03*
X180000Y380000D02*
D03*
X200000D02*
D03*
X141098Y363968D02*
D03*
X123500Y337000D02*
D03*
X203000Y346000D02*
D03*
X206760Y320500D02*
D03*
X203000Y353500D02*
D03*
X156482Y345500D02*
D03*
X216000Y193500D02*
D03*
X362400Y372999D02*
D03*
X338000Y402000D02*
D03*
X336000Y418716D02*
D03*
X467717Y337608D02*
D03*
X544500Y563000D02*
D03*
X536000Y537000D02*
D03*
X478500Y514000D02*
D03*
X337500Y579500D02*
D03*
X334500Y576000D02*
D03*
X201000Y133000D02*
D03*
X475500Y354000D02*
D03*
X486500Y335000D02*
D03*
X264760Y377488D02*
D03*
X327000Y418500D02*
D03*
X310000Y405500D02*
D03*
X326000Y384500D02*
D03*
X347500Y329500D02*
D03*
X309745Y328960D02*
D03*
X276564Y300000D02*
D03*
X324000Y517000D02*
D03*
X309862Y537754D02*
D03*
X327000Y401500D02*
D03*
X488000Y358500D02*
D03*
X309862Y418716D02*
D03*
X344500Y582500D02*
D03*
X502500Y352500D02*
D03*
X504000Y358000D02*
D03*
X639513Y315750D02*
D03*
X700606Y327500D02*
D03*
X695501Y551500D02*
D03*
X497786Y326618D02*
D03*
X536000Y488000D02*
D03*
X561500Y438000D02*
D03*
X589001Y558000D02*
D03*
X496543Y334500D02*
D03*
X497148Y330611D02*
D03*
X502000Y324000D02*
D03*
X630000Y484000D02*
D03*
X234062Y450539D02*
D03*
X414000Y510000D02*
D03*
X506000Y493000D02*
D03*
X350500Y585000D02*
D03*
X441500Y593501D02*
D03*
X411500D02*
D03*
X421500D02*
D03*
X431500D02*
D03*
X268501Y423000D02*
D03*
X548000Y307000D02*
D03*
X572000Y397001D02*
D03*
Y418001D02*
D03*
X572596Y343596D02*
D03*
X149500Y430501D02*
D03*
X646001Y411000D02*
D03*
X645501Y392000D02*
D03*
X564134Y302190D02*
D03*
X656866Y443984D02*
D03*
X449870Y510000D02*
D03*
X456501Y598839D02*
D03*
X491500Y593501D02*
D03*
X501500D02*
D03*
X511500D02*
D03*
X594000Y7500D02*
D03*
Y125937D02*
D03*
X527455Y213500D02*
D03*
X695000Y183000D02*
D03*
X691063Y132937D02*
D03*
X639500Y347272D02*
D03*
X698260Y274500D02*
D03*
X612000Y589000D02*
D03*
X641000Y211000D02*
D03*
X699000D02*
D03*
X697000Y347500D02*
D03*
X640000Y275500D02*
D03*
X670844Y399870D02*
D03*
X671000Y419000D02*
D03*
X670844Y437870D02*
D03*
X671000Y456000D02*
D03*
X670844Y473870D02*
D03*
Y491870D02*
D03*
Y509761D02*
D03*
X580093Y472870D02*
D03*
Y491870D02*
D03*
X377870Y510000D02*
D03*
X341870D02*
D03*
X299539Y346942D02*
D03*
X264760Y335776D02*
D03*
X206501Y393500D02*
D03*
X237000Y53500D02*
D03*
X201000Y142260D02*
D03*
Y263064D02*
D03*
X57433Y170500D02*
D03*
X674500Y582500D02*
D03*
X407000Y605500D02*
D03*
D36*
X663500Y531000D02*
D03*
X671500Y527250D02*
D03*
Y534750D02*
D03*
X653500Y560500D02*
D03*
X645500Y564250D02*
D03*
Y556750D02*
D03*
X273000Y315750D02*
D03*
Y308250D02*
D03*
X265000Y312000D02*
D03*
X140000Y441750D02*
D03*
Y434250D02*
D03*
X132000Y438000D02*
D03*
X280500Y256250D02*
D03*
Y248750D02*
D03*
X272500Y252500D02*
D03*
X590500Y393250D02*
D03*
Y400750D02*
D03*
X598500Y397000D02*
D03*
X590500Y413750D02*
D03*
Y421250D02*
D03*
X598500Y417500D02*
D03*
X590500Y434250D02*
D03*
Y441750D02*
D03*
X598500Y438000D02*
D03*
X694500Y569250D02*
D03*
Y561750D02*
D03*
X686500Y565500D02*
D03*
X334000Y501500D02*
D03*
X342000Y497750D02*
D03*
Y505250D02*
D03*
X378000D02*
D03*
Y497750D02*
D03*
X370000Y501500D02*
D03*
X406000Y501000D02*
D03*
X414000Y497250D02*
D03*
Y504750D02*
D03*
X707000Y218500D02*
D03*
X699000Y222250D02*
D03*
Y214750D02*
D03*
X640500D02*
D03*
Y222250D02*
D03*
X648500Y218500D02*
D03*
X648000Y283000D02*
D03*
X640000Y286750D02*
D03*
Y279250D02*
D03*
X697500Y278250D02*
D03*
Y285750D02*
D03*
X705500Y282000D02*
D03*
X647500Y356000D02*
D03*
X639500Y359750D02*
D03*
Y352250D02*
D03*
X697000Y351750D02*
D03*
Y359250D02*
D03*
X705000Y355500D02*
D03*
X442000Y501000D02*
D03*
X450000Y497250D02*
D03*
Y504750D02*
D03*
D37*
X668750Y569500D02*
D03*
X661250D02*
D03*
X665000Y577500D02*
D03*
X185750Y482500D02*
D03*
X178250D02*
D03*
X182000Y490500D02*
D03*
X108250Y482500D02*
D03*
X100750D02*
D03*
X104500Y490500D02*
D03*
X592750Y575500D02*
D03*
X585250D02*
D03*
X589000Y583500D02*
D03*
X234250Y409500D02*
D03*
X241750D02*
D03*
X238000Y401500D02*
D03*
X269750Y376000D02*
D03*
X277250D02*
D03*
X273500Y368000D02*
D03*
X171750Y401000D02*
D03*
X164250D02*
D03*
X168000Y409000D02*
D03*
X233750Y366500D02*
D03*
X241250D02*
D03*
X237500Y358500D02*
D03*
X311750Y369000D02*
D03*
X304250D02*
D03*
X308000Y377000D02*
D03*
X171750Y263000D02*
D03*
X164250D02*
D03*
X168000Y271000D02*
D03*
X234250Y334500D02*
D03*
X241750D02*
D03*
X238000Y326500D02*
D03*
X170250Y142000D02*
D03*
X162750D02*
D03*
X166500Y150000D02*
D03*
X241250Y310000D02*
D03*
X233750D02*
D03*
X237500Y318000D02*
D03*
X295250Y315500D02*
D03*
X287750D02*
D03*
X291500Y323500D02*
D03*
X241750Y250000D02*
D03*
X234250D02*
D03*
X238000Y258000D02*
D03*
X88250Y482500D02*
D03*
X80750D02*
D03*
X84500Y490500D02*
D03*
X302250Y256500D02*
D03*
X309750D02*
D03*
X306000Y248500D02*
D03*
X406750Y391500D02*
D03*
X399250D02*
D03*
X403000Y399500D02*
D03*
X390750Y391500D02*
D03*
X383250D02*
D03*
X387000Y399500D02*
D03*
X272250Y440500D02*
D03*
X264750D02*
D03*
X268500Y448500D02*
D03*
X242250Y220500D02*
D03*
X234750D02*
D03*
X238500Y228500D02*
D03*
X587000Y591000D02*
D03*
X590750Y599000D02*
D03*
X583250D02*
D03*
X677250Y510000D02*
D03*
X684750D02*
D03*
X681000Y502000D02*
D03*
Y484000D02*
D03*
X684750Y492000D02*
D03*
X677250D02*
D03*
Y474000D02*
D03*
X684750D02*
D03*
X681000Y466000D02*
D03*
X682000Y448000D02*
D03*
X685750Y456000D02*
D03*
X678250D02*
D03*
X677250Y438000D02*
D03*
X684750D02*
D03*
X681000Y430000D02*
D03*
Y411000D02*
D03*
X684750Y419000D02*
D03*
X677250D02*
D03*
X678250Y400000D02*
D03*
X685750D02*
D03*
X682000Y392000D02*
D03*
X587500Y504000D02*
D03*
X591250Y512000D02*
D03*
X583750D02*
D03*
Y492000D02*
D03*
X591250D02*
D03*
X587500Y484000D02*
D03*
Y465000D02*
D03*
X591250Y473000D02*
D03*
X583750D02*
D03*
X615750Y589000D02*
D03*
X623250D02*
D03*
X619500Y581000D02*
D03*
X458750Y124500D02*
D03*
X451250D02*
D03*
X455000Y132500D02*
D03*
D38*
X717697Y169503D02*
D03*
X739330D02*
D03*
Y134497D02*
D03*
X717697D02*
D03*
D40*
X283960Y170000D02*
D03*
X300500D02*
D03*
X184000Y626000D02*
D03*
X561500Y624500D02*
D03*
X623000Y623500D02*
D03*
D41*
X133000Y235205D02*
D03*
Y210795D02*
D03*
X129500Y354500D02*
D03*
Y378909D02*
D03*
X133500Y72795D02*
D03*
Y97205D02*
D03*
D42*
X251500Y165366D02*
D03*
Y123634D02*
D03*
D43*
X693000Y84937D02*
D03*
Y94779D02*
D03*
Y67220D02*
D03*
Y77063D02*
D03*
D44*
X644000Y117299D02*
D03*
X644000Y154701D02*
D03*
D45*
X365500Y538417D02*
D03*
X375500D02*
D03*
X385500D02*
D03*
X395500D02*
D03*
D03*
X365500Y565583D02*
D03*
X375500D02*
D03*
X385500D02*
D03*
X395500D02*
D03*
X521000Y532583D02*
D03*
X511000D02*
D03*
X501000D02*
D03*
D03*
X521000Y505417D02*
D03*
X511000D02*
D03*
X501000D02*
D03*
D46*
X285535Y88000D02*
D03*
X302465D02*
D03*
D47*
X286000Y111000D02*
D03*
X300000D02*
D03*
D48*
X335000Y141563D02*
D03*
Y174437D02*
D03*
D49*
X268500Y464347D02*
D03*
Y507654D02*
D03*
D50*
X373496Y352000D02*
D03*
X360504Y342000D02*
D03*
X373496Y332000D02*
D03*
X360504Y322000D02*
D03*
X373496Y312000D02*
D03*
X360504Y302000D02*
D03*
D03*
D51*
X549098Y603500D02*
D03*
Y583500D02*
D03*
X523902Y593500D02*
D03*
D52*
X345874Y451614D02*
D03*
Y478386D02*
D03*
X330126Y451614D02*
D03*
Y478386D02*
D03*
X366126D02*
D03*
Y451614D02*
D03*
X381874Y478386D02*
D03*
Y451614D02*
D03*
X438126Y478386D02*
D03*
Y451614D02*
D03*
X453874Y478386D02*
D03*
Y451614D02*
D03*
X402126Y478386D02*
D03*
Y451614D02*
D03*
X417874Y478386D02*
D03*
Y451614D02*
D03*
D53*
X272750Y39940D02*
D03*
Y49000D02*
D03*
Y58060D02*
D03*
D54*
X252500Y49000D02*
D03*
D55*
X288000Y134000D02*
D03*
X293000D02*
D03*
X298000D02*
D03*
X303000D02*
D03*
Y157000D02*
D03*
X298000D02*
D03*
X293000D02*
D03*
X288000D02*
D03*
D56*
X162000Y515492D02*
D03*
X172039Y515394D02*
D03*
X181980Y515394D02*
D03*
X162000Y551122D02*
D03*
X172039D02*
D03*
X181980Y551122D02*
D03*
X104480Y551622D02*
D03*
X94539D02*
D03*
X84500D02*
D03*
X104480Y515894D02*
D03*
X94539Y515894D02*
D03*
X84500Y515992D02*
D03*
D57*
X521500Y228500D02*
D03*
X521500Y223500D02*
D03*
Y218500D02*
D03*
Y213500D02*
D03*
X498500Y213500D02*
D03*
X498500Y218500D02*
D03*
X498500Y223500D02*
D03*
Y228500D02*
D03*
D58*
X379906Y415216D02*
D03*
Y409783D02*
D03*
X396000Y409784D02*
D03*
Y415216D02*
D03*
X504000Y67716D02*
D03*
Y62283D02*
D03*
X520000D02*
D03*
Y67716D02*
D03*
X535000D02*
D03*
Y62283D02*
D03*
X104500Y505217D02*
D03*
Y499784D02*
D03*
X182000Y500783D02*
D03*
Y506216D02*
D03*
D59*
X48500Y639000D02*
D03*
X700000Y11500D02*
D03*
D60*
X169000Y626000D02*
D03*
X154000D02*
D03*
X727530Y160653D02*
D03*
Y143347D02*
D03*
X411500Y624500D02*
D03*
X421500D02*
D03*
X431500Y624500D02*
D03*
X441500Y624500D02*
D03*
X451500Y624500D02*
D03*
X461500Y624500D02*
D03*
X471500D02*
D03*
X481500Y624500D02*
D03*
X491500D02*
D03*
X501500Y624500D02*
D03*
X511500D02*
D03*
X521500Y624500D02*
D03*
X531500D02*
D03*
X541500D02*
D03*
X551500Y624500D02*
D03*
X728500Y372000D02*
D03*
Y362000D02*
D03*
Y352000D02*
D03*
Y342000D02*
D03*
Y332000D02*
D03*
X729000Y408500D02*
D03*
Y478500D02*
D03*
Y468500D02*
D03*
Y458500D02*
D03*
Y448500D02*
D03*
Y438500D02*
D03*
Y428500D02*
D03*
Y418500D02*
D03*
X583000Y623500D02*
D03*
X593000D02*
D03*
X603000D02*
D03*
X613000D02*
D03*
X728000Y585000D02*
D03*
Y575000D02*
D03*
Y565000D02*
D03*
Y555000D02*
D03*
Y545000D02*
D03*
Y535000D02*
D03*
Y525000D02*
D03*
X674500Y372500D02*
D03*
Y362500D02*
D03*
Y352500D02*
D03*
Y342500D02*
D03*
Y332500D02*
D03*
X674000Y294500D02*
D03*
Y284500D02*
D03*
Y274500D02*
D03*
Y264500D02*
D03*
X728000Y294500D02*
D03*
Y284500D02*
D03*
Y274500D02*
D03*
Y264500D02*
D03*
X728500Y228500D02*
D03*
Y218500D02*
D03*
Y208500D02*
D03*
X674000Y228500D02*
D03*
Y218500D02*
D03*
Y208500D02*
D03*
D61*
X132564Y533874D02*
D03*
D62*
X335000Y314500D02*
D03*
X315000D02*
D03*
X335000Y302000D02*
D03*
X315000D02*
D03*
X707094Y55134D02*
D03*
Y106866D02*
D03*
D63*
X325000Y302000D02*
D03*
X321000Y322000D02*
D03*
X329000D02*
D03*
D64*
X75500Y386000D02*
D03*
Y396000D02*
D03*
Y406000D02*
D03*
X93000Y598500D02*
D03*
Y588500D02*
D03*
Y578500D02*
D03*
X169000Y598500D02*
D03*
Y588500D02*
D03*
Y578500D02*
D03*
X76000Y239500D02*
D03*
Y249500D02*
D03*
Y259500D02*
D03*
X76500Y104500D02*
D03*
Y114500D02*
D03*
Y124500D02*
D03*
X29000Y414500D02*
D03*
Y424500D02*
D03*
Y434500D02*
D03*
Y462500D02*
D03*
Y472500D02*
D03*
Y482500D02*
D03*
X471000Y87500D02*
D03*
X461000D02*
D03*
X451000D02*
D03*
D65*
X366210Y174500D02*
D03*
X454790D02*
D03*
X454290Y225000D02*
D03*
X365710D02*
D03*
D66*
X151000Y488000D02*
D03*
D67*
X141000D02*
D03*
X131000D02*
D03*
D68*
X728500Y322000D02*
D03*
X729000Y398500D02*
D03*
X728000Y515000D02*
D03*
X674500Y322500D02*
D03*
X674000Y254500D02*
D03*
X728000D02*
D03*
X728500Y198500D02*
D03*
X674000D02*
D03*
D69*
X226000Y627000D02*
D03*
D70*
Y617000D02*
D03*
Y607000D02*
D03*
Y597000D02*
D03*
Y587000D02*
D03*
Y577000D02*
D03*
Y567000D02*
D03*
Y557000D02*
D03*
X316000D02*
D03*
Y567000D02*
D03*
Y577000D02*
D03*
Y587000D02*
D03*
Y597000D02*
D03*
Y607000D02*
D03*
Y617000D02*
D03*
Y627000D02*
D03*
D71*
X365500Y547000D02*
D03*
Y557000D02*
D03*
X375500Y547000D02*
D03*
Y557000D02*
D03*
X385500Y547000D02*
D03*
Y557000D02*
D03*
X395500D02*
D03*
Y547000D02*
D03*
X521000Y524000D02*
D03*
Y514000D02*
D03*
X511000Y524000D02*
D03*
Y514000D02*
D03*
X501000Y524000D02*
D03*
Y514000D02*
D03*
D72*
X100000Y634000D02*
D03*
X80000D02*
D03*
X654465Y621827D02*
D03*
X671000D02*
D03*
X687535D02*
D03*
Y600173D02*
D03*
X671000D02*
D03*
X654465D02*
D03*
X421000Y50000D02*
D03*
X441000D02*
D03*
X461000D02*
D03*
D73*
X34500Y64000D02*
D03*
Y94000D02*
D03*
Y79000D02*
D03*
Y200500D02*
D03*
Y215500D02*
D03*
Y185500D02*
D03*
Y170500D02*
D03*
X34000Y319000D02*
D03*
Y334000D02*
D03*
Y364000D02*
D03*
Y349000D02*
D03*
Y304000D02*
D03*
D74*
X34500Y109000D02*
D03*
Y230500D02*
D03*
X34000Y379000D02*
D03*
D75*
X552000Y27000D02*
D03*
X535000D02*
D03*
X520000D02*
D03*
X504000D02*
D03*
D76*
X375000Y20000D02*
D03*
X21000Y628000D02*
D03*
X375000D02*
D03*
X729000Y20000D02*
D03*
X728000Y627000D02*
D03*
X21000Y20000D02*
D03*
D77*
X430124Y253000D02*
D03*
X361500Y349641D02*
D03*
X139324Y142260D02*
D03*
X148911Y134260D02*
D03*
Y142260D02*
D03*
X139324Y134260D02*
D03*
X468551Y462539D02*
D03*
Y479539D02*
D03*
Y471039D02*
D03*
X357000Y482300D02*
D03*
Y499300D02*
D03*
Y490800D02*
D03*
X354500Y516000D02*
D03*
Y533000D02*
D03*
Y524500D02*
D03*
X339000Y553500D02*
D03*
X356000D02*
D03*
X347500D02*
D03*
X339000Y567000D02*
D03*
X356000D02*
D03*
X347500D02*
D03*
X391500Y524000D02*
D03*
X408500D02*
D03*
X400000D02*
D03*
X420329D02*
D03*
X437329D02*
D03*
X428829D02*
D03*
X511500Y566595D02*
D03*
X528500D02*
D03*
X520000D02*
D03*
X472350Y502518D02*
D03*
Y519518D02*
D03*
Y511018D02*
D03*
X463350Y502518D02*
D03*
Y519518D02*
D03*
Y511018D02*
D03*
X330248Y367478D02*
D03*
X341937D02*
D03*
X330311Y353280D02*
D03*
X342000D02*
D03*
X467524Y410500D02*
D03*
X459024D02*
D03*
X476024D02*
D03*
X496035Y416062D02*
D03*
Y424562D02*
D03*
Y407562D02*
D03*
X428829Y532583D02*
D03*
X437329D02*
D03*
X420329D02*
D03*
X616063Y545001D02*
D03*
X624563D02*
D03*
X607563D02*
D03*
X602606Y524539D02*
D03*
X611106D02*
D03*
X594106D02*
D03*
X600620Y451150D02*
D03*
X609120D02*
D03*
X592120D02*
D03*
X574300Y270000D02*
D03*
X582800D02*
D03*
X565800D02*
D03*
X569500Y222000D02*
D03*
X578000D02*
D03*
X561000D02*
D03*
X569300Y233461D02*
D03*
X577800D02*
D03*
X560800D02*
D03*
X598500Y253500D02*
D03*
X607000D02*
D03*
X590000D02*
D03*
X619177Y270563D02*
D03*
X627677D02*
D03*
X610677D02*
D03*
X622073Y86580D02*
D03*
X613573D02*
D03*
X622011Y94779D02*
D03*
X613511D02*
D03*
X624366Y137249D02*
D03*
X615866D02*
D03*
X583000Y37063D02*
D03*
X574500D02*
D03*
X583000Y29125D02*
D03*
X574500D02*
D03*
X583000Y20688D02*
D03*
X574500D02*
D03*
X583000Y62610D02*
D03*
X574500D02*
D03*
X583000Y54672D02*
D03*
X574500D02*
D03*
X583000Y46235D02*
D03*
X574500D02*
D03*
X562150Y87519D02*
D03*
X579150D02*
D03*
X570650D02*
D03*
X562088Y95719D02*
D03*
X579088D02*
D03*
X570588D02*
D03*
X615606Y169628D02*
D03*
X624106D02*
D03*
X615668Y161428D02*
D03*
X624168D02*
D03*
X504287Y374808D02*
D03*
X267158Y627200D02*
D03*
X172200Y277200D02*
D03*
X167200Y308202D02*
D03*
X144648Y342400D02*
D03*
X147488Y61774D02*
D03*
X507042Y292904D02*
D03*
X550599Y333174D02*
D03*
X470200Y613800D02*
D03*
Y596500D02*
D03*
X559000Y453800D02*
D03*
X559100Y445700D02*
D03*
X258062Y482300D02*
D03*
X275062D02*
D03*
X266562D02*
D03*
X258000Y490500D02*
D03*
X275000D02*
D03*
X266500D02*
D03*
X326624Y80019D02*
D03*
X343624D02*
D03*
X335124D02*
D03*
X326562Y88219D02*
D03*
X343562D02*
D03*
X335062D02*
D03*
X326062Y96800D02*
D03*
X343062D02*
D03*
X334562D02*
D03*
X326000Y105000D02*
D03*
X343000D02*
D03*
X334500D02*
D03*
X326562Y114800D02*
D03*
X343562D02*
D03*
X335062D02*
D03*
X326500Y123000D02*
D03*
X343500D02*
D03*
X335000D02*
D03*
X509562Y113800D02*
D03*
X526562D02*
D03*
X518062D02*
D03*
X509500Y122000D02*
D03*
X526500D02*
D03*
X518000D02*
D03*
X509703Y95300D02*
D03*
X526704D02*
D03*
X518203D02*
D03*
X509642Y103500D02*
D03*
X526642D02*
D03*
X518142D02*
D03*
X509703Y153313D02*
D03*
X526704D02*
D03*
X518203D02*
D03*
X509642Y161513D02*
D03*
X526642D02*
D03*
X518142D02*
D03*
X662632Y147428D02*
D03*
X679632D02*
D03*
X671132D02*
D03*
X662570Y155628D02*
D03*
X679570D02*
D03*
X671070D02*
D03*
X669066Y33637D02*
D03*
X686066D02*
D03*
X677566D02*
D03*
X669004Y41837D02*
D03*
X686004D02*
D03*
X677504D02*
D03*
X608004Y33387D02*
D03*
X625004D02*
D03*
X616504D02*
D03*
X607942Y41587D02*
D03*
X624942D02*
D03*
X616442D02*
D03*
X424000Y176994D02*
D03*
X432500D02*
D03*
X415500D02*
D03*
X424062Y168794D02*
D03*
X432562D02*
D03*
X415562D02*
D03*
X423124Y223500D02*
D03*
X431624D02*
D03*
X414624D02*
D03*
X423186Y215300D02*
D03*
X431686D02*
D03*
X414686D02*
D03*
X670799Y118500D02*
D03*
X679299D02*
D03*
X662299D02*
D03*
X670861Y110300D02*
D03*
X679361D02*
D03*
X662361D02*
D03*
X570588Y114550D02*
D03*
X579088D02*
D03*
X562088D02*
D03*
X570650Y106350D02*
D03*
X579150D02*
D03*
X562150D02*
D03*
X373000Y146118D02*
D03*
X364500D02*
D03*
X373000Y136531D02*
D03*
X364500D02*
D03*
X373000Y126818D02*
D03*
X364500D02*
D03*
X373000Y118087D02*
D03*
X364500D02*
D03*
X373000Y108500D02*
D03*
X364500D02*
D03*
X373000Y98787D02*
D03*
X364500D02*
D03*
X373000Y91087D02*
D03*
X364500D02*
D03*
X373000Y81500D02*
D03*
X364500D02*
D03*
X100111Y116260D02*
D03*
Y108260D02*
D03*
X109824Y116260D02*
D03*
Y108260D02*
D03*
X119411Y116260D02*
D03*
Y108260D02*
D03*
X111111Y142260D02*
D03*
X120824Y134260D02*
D03*
X130411Y142260D02*
D03*
Y134260D02*
D03*
X120824Y142260D02*
D03*
X111111Y134260D02*
D03*
X279800Y570500D02*
D03*
Y578500D02*
D03*
X270213Y570500D02*
D03*
Y578500D02*
D03*
X260500Y570500D02*
D03*
Y578500D02*
D03*
X261000Y561500D02*
D03*
Y553500D02*
D03*
X270713Y561500D02*
D03*
Y553500D02*
D03*
X280300Y561500D02*
D03*
Y553500D02*
D03*
X279800Y587500D02*
D03*
Y595500D02*
D03*
X270213Y587500D02*
D03*
Y595500D02*
D03*
X260500Y587500D02*
D03*
Y595500D02*
D03*
X260200Y612500D02*
D03*
Y604500D02*
D03*
X269913Y612500D02*
D03*
Y604500D02*
D03*
X279500Y612500D02*
D03*
Y604500D02*
D03*
X432491Y145618D02*
D03*
X432491Y136031D02*
D03*
X432491Y126318D02*
D03*
Y117587D02*
D03*
X432491Y108000D02*
D03*
X432491Y98287D02*
D03*
Y90587D02*
D03*
X432491Y81000D02*
D03*
X415000D02*
D03*
X423500D02*
D03*
X415000Y90587D02*
D03*
X423500D02*
D03*
X415000Y98287D02*
D03*
X423500D02*
D03*
X415000Y108000D02*
D03*
X423500D02*
D03*
X415000Y117587D02*
D03*
X423500D02*
D03*
X415000Y126318D02*
D03*
X423500D02*
D03*
X415000Y136031D02*
D03*
X423500D02*
D03*
X415000Y145618D02*
D03*
X423500D02*
D03*
X103287Y264000D02*
D03*
Y256000D02*
D03*
X113000Y264000D02*
D03*
Y256000D02*
D03*
X122587Y264000D02*
D03*
Y256000D02*
D03*
X189500Y294500D02*
D03*
X181500D02*
D03*
X172000D02*
D03*
X164000D02*
D03*
X155297D02*
D03*
X147297D02*
D03*
X132000Y282000D02*
D03*
Y290000D02*
D03*
X122413Y282000D02*
D03*
Y290000D02*
D03*
X112700Y282000D02*
D03*
Y290000D02*
D03*
X185806Y253752D02*
D03*
X193806D02*
D03*
X215307D02*
D03*
X207307D02*
D03*
X225063Y301300D02*
D03*
Y293300D02*
D03*
X315000Y287644D02*
D03*
X308000Y285000D02*
D03*
X273717Y287500D02*
D03*
X281717D02*
D03*
X285261Y352684D02*
D03*
X361768Y386961D02*
D03*
X353268D02*
D03*
X370268D02*
D03*
X416000Y390224D02*
D03*
X424500D02*
D03*
X348437Y320000D02*
D03*
X342000Y359728D02*
D03*
X330311D02*
D03*
X568012Y318645D02*
D03*
X576179D02*
D03*
X586000Y294000D02*
D03*
X603000D02*
D03*
X594500D02*
D03*
X555051Y283486D02*
D03*
X572051D02*
D03*
X563551D02*
D03*
X701311Y477272D02*
D03*
X727000Y497000D02*
D03*
X701405D02*
D03*
X702000Y539000D02*
D03*
X701500Y525500D02*
D03*
X689595D02*
D03*
X689500Y539094D02*
D03*
X470196Y419926D02*
D03*
X453196D02*
D03*
X461696D02*
D03*
X463500Y431000D02*
D03*
X446500D02*
D03*
X455000D02*
D03*
X432681Y409631D02*
D03*
X415681D02*
D03*
X424181D02*
D03*
X398057Y424937D02*
D03*
X381057D02*
D03*
X389557D02*
D03*
X370268Y425437D02*
D03*
X353268D02*
D03*
X361768D02*
D03*
X593735Y342367D02*
D03*
X599745Y348377D02*
D03*
X587500Y336000D02*
D03*
X623510Y371854D02*
D03*
X629521Y377864D02*
D03*
X617500Y365843D02*
D03*
X584679Y370040D02*
D03*
X593179D02*
D03*
X576179D02*
D03*
X592120Y381750D02*
D03*
X600620D02*
D03*
X583620D02*
D03*
X613562Y327800D02*
D03*
X630562D02*
D03*
X622062D02*
D03*
X613500Y336000D02*
D03*
X630500D02*
D03*
X622000D02*
D03*
X592062Y223073D02*
D03*
X609062D02*
D03*
X600562D02*
D03*
X592000Y231273D02*
D03*
X609000D02*
D03*
X600500D02*
D03*
X518142Y250800D02*
D03*
X526642D02*
D03*
X509642D02*
D03*
X511000Y187500D02*
D03*
X519500D02*
D03*
X502500D02*
D03*
X511062Y179300D02*
D03*
X519562D02*
D03*
X502562D02*
D03*
X472282Y250800D02*
D03*
X489282D02*
D03*
X480782D02*
D03*
X472720Y258500D02*
D03*
X489720D02*
D03*
X481220D02*
D03*
X411000Y320500D02*
D03*
X419500D02*
D03*
X427790Y337415D02*
D03*
X419290D02*
D03*
X441500Y265500D02*
D03*
X436000Y260000D02*
D03*
X641000Y503500D02*
D03*
X628777Y503512D02*
D03*
X638000Y457500D02*
D03*
X651500D02*
D03*
X554039Y46117D02*
D03*
X562539D02*
D03*
X554039Y54554D02*
D03*
X562539D02*
D03*
X554039Y62492D02*
D03*
X562539D02*
D03*
X445790Y319808D02*
D03*
X454290D02*
D03*
X435000Y306461D02*
D03*
X443500D02*
D03*
X428000Y298500D02*
D03*
X436500D02*
D03*
X422500Y290500D02*
D03*
X431000D02*
D03*
X413000Y265500D02*
D03*
X421500D02*
D03*
X396000D02*
D03*
X404500D02*
D03*
X380000D02*
D03*
X388500D02*
D03*
X363500D02*
D03*
X372000D02*
D03*
X355500D02*
D03*
X347000D02*
D03*
X260160Y265032D02*
D03*
X252000Y265000D02*
D03*
X243500Y265032D02*
D03*
X295500Y265000D02*
D03*
X287500D02*
D03*
X427963Y480949D02*
D03*
X428000Y490000D02*
D03*
Y500500D02*
D03*
X543000Y202500D02*
D03*
X126564Y320016D02*
D03*
X119541Y178016D02*
D03*
X65905Y644500D02*
D03*
X147500Y36000D02*
D03*
X247500Y99000D02*
D03*
X160967Y588500D02*
D03*
X194500D02*
D03*
X187250D02*
D03*
X179500D02*
D03*
Y616500D02*
D03*
X180500Y644500D02*
D03*
X194500Y623500D02*
D03*
Y630500D02*
D03*
X238000Y99000D02*
D03*
X258000D02*
D03*
X251500Y107004D02*
D03*
X261500D02*
D03*
X243000Y91004D02*
D03*
X252500D02*
D03*
X262500D02*
D03*
X238000Y84752D02*
D03*
X247500D02*
D03*
X257500D02*
D03*
X243000Y78004D02*
D03*
X252500D02*
D03*
X262500D02*
D03*
X257500Y72000D02*
D03*
X247500D02*
D03*
X238000D02*
D03*
X187250Y595500D02*
D03*
X179500D02*
D03*
X194500D02*
D03*
X187000Y602500D02*
D03*
X179500D02*
D03*
X187000Y609500D02*
D03*
X194500Y602500D02*
D03*
Y609500D02*
D03*
X179500D02*
D03*
X187000Y616500D02*
D03*
X194500D02*
D03*
Y637500D02*
D03*
X187500Y638000D02*
D03*
X180500D02*
D03*
X194500Y644500D02*
D03*
X187500D02*
D03*
X161500Y598000D02*
D03*
X157500Y603000D02*
D03*
X151000Y603000D02*
D03*
X167500Y608500D02*
D03*
X160500Y608150D02*
D03*
X154000Y609000D02*
D03*
X160500Y614500D02*
D03*
X154386Y616650D02*
D03*
X148000Y618500D02*
D03*
X144500Y625000D02*
D03*
X138064D02*
D03*
X144500Y631500D02*
D03*
X138064D02*
D03*
X157500Y638000D02*
D03*
X151000D02*
D03*
X144500D02*
D03*
X138000D02*
D03*
X157500Y644500D02*
D03*
X151000D02*
D03*
X144500D02*
D03*
X138064D02*
D03*
X78500Y588500D02*
D03*
X85000D02*
D03*
X103000Y587906D02*
D03*
X111000Y590000D02*
D03*
X106000Y594000D02*
D03*
X111000Y598000D02*
D03*
X105600Y601750D02*
D03*
X111000Y604500D02*
D03*
X106000Y608150D02*
D03*
X111000Y612000D02*
D03*
X106000Y615960D02*
D03*
X111000Y620500D02*
D03*
X106000Y625000D02*
D03*
X111000Y631000D02*
D03*
X109500Y638000D02*
D03*
X112114Y644500D02*
D03*
X104480D02*
D03*
X96000D02*
D03*
X82000Y598500D02*
D03*
X73000D02*
D03*
X85500Y604000D02*
D03*
X77000D02*
D03*
X70000Y604500D02*
D03*
X94233Y611039D02*
D03*
X85500D02*
D03*
X77150Y610350D02*
D03*
X69937Y610999D02*
D03*
X84967Y625000D02*
D03*
X80016Y619500D02*
D03*
X70850Y618800D02*
D03*
X74000Y625000D02*
D03*
X66000D02*
D03*
Y631500D02*
D03*
Y638000D02*
D03*
X80016Y644500D02*
D03*
X73000D02*
D03*
M02*
