G04*
G04 #@! TF.GenerationSoftware,Altium Limited,Altium Designer,20.0.2 (26)*
G04*
G04 Layer_Color=16711935*
%FSLAX25Y25*%
%MOIN*%
G70*
G01*
G75*
%ADD35C,0.03100*%
%ADD40R,0.08000X0.08000*%
%ADD60C,0.08000*%
%ADD61C,0.06000*%
%ADD62C,0.09055*%
%ADD63C,0.03900*%
%ADD64C,0.07500*%
%ADD65C,0.10000*%
%ADD66R,0.05906X0.05906*%
%ADD67C,0.05906*%
%ADD68R,0.08000X0.08000*%
%ADD69R,0.07480X0.07480*%
%ADD70C,0.07480*%
%ADD71C,0.06299*%
%ADD72C,0.12000*%
%ADD73C,0.07874*%
%ADD74P,0.08523X8X292.5*%
%ADD75C,0.07000*%
%ADD76C,0.25000*%
%ADD77C,0.05000*%
D35*
X491500Y320000D02*
D03*
X488500Y326000D02*
D03*
X483500Y324500D02*
D03*
X380506Y299476D02*
D03*
X291000Y396500D02*
D03*
X464000Y328000D02*
D03*
X463500Y339000D02*
D03*
X464000Y350000D02*
D03*
X443500D02*
D03*
X448000Y347000D02*
D03*
X459202Y352560D02*
D03*
X505316Y316200D02*
D03*
X515108Y325500D02*
D03*
X519500Y324000D02*
D03*
X504000Y312500D02*
D03*
X499500Y313500D02*
D03*
X517000Y332000D02*
D03*
X506000Y350500D02*
D03*
X508303Y356196D02*
D03*
X524220Y328377D02*
D03*
X532500Y530000D02*
D03*
X421500Y549000D02*
D03*
X411500Y547500D02*
D03*
X549889Y343596D02*
D03*
X545500Y341000D02*
D03*
X546000Y346500D02*
D03*
X549056Y350095D02*
D03*
X569911Y340965D02*
D03*
X591500Y206000D02*
D03*
Y194500D02*
D03*
X536100Y512800D02*
D03*
X532000Y381500D02*
D03*
X558500Y397000D02*
D03*
X485000Y518600D02*
D03*
X533250D02*
D03*
X567200D02*
D03*
X556300Y533700D02*
D03*
X641000Y182500D02*
D03*
X461000Y373500D02*
D03*
X533500Y377500D02*
D03*
X526166Y305597D02*
D03*
X520500Y295500D02*
D03*
X526500Y264000D02*
D03*
X576067Y260000D02*
D03*
X556500Y264000D02*
D03*
X88500Y449000D02*
D03*
X501000Y340222D02*
D03*
X554600Y310899D02*
D03*
X563000Y311000D02*
D03*
X146500Y190000D02*
D03*
Y232000D02*
D03*
X247039Y272436D02*
D03*
X274000Y383250D02*
D03*
X283877Y383000D02*
D03*
X437000Y383000D02*
D03*
X506000Y275000D02*
D03*
X621000Y305000D02*
D03*
X572596Y387360D02*
D03*
X555051Y382403D02*
D03*
X554500Y389000D02*
D03*
X692500Y315500D02*
D03*
X532232Y227783D02*
D03*
X413000Y296000D02*
D03*
X216791Y318796D02*
D03*
X258000Y314500D02*
D03*
X296500Y246500D02*
D03*
X216000Y339500D02*
D03*
X212500Y360500D02*
D03*
X560000Y418000D02*
D03*
X572000Y438000D02*
D03*
X580162Y511862D02*
D03*
X456500Y567000D02*
D03*
X175500Y138500D02*
D03*
X121038Y245814D02*
D03*
X152098Y270500D02*
D03*
X81000Y220000D02*
D03*
X469558Y401500D02*
D03*
X443500D02*
D03*
X443586Y385537D02*
D03*
X456500Y379500D02*
D03*
X224000Y447500D02*
D03*
X175531Y255000D02*
D03*
X251960Y286500D02*
D03*
X260999Y298000D02*
D03*
X269394Y362130D02*
D03*
X303500Y360000D02*
D03*
X439000Y365000D02*
D03*
Y339000D02*
D03*
X451696Y353500D02*
D03*
X471000Y359500D02*
D03*
X493000Y346500D02*
D03*
X495500Y338500D02*
D03*
X493058Y378000D02*
D03*
X538000Y303000D02*
D03*
X554000Y304500D02*
D03*
X549933Y315332D02*
D03*
X522337Y284832D02*
D03*
X531881Y305331D02*
D03*
X496035Y276476D02*
D03*
X500390Y308797D02*
D03*
X480000Y303500D02*
D03*
X484009Y302822D02*
D03*
X469938Y313755D02*
D03*
X404000Y312000D02*
D03*
X692500Y250500D02*
D03*
X629766D02*
D03*
X565133Y306001D02*
D03*
X564134Y349874D02*
D03*
X567160Y346533D02*
D03*
X526500Y260000D02*
D03*
X502140Y319808D02*
D03*
X346000Y543500D02*
D03*
X328000Y516500D02*
D03*
X183500Y103000D02*
D03*
X276000Y234500D02*
D03*
X253750Y215900D02*
D03*
X253500Y176000D02*
D03*
X221500Y193500D02*
D03*
X216000Y183500D02*
D03*
X221500Y179500D02*
D03*
X209500Y59000D02*
D03*
Y127000D02*
D03*
X221500Y282500D02*
D03*
X121000Y193000D02*
D03*
X205000Y305500D02*
D03*
X125000Y53500D02*
D03*
X143750Y81500D02*
D03*
X484500Y307000D02*
D03*
X231043Y232958D02*
D03*
X180000Y380000D02*
D03*
X200000D02*
D03*
X141098Y363968D02*
D03*
X123500Y337000D02*
D03*
X203000Y346000D02*
D03*
X206760Y320500D02*
D03*
X203000Y353500D02*
D03*
X156482Y345500D02*
D03*
X216000Y193500D02*
D03*
X362400Y372999D02*
D03*
X338000Y402000D02*
D03*
X336000Y418716D02*
D03*
X467717Y337608D02*
D03*
X544500Y563000D02*
D03*
X536000Y537000D02*
D03*
X478500Y514000D02*
D03*
X337500Y579500D02*
D03*
X334500Y576000D02*
D03*
X201000Y133000D02*
D03*
X475500Y354000D02*
D03*
X486500Y335000D02*
D03*
X264760Y377488D02*
D03*
X327000Y418500D02*
D03*
X310000Y405500D02*
D03*
X326000Y384500D02*
D03*
X347500Y329500D02*
D03*
X309745Y328960D02*
D03*
X276564Y300000D02*
D03*
X324000Y517000D02*
D03*
X309862Y537754D02*
D03*
X327000Y401500D02*
D03*
X488000Y358500D02*
D03*
X309862Y418716D02*
D03*
X344500Y582500D02*
D03*
X502500Y352500D02*
D03*
X504000Y358000D02*
D03*
X639513Y315750D02*
D03*
X700606Y327500D02*
D03*
X695501Y551500D02*
D03*
X497786Y326618D02*
D03*
X536000Y488000D02*
D03*
X561500Y438000D02*
D03*
X589001Y558000D02*
D03*
X496543Y334500D02*
D03*
X497148Y330611D02*
D03*
X502000Y324000D02*
D03*
X630000Y484000D02*
D03*
X234062Y450539D02*
D03*
X414000Y510000D02*
D03*
X506000Y493000D02*
D03*
X350500Y585000D02*
D03*
X441500Y593501D02*
D03*
X411500D02*
D03*
X421500D02*
D03*
X431500D02*
D03*
X268501Y423000D02*
D03*
X548000Y307000D02*
D03*
X572000Y397001D02*
D03*
Y418001D02*
D03*
X572596Y343596D02*
D03*
X149500Y430501D02*
D03*
X646001Y411000D02*
D03*
X645501Y392000D02*
D03*
X564134Y302190D02*
D03*
X656866Y443984D02*
D03*
X449870Y510000D02*
D03*
X456501Y598839D02*
D03*
X491500Y593501D02*
D03*
X501500D02*
D03*
X511500D02*
D03*
X594000Y7500D02*
D03*
Y125937D02*
D03*
X527455Y213500D02*
D03*
X695000Y183000D02*
D03*
X691063Y132937D02*
D03*
X639500Y347272D02*
D03*
X698260Y274500D02*
D03*
X612000Y589000D02*
D03*
X641000Y211000D02*
D03*
X699000D02*
D03*
X697000Y347500D02*
D03*
X640000Y275500D02*
D03*
X670844Y399870D02*
D03*
X671000Y419000D02*
D03*
X670844Y437870D02*
D03*
X671000Y456000D02*
D03*
X670844Y473870D02*
D03*
Y491870D02*
D03*
Y509761D02*
D03*
X580093Y472870D02*
D03*
Y491870D02*
D03*
X377870Y510000D02*
D03*
X341870D02*
D03*
X299539Y346942D02*
D03*
X264760Y335776D02*
D03*
X206501Y393500D02*
D03*
X237000Y53500D02*
D03*
X201000Y142260D02*
D03*
Y263064D02*
D03*
X57433Y170500D02*
D03*
X674500Y582500D02*
D03*
X407000Y605500D02*
D03*
D40*
X184000Y626000D02*
D03*
X561500Y624500D02*
D03*
X623000Y623500D02*
D03*
D60*
X169000Y626000D02*
D03*
X154000D02*
D03*
X727530Y160653D02*
D03*
Y143347D02*
D03*
X411500Y624500D02*
D03*
X421500D02*
D03*
X431500Y624500D02*
D03*
X441500Y624500D02*
D03*
X451500Y624500D02*
D03*
X461500Y624500D02*
D03*
X471500D02*
D03*
X481500Y624500D02*
D03*
X491500D02*
D03*
X501500Y624500D02*
D03*
X511500D02*
D03*
X521500Y624500D02*
D03*
X531500D02*
D03*
X541500D02*
D03*
X551500Y624500D02*
D03*
X728500Y372000D02*
D03*
Y362000D02*
D03*
Y352000D02*
D03*
Y342000D02*
D03*
Y332000D02*
D03*
X729000Y408500D02*
D03*
Y478500D02*
D03*
Y468500D02*
D03*
Y458500D02*
D03*
Y448500D02*
D03*
Y438500D02*
D03*
Y428500D02*
D03*
Y418500D02*
D03*
X583000Y623500D02*
D03*
X593000D02*
D03*
X603000D02*
D03*
X613000D02*
D03*
X728000Y585000D02*
D03*
Y575000D02*
D03*
Y565000D02*
D03*
Y555000D02*
D03*
Y545000D02*
D03*
Y535000D02*
D03*
Y525000D02*
D03*
X674500Y372500D02*
D03*
Y362500D02*
D03*
Y352500D02*
D03*
Y342500D02*
D03*
Y332500D02*
D03*
X674000Y294500D02*
D03*
Y284500D02*
D03*
Y274500D02*
D03*
Y264500D02*
D03*
X728000Y294500D02*
D03*
Y284500D02*
D03*
Y274500D02*
D03*
Y264500D02*
D03*
X728500Y228500D02*
D03*
Y218500D02*
D03*
Y208500D02*
D03*
X674000Y228500D02*
D03*
Y218500D02*
D03*
Y208500D02*
D03*
D61*
X132564Y533874D02*
D03*
D62*
X335000Y314500D02*
D03*
X315000D02*
D03*
X335000Y302000D02*
D03*
X315000D02*
D03*
X707094Y55134D02*
D03*
Y106866D02*
D03*
D63*
X325000Y302000D02*
D03*
X321000Y322000D02*
D03*
X329000D02*
D03*
D64*
X75500Y386000D02*
D03*
Y396000D02*
D03*
Y406000D02*
D03*
X93000Y598500D02*
D03*
Y588500D02*
D03*
Y578500D02*
D03*
X169000Y598500D02*
D03*
Y588500D02*
D03*
Y578500D02*
D03*
X76000Y239500D02*
D03*
Y249500D02*
D03*
Y259500D02*
D03*
X76500Y104500D02*
D03*
Y114500D02*
D03*
Y124500D02*
D03*
X29000Y414500D02*
D03*
Y424500D02*
D03*
Y434500D02*
D03*
Y462500D02*
D03*
Y472500D02*
D03*
Y482500D02*
D03*
X471000Y87500D02*
D03*
X461000D02*
D03*
X451000D02*
D03*
D65*
X366210Y174500D02*
D03*
X454790D02*
D03*
X454290Y225000D02*
D03*
X365710D02*
D03*
D66*
X151000Y488000D02*
D03*
D67*
X141000D02*
D03*
X131000D02*
D03*
D68*
X728500Y322000D02*
D03*
X729000Y398500D02*
D03*
X728000Y515000D02*
D03*
X674500Y322500D02*
D03*
X674000Y254500D02*
D03*
X728000D02*
D03*
X728500Y198500D02*
D03*
X674000D02*
D03*
D69*
X226000Y627000D02*
D03*
D70*
Y617000D02*
D03*
Y607000D02*
D03*
Y597000D02*
D03*
Y587000D02*
D03*
Y577000D02*
D03*
Y567000D02*
D03*
Y557000D02*
D03*
X316000D02*
D03*
Y567000D02*
D03*
Y577000D02*
D03*
Y587000D02*
D03*
Y597000D02*
D03*
Y607000D02*
D03*
Y617000D02*
D03*
Y627000D02*
D03*
D71*
X365500Y547000D02*
D03*
Y557000D02*
D03*
X375500Y547000D02*
D03*
Y557000D02*
D03*
X385500Y547000D02*
D03*
Y557000D02*
D03*
X395500D02*
D03*
Y547000D02*
D03*
X521000Y524000D02*
D03*
Y514000D02*
D03*
X511000Y524000D02*
D03*
Y514000D02*
D03*
X501000Y524000D02*
D03*
Y514000D02*
D03*
D72*
X100000Y634000D02*
D03*
X80000D02*
D03*
X654465Y621827D02*
D03*
X671000D02*
D03*
X687535D02*
D03*
Y600173D02*
D03*
X671000D02*
D03*
X654465D02*
D03*
X421000Y50000D02*
D03*
X441000D02*
D03*
X461000D02*
D03*
D73*
X34500Y64000D02*
D03*
Y94000D02*
D03*
Y79000D02*
D03*
Y200500D02*
D03*
Y215500D02*
D03*
Y185500D02*
D03*
Y170500D02*
D03*
X34000Y319000D02*
D03*
Y334000D02*
D03*
Y364000D02*
D03*
Y349000D02*
D03*
Y304000D02*
D03*
D74*
X34500Y109000D02*
D03*
Y230500D02*
D03*
X34000Y379000D02*
D03*
D75*
X552000Y27000D02*
D03*
X535000D02*
D03*
X520000D02*
D03*
X504000D02*
D03*
D76*
X375000Y20000D02*
D03*
X21000Y628000D02*
D03*
X375000D02*
D03*
X729000Y20000D02*
D03*
X728000Y627000D02*
D03*
X21000Y20000D02*
D03*
D77*
X430124Y253000D02*
D03*
X361500Y349641D02*
D03*
X139324Y142260D02*
D03*
X148911Y134260D02*
D03*
Y142260D02*
D03*
X139324Y134260D02*
D03*
X468551Y462539D02*
D03*
Y479539D02*
D03*
Y471039D02*
D03*
X357000Y482300D02*
D03*
Y499300D02*
D03*
Y490800D02*
D03*
X354500Y516000D02*
D03*
Y533000D02*
D03*
Y524500D02*
D03*
X339000Y553500D02*
D03*
X356000D02*
D03*
X347500D02*
D03*
X339000Y567000D02*
D03*
X356000D02*
D03*
X347500D02*
D03*
X391500Y524000D02*
D03*
X408500D02*
D03*
X400000D02*
D03*
X420329D02*
D03*
X437329D02*
D03*
X428829D02*
D03*
X511500Y566595D02*
D03*
X528500D02*
D03*
X520000D02*
D03*
X472350Y502518D02*
D03*
Y519518D02*
D03*
Y511018D02*
D03*
X463350Y502518D02*
D03*
Y519518D02*
D03*
Y511018D02*
D03*
X330248Y367478D02*
D03*
X341937D02*
D03*
X330311Y353280D02*
D03*
X342000D02*
D03*
X467524Y410500D02*
D03*
X459024D02*
D03*
X476024D02*
D03*
X496035Y416062D02*
D03*
Y424562D02*
D03*
Y407562D02*
D03*
X428829Y532583D02*
D03*
X437329D02*
D03*
X420329D02*
D03*
X616063Y545001D02*
D03*
X624563D02*
D03*
X607563D02*
D03*
X602606Y524539D02*
D03*
X611106D02*
D03*
X594106D02*
D03*
X600620Y451150D02*
D03*
X609120D02*
D03*
X592120D02*
D03*
X574300Y270000D02*
D03*
X582800D02*
D03*
X565800D02*
D03*
X569500Y222000D02*
D03*
X578000D02*
D03*
X561000D02*
D03*
X569300Y233461D02*
D03*
X577800D02*
D03*
X560800D02*
D03*
X598500Y253500D02*
D03*
X607000D02*
D03*
X590000D02*
D03*
X619177Y270563D02*
D03*
X627677D02*
D03*
X610677D02*
D03*
X622073Y86580D02*
D03*
X613573D02*
D03*
X622011Y94779D02*
D03*
X613511D02*
D03*
X624366Y137249D02*
D03*
X615866D02*
D03*
X583000Y37063D02*
D03*
X574500D02*
D03*
X583000Y29125D02*
D03*
X574500D02*
D03*
X583000Y20688D02*
D03*
X574500D02*
D03*
X583000Y62610D02*
D03*
X574500D02*
D03*
X583000Y54672D02*
D03*
X574500D02*
D03*
X583000Y46235D02*
D03*
X574500D02*
D03*
X562150Y87519D02*
D03*
X579150D02*
D03*
X570650D02*
D03*
X562088Y95719D02*
D03*
X579088D02*
D03*
X570588D02*
D03*
X615606Y169628D02*
D03*
X624106D02*
D03*
X615668Y161428D02*
D03*
X624168D02*
D03*
X504287Y374808D02*
D03*
X267158Y627200D02*
D03*
X172200Y277200D02*
D03*
X167200Y308202D02*
D03*
X144648Y342400D02*
D03*
X147488Y61774D02*
D03*
X507042Y292904D02*
D03*
X550599Y333174D02*
D03*
X470200Y613800D02*
D03*
Y596500D02*
D03*
X559000Y453800D02*
D03*
X559100Y445700D02*
D03*
X258062Y482300D02*
D03*
X275062D02*
D03*
X266562D02*
D03*
X258000Y490500D02*
D03*
X275000D02*
D03*
X266500D02*
D03*
X326624Y80019D02*
D03*
X343624D02*
D03*
X335124D02*
D03*
X326562Y88219D02*
D03*
X343562D02*
D03*
X335062D02*
D03*
X326062Y96800D02*
D03*
X343062D02*
D03*
X334562D02*
D03*
X326000Y105000D02*
D03*
X343000D02*
D03*
X334500D02*
D03*
X326562Y114800D02*
D03*
X343562D02*
D03*
X335062D02*
D03*
X326500Y123000D02*
D03*
X343500D02*
D03*
X335000D02*
D03*
X509562Y113800D02*
D03*
X526562D02*
D03*
X518062D02*
D03*
X509500Y122000D02*
D03*
X526500D02*
D03*
X518000D02*
D03*
X509703Y95300D02*
D03*
X526704D02*
D03*
X518203D02*
D03*
X509642Y103500D02*
D03*
X526642D02*
D03*
X518142D02*
D03*
X509703Y153313D02*
D03*
X526704D02*
D03*
X518203D02*
D03*
X509642Y161513D02*
D03*
X526642D02*
D03*
X518142D02*
D03*
X662632Y147428D02*
D03*
X679632D02*
D03*
X671132D02*
D03*
X662570Y155628D02*
D03*
X679570D02*
D03*
X671070D02*
D03*
X669066Y33637D02*
D03*
X686066D02*
D03*
X677566D02*
D03*
X669004Y41837D02*
D03*
X686004D02*
D03*
X677504D02*
D03*
X608004Y33387D02*
D03*
X625004D02*
D03*
X616504D02*
D03*
X607942Y41587D02*
D03*
X624942D02*
D03*
X616442D02*
D03*
X424000Y176994D02*
D03*
X432500D02*
D03*
X415500D02*
D03*
X424062Y168794D02*
D03*
X432562D02*
D03*
X415562D02*
D03*
X423124Y223500D02*
D03*
X431624D02*
D03*
X414624D02*
D03*
X423186Y215300D02*
D03*
X431686D02*
D03*
X414686D02*
D03*
X670799Y118500D02*
D03*
X679299D02*
D03*
X662299D02*
D03*
X670861Y110300D02*
D03*
X679361D02*
D03*
X662361D02*
D03*
X570588Y114550D02*
D03*
X579088D02*
D03*
X562088D02*
D03*
X570650Y106350D02*
D03*
X579150D02*
D03*
X562150D02*
D03*
X373000Y146118D02*
D03*
X364500D02*
D03*
X373000Y136531D02*
D03*
X364500D02*
D03*
X373000Y126818D02*
D03*
X364500D02*
D03*
X373000Y118087D02*
D03*
X364500D02*
D03*
X373000Y108500D02*
D03*
X364500D02*
D03*
X373000Y98787D02*
D03*
X364500D02*
D03*
X373000Y91087D02*
D03*
X364500D02*
D03*
X373000Y81500D02*
D03*
X364500D02*
D03*
X100111Y116260D02*
D03*
Y108260D02*
D03*
X109824Y116260D02*
D03*
Y108260D02*
D03*
X119411Y116260D02*
D03*
Y108260D02*
D03*
X111111Y142260D02*
D03*
X120824Y134260D02*
D03*
X130411Y142260D02*
D03*
Y134260D02*
D03*
X120824Y142260D02*
D03*
X111111Y134260D02*
D03*
X279800Y570500D02*
D03*
Y578500D02*
D03*
X270213Y570500D02*
D03*
Y578500D02*
D03*
X260500Y570500D02*
D03*
Y578500D02*
D03*
X261000Y561500D02*
D03*
Y553500D02*
D03*
X270713Y561500D02*
D03*
Y553500D02*
D03*
X280300Y561500D02*
D03*
Y553500D02*
D03*
X279800Y587500D02*
D03*
Y595500D02*
D03*
X270213Y587500D02*
D03*
Y595500D02*
D03*
X260500Y587500D02*
D03*
Y595500D02*
D03*
X260200Y612500D02*
D03*
Y604500D02*
D03*
X269913Y612500D02*
D03*
Y604500D02*
D03*
X279500Y612500D02*
D03*
Y604500D02*
D03*
X432491Y145618D02*
D03*
X432491Y136031D02*
D03*
X432491Y126318D02*
D03*
Y117587D02*
D03*
X432491Y108000D02*
D03*
X432491Y98287D02*
D03*
Y90587D02*
D03*
X432491Y81000D02*
D03*
X415000D02*
D03*
X423500D02*
D03*
X415000Y90587D02*
D03*
X423500D02*
D03*
X415000Y98287D02*
D03*
X423500D02*
D03*
X415000Y108000D02*
D03*
X423500D02*
D03*
X415000Y117587D02*
D03*
X423500D02*
D03*
X415000Y126318D02*
D03*
X423500D02*
D03*
X415000Y136031D02*
D03*
X423500D02*
D03*
X415000Y145618D02*
D03*
X423500D02*
D03*
X103287Y264000D02*
D03*
Y256000D02*
D03*
X113000Y264000D02*
D03*
Y256000D02*
D03*
X122587Y264000D02*
D03*
Y256000D02*
D03*
X189500Y294500D02*
D03*
X181500D02*
D03*
X172000D02*
D03*
X164000D02*
D03*
X155297D02*
D03*
X147297D02*
D03*
X132000Y282000D02*
D03*
Y290000D02*
D03*
X122413Y282000D02*
D03*
Y290000D02*
D03*
X112700Y282000D02*
D03*
Y290000D02*
D03*
X185806Y253752D02*
D03*
X193806D02*
D03*
X215307D02*
D03*
X207307D02*
D03*
X225063Y301300D02*
D03*
Y293300D02*
D03*
X315000Y287644D02*
D03*
X308000Y285000D02*
D03*
X273717Y287500D02*
D03*
X281717D02*
D03*
X285261Y352684D02*
D03*
X361768Y386961D02*
D03*
X353268D02*
D03*
X370268D02*
D03*
X416000Y390224D02*
D03*
X424500D02*
D03*
X348437Y320000D02*
D03*
X342000Y359728D02*
D03*
X330311D02*
D03*
X568012Y318645D02*
D03*
X576179D02*
D03*
X586000Y294000D02*
D03*
X603000D02*
D03*
X594500D02*
D03*
X555051Y283486D02*
D03*
X572051D02*
D03*
X563551D02*
D03*
X701311Y477272D02*
D03*
X727000Y497000D02*
D03*
X701405D02*
D03*
X702000Y539000D02*
D03*
X701500Y525500D02*
D03*
X689595D02*
D03*
X689500Y539094D02*
D03*
X470196Y419926D02*
D03*
X453196D02*
D03*
X461696D02*
D03*
X463500Y431000D02*
D03*
X446500D02*
D03*
X455000D02*
D03*
X432681Y409631D02*
D03*
X415681D02*
D03*
X424181D02*
D03*
X398057Y424937D02*
D03*
X381057D02*
D03*
X389557D02*
D03*
X370268Y425437D02*
D03*
X353268D02*
D03*
X361768D02*
D03*
X593735Y342367D02*
D03*
X599745Y348377D02*
D03*
X587500Y336000D02*
D03*
X623510Y371854D02*
D03*
X629521Y377864D02*
D03*
X617500Y365843D02*
D03*
X584679Y370040D02*
D03*
X593179D02*
D03*
X576179D02*
D03*
X592120Y381750D02*
D03*
X600620D02*
D03*
X583620D02*
D03*
X613562Y327800D02*
D03*
X630562D02*
D03*
X622062D02*
D03*
X613500Y336000D02*
D03*
X630500D02*
D03*
X622000D02*
D03*
X592062Y223073D02*
D03*
X609062D02*
D03*
X600562D02*
D03*
X592000Y231273D02*
D03*
X609000D02*
D03*
X600500D02*
D03*
X518142Y250800D02*
D03*
X526642D02*
D03*
X509642D02*
D03*
X511000Y187500D02*
D03*
X519500D02*
D03*
X502500D02*
D03*
X511062Y179300D02*
D03*
X519562D02*
D03*
X502562D02*
D03*
X472282Y250800D02*
D03*
X489282D02*
D03*
X480782D02*
D03*
X472720Y258500D02*
D03*
X489720D02*
D03*
X481220D02*
D03*
X411000Y320500D02*
D03*
X419500D02*
D03*
X427790Y337415D02*
D03*
X419290D02*
D03*
X441500Y265500D02*
D03*
X436000Y260000D02*
D03*
X641000Y503500D02*
D03*
X628777Y503512D02*
D03*
X638000Y457500D02*
D03*
X651500D02*
D03*
X554039Y46117D02*
D03*
X562539D02*
D03*
X554039Y54554D02*
D03*
X562539D02*
D03*
X554039Y62492D02*
D03*
X562539D02*
D03*
X445790Y319808D02*
D03*
X454290D02*
D03*
X435000Y306461D02*
D03*
X443500D02*
D03*
X428000Y298500D02*
D03*
X436500D02*
D03*
X422500Y290500D02*
D03*
X431000D02*
D03*
X413000Y265500D02*
D03*
X421500D02*
D03*
X396000D02*
D03*
X404500D02*
D03*
X380000D02*
D03*
X388500D02*
D03*
X363500D02*
D03*
X372000D02*
D03*
X355500D02*
D03*
X347000D02*
D03*
X260160Y265032D02*
D03*
X252000Y265000D02*
D03*
X243500Y265032D02*
D03*
X295500Y265000D02*
D03*
X287500D02*
D03*
X427963Y480949D02*
D03*
X428000Y490000D02*
D03*
Y500500D02*
D03*
X543000Y202500D02*
D03*
X126564Y320016D02*
D03*
X119541Y178016D02*
D03*
X65905Y644500D02*
D03*
X147500Y36000D02*
D03*
X247500Y99000D02*
D03*
X160967Y588500D02*
D03*
X194500D02*
D03*
X187250D02*
D03*
X179500D02*
D03*
Y616500D02*
D03*
X180500Y644500D02*
D03*
X194500Y623500D02*
D03*
Y630500D02*
D03*
X238000Y99000D02*
D03*
X258000D02*
D03*
X251500Y107004D02*
D03*
X261500D02*
D03*
X243000Y91004D02*
D03*
X252500D02*
D03*
X262500D02*
D03*
X238000Y84752D02*
D03*
X247500D02*
D03*
X257500D02*
D03*
X243000Y78004D02*
D03*
X252500D02*
D03*
X262500D02*
D03*
X257500Y72000D02*
D03*
X247500D02*
D03*
X238000D02*
D03*
X187250Y595500D02*
D03*
X179500D02*
D03*
X194500D02*
D03*
X187000Y602500D02*
D03*
X179500D02*
D03*
X187000Y609500D02*
D03*
X194500Y602500D02*
D03*
Y609500D02*
D03*
X179500D02*
D03*
X187000Y616500D02*
D03*
X194500D02*
D03*
Y637500D02*
D03*
X187500Y638000D02*
D03*
X180500D02*
D03*
X194500Y644500D02*
D03*
X187500D02*
D03*
X161500Y598000D02*
D03*
X157500Y603000D02*
D03*
X151000Y603000D02*
D03*
X167500Y608500D02*
D03*
X160500Y608150D02*
D03*
X154000Y609000D02*
D03*
X160500Y614500D02*
D03*
X154386Y616650D02*
D03*
X148000Y618500D02*
D03*
X144500Y625000D02*
D03*
X138064D02*
D03*
X144500Y631500D02*
D03*
X138064D02*
D03*
X157500Y638000D02*
D03*
X151000D02*
D03*
X144500D02*
D03*
X138000D02*
D03*
X157500Y644500D02*
D03*
X151000D02*
D03*
X144500D02*
D03*
X138064D02*
D03*
X78500Y588500D02*
D03*
X85000D02*
D03*
X103000Y587906D02*
D03*
X111000Y590000D02*
D03*
X106000Y594000D02*
D03*
X111000Y598000D02*
D03*
X105600Y601750D02*
D03*
X111000Y604500D02*
D03*
X106000Y608150D02*
D03*
X111000Y612000D02*
D03*
X106000Y615960D02*
D03*
X111000Y620500D02*
D03*
X106000Y625000D02*
D03*
X111000Y631000D02*
D03*
X109500Y638000D02*
D03*
X112114Y644500D02*
D03*
X104480D02*
D03*
X96000D02*
D03*
X82000Y598500D02*
D03*
X73000D02*
D03*
X85500Y604000D02*
D03*
X77000D02*
D03*
X70000Y604500D02*
D03*
X94233Y611039D02*
D03*
X85500D02*
D03*
X77150Y610350D02*
D03*
X69937Y610999D02*
D03*
X84967Y625000D02*
D03*
X80016Y619500D02*
D03*
X70850Y618800D02*
D03*
X74000Y625000D02*
D03*
X66000D02*
D03*
Y631500D02*
D03*
Y638000D02*
D03*
X80016Y644500D02*
D03*
X73000D02*
D03*
M02*
