M48
;Layer_Color=9474304
;FILE_FORMAT=2:5
INCH,TZ
;TYPE=PLATED
T1F00S00C0.01600
T2F00S00C0.03000
T3F00S00C0.03500
T4F00S00C0.04000
T5F00S00C0.04700
T6F00S00C0.05500
T7F00S00C0.06000
T8F00S00C0.09000
T9F00S00C0.16600
;TYPE=NON_PLATED
T10F00S00C0.04000
T11F00S00C0.09000
%
T01
X102000Y50000
X290000Y20544
X686043Y146000
X670900Y170000
X667100
Y104500
X670900
X611000Y145500
X578500Y136500
X576000Y113000
X570000Y116000
X324000Y84409
X273006Y207500
X165063Y204965
X164500Y200000
X101500Y192137
X209000Y113000
X164000Y62000
X105500Y216000
X101500Y281000
X140000Y268964
X164500Y287500
X164094Y327220
X164218Y333000
X199280Y267000
X199500Y244905
X221500Y268706
X253000
X249044Y264000
X246799Y281766
X248967Y287500
X265000Y281000
Y270000
X279000Y272500
X286033Y271500
X286000Y289000
X278737Y288937
X274500Y323017
X295000Y330500
X302000Y312000
X311000Y274604
X305500Y261500
X307000Y218500
X301500Y216500
X318000Y222250
X273137Y223000
X258000Y221353
X249544Y227937
X241500Y221000
X234500Y329500
Y335000
X228000Y329500
X378500Y346500
X385500Y339500
X392500Y336500
X408500Y342500
X413271Y333784
X410500Y306000
X415000Y302500
X410500Y290500
X405500Y295500
X408984Y277295
X418000Y264000
X422000Y261000
X421500Y239500
X418000Y236500
X408500Y233000
X422903Y222416
X431096Y220263
X444305Y242514
X444000Y313000
X443828Y317000
X444000Y322000
X443500Y330500
Y336500
X439000Y339500
X436000Y347000
X428500Y350500
X432000Y354500
X438126Y359500
X440500Y364500
X463590Y354090
X471500Y352500
X464328Y322000
X484000Y321652
X488000Y325000
X501500Y318500
X500733Y333216
X509500Y340000
X516500Y339500
X519500Y343500
X506000Y361000
X516044Y308064
X512500Y298500
X511838Y293319
X508830Y290311
X509000Y286000
X491500Y287500
X471500Y293900
X507145Y263063
X509500Y236000
X553500Y244000
X559039Y266706
X568000Y271500
X564000Y285000
X558500Y287500
X538828Y289916
X538809Y280265
X535358Y277562
X539500Y271500
X541500Y267000
X551000Y321500
X568552Y322000
Y345026
X538300
X530000Y345000
X531000Y354268
X527635Y357000
X600000Y343240
X607500Y347000
X642000Y316000
X645000Y311000
X642000Y263500
X649250Y249000
X630500Y251100
X614000
X576000Y227646
X573000Y222500
X654380Y228500
X695487Y232000
X692039Y296000
X690610Y377800
X704000
X661500Y392000
X661460Y411099
Y430099
X654500Y438000
X663000Y448000
Y466000
Y484000
Y502000
X654500Y502500
X627822Y502600
X629944Y493193
X627000Y479000
X622700Y452500
X615000Y446000
X599000Y449500
X601000Y456000
X563700Y452500
X567000Y446000
X556765Y449491
X556662Y456074
X568000Y465000
Y484000
X572000Y497500
X589000Y518751
X558000Y434000
X549000
X546000Y414000
X558500
Y392858
X542934Y393000
X629500Y392000
X623000Y411000
X626000Y430000
X634981Y437901
X514500Y441500
X519500Y446500
X509000Y449500
X504000Y446500
X498500Y444500
X509000Y435500
X481078Y453422
X486000Y458500
X409000Y478600
X373000Y475500
X390000Y444500
X426500Y385500
X445000Y517505
X338769Y478386
X320050Y475000
X317000Y489000
X294500
X295000Y475000
X230500Y411500
X225500Y406300
X226000Y383500
X238000Y372500
X251461Y383000
X345874Y382000
X119321Y410953
X85435Y496500
X78964
X73000
X66900Y496600
X517000Y576181
X607500Y572000
X639000Y567000
X593000Y523000
T02
X84000Y35000
X114500Y44016
X125484
X136016Y35984
X146803
X182500Y44449
Y25933
X208500Y27449
Y39949
Y52349
X265000Y49000
X269500Y19500
X254000
X254100Y79519
X269494
Y104636
X255044
X239000
X237235Y196063
X249044
X259500Y196000
X269000
X209500Y189949
X209000Y177000
Y165500
X182000Y180500
X147000Y172000
X138000
X127752Y176748
X120000Y180099
X84500Y171000
Y200600
X66000Y196600
X59500Y207416
X67000Y136600
X85189Y136056
Y95056
X84189Y65000
X182031Y82654
X177540Y102618
X190500
X204031
X204531Y72154
X154500Y138134
X209500Y208933
X46500Y137600
X85189Y231000
X84000Y255500
X75300Y265067
X93500Y264500
X85000Y301000
Y331000
Y360000
X59000Y334600
Y325036
Y307090
Y295100
X118821Y310000
X126492
X134500
X182000Y307600
X210500Y308000
Y321000
Y294500
X211017Y264775
X210000Y254000
X209500Y236000
X191000Y237500
X174000
X182000Y218500
X185897Y256861
X181500Y348100
X382750Y246750
X604400Y364820
X615300Y358041
X611500Y372500
X602250Y381599
X310500Y406800
X302000Y501035
X202500Y370500
X187500Y370600
X173500Y370500
X92568Y401167
X82568
X71850
X32489Y408100
X22489
X11500
X11511Y448100
X11500Y457100
X22489
X22500Y448100
X32500
X32489Y457100
X32500Y497100
X22500
X11511
X98811Y573000
X176000
T03
X130000Y491000
X140000
X150000
T04
X727530Y143347
Y160653
X728500Y198500
Y208500
X674000
Y198500
Y218500
Y228500
Y254500
Y264500
Y274500
Y284500
Y294500
X674500Y322500
Y332500
Y342500
Y352500
Y362500
X728799Y362394
Y352394
Y342394
Y332394
Y322394
X728500Y294500
Y284500
Y274500
Y264500
Y254500
X728500Y228500
Y218500
X728799Y372394
X729000Y398600
Y408600
Y418600
Y428600
Y438600
Y448600
Y458600
Y468600
Y478600
X728391Y515109
X674500Y372500
X316000Y557000
Y567000
Y577000
Y587000
Y597000
Y607000
Y617000
Y627000
X226000
Y617000
Y607000
Y597000
Y587000
Y577000
Y567000
Y557000
X380000Y542000
Y532000
X390000
Y542000
X400000
Y532000
X410000
Y542000
X486000Y542083
X496000
X506000
Y532083
X496000
X486000
X481500Y624500
X491500
X501500Y624500
X511500
X521500Y624500
X471500Y624500
X461500
X451500Y624500
X441500Y624500
X431500Y624500
X421500Y624500
X411500
X531500Y624500
X541500
X551500Y624500
X561500
X583000Y623500
X593000
X603000
X613000
X623000
X728391Y585109
Y575109
Y565109
Y555109
Y545109
Y535109
Y525109
T05
X46000Y64000
Y79000
Y94000
Y109000
Y176000
Y191000
Y206000
Y221000
Y236000
Y304000
Y319000
Y334000
Y349000
Y364000
Y379000
T06
X421000Y50000
X441000
X461000
X504000Y27000
X520000
X535000
X552000
X189000Y613000
X169000
X149000
X99000Y614000
X79000
T07
X407000Y86710
X460500
Y175290
X407000
X654465Y600173
X671000
Y621827
X654465
X687535
Y600173
T08
X707094Y55134
Y106866
T09
X21000Y20000
X375000
X729000
X21000Y628000
X375000
X728000Y627000
T10
X325000Y302000
X329000Y322000
X321000
T11
X315000Y302000
Y314500
X335000
Y302000
M30
